<?xml version="1.0" encoding="UTF-8"?><svg xmlns="http://www.w3.org/2000/svg" viewBox="0 0 347.54 163.88"><defs><style>.e{fill:#ede6aa;}.f{fill:#fffaeb;}.g{fill:#a7c6dd;}.h{fill:#ca2c2f;}.i{fill:#a7ce92;}.j,.k{fill:#1d1d1b;}.k{font-family:RocketScript, Rocket Script;font-size:35.06px;}.l{fill:#1a6ba4;stroke:#000;stroke-miterlimit:10;stroke-width:2px;}</style></defs><g id="a"/><g id="b"><g id="c"><rect class="l" x="1" y="2.22" width="345.54" height="160.66"/><g><g id="d"><path class="f" d="M318.92,3.79c-.28,38.88-35.47,110.32-68.26,157.5H35.87c-12.6-11.01-19.89-23.34-18.34-36.45C21.71,89.24,108.69,36.02,187.92,3.79h130.99Z"/><g><path class="g" d="M147.24,135.64c-.15-.29-.31-.57-.48-.85-.16-.3-.34-.59-.53-.87-3.94-6.32-10.15-10.77-17.57-12.59-7.75-1.9-15.91-.7-22.96,3.37-13.22,7.64-18.8,23.32-13.71,36.6h2.13c-5.23-12.54-.03-27.6,12.57-34.88,4.57-2.63,9.61-3.99,14.69-3.99,2.28,0,4.56,.28,6.8,.82,6.99,1.72,12.81,5.91,16.48,11.88,.13,.21,.26,.43,.39,.65,.22,.36,.42,.74,.61,1.11,4,7.79,3.74,16.8-.02,24.41h2.19c3.68-8.08,3.73-17.53-.59-25.66Z"/><path class="j" d="M206.8,101.2c-.19-.37-.38-.73-.59-1.09-.12-.22-.25-.43-.39-.63-3.93-6.45-10.2-10.99-17.73-12.83-7.74-1.89-15.9-.71-22.94,3.37-7.06,4.07-12.18,10.54-14.41,18.2-2.17,7.48-1.35,15.23,2.32,21.89,.09,.17,.19,.35,.29,.52,.23,.41,.48,.82,.74,1.21,5.45,8.44,14.85,13.1,24.64,13.1,3.27,0,6.6-.52,9.84-1.6,.63-.21,1.26-.45,1.89-.69,1.33-.55,2.66-1.19,3.95-1.93,.9-.53,1.76-1.08,2.59-1.68,.55-.38,1.07-.79,1.59-1.19,11-8.97,14.65-24.29,8.21-36.65Zm-9.19,34.87c-.52,.44-1.05,.84-1.6,1.24-.83,.6-1.69,1.16-2.59,1.68-1.31,.76-2.63,1.4-3.99,1.92-.64,.26-1.29,.49-1.93,.69-11.79,3.73-24.72-.35-31.5-10.46-.33-.48-.64-.99-.94-1.5-.04-.07-.08-.15-.12-.22-3.54-6.26-4.36-13.58-2.3-20.65,2.09-7.17,6.88-13.21,13.5-17.03,4.56-2.64,9.61-3.99,14.69-3.99,2.27,0,4.55,.27,6.8,.82,7.08,1.73,12.96,6.03,16.61,12.11,.1,.14,.18,.28,.26,.42,.25,.45,.49,.89,.72,1.34,5.72,11.36,2.37,25.31-7.61,33.63Z"/><path class="h" d="M265.81,65.7c-3.92-6.78-10.34-11.56-18.11-13.46-7.76-1.9-15.9-.71-22.96,3.37-14.41,8.33-19.75,26.23-12.07,40.14,.09,.16,.18,.31,.27,.47,.25,.42,.49,.84,.76,1.25,3.97,6.1,10.07,10.42,17.35,12.2,2.4,.6,4.85,.88,7.28,.88,3.22,0,6.42-.51,9.52-1.51,.64-.2,1.27-.43,1.89-.68,1.46-.58,2.88-1.26,4.27-2.06,14.57-8.42,19.87-26.63,11.8-40.6Zm-12.79,38.88c-1.4,.81-2.83,1.5-4.31,2.05-.64,.25-1.28,.48-1.94,.68-4.96,1.51-10.19,1.68-15.25,.44-6.61-1.62-12.19-5.47-15.87-10.95-.34-.5-.68-1.03-.99-1.57-.03-.05-.06-.11-.09-.16-7.39-13.01-2.41-29.9,11.16-37.74,4.56-2.64,9.61-3.99,14.69-3.99,2.28,0,4.56,.27,6.81,.82,7.24,1.77,13.22,6.22,16.86,12.53,7.52,13.03,2.55,30.02-11.07,37.89Z"/><path class="e" d="M190.46,142.65c-.09-.17-.19-.35-.29-.52-.24-.41-.48-.82-.74-1.22-3.97-6.13-10.08-10.45-17.37-12.23-5.7-1.4-11.6-1.12-17.12,.74-.63,.21-1.26,.44-1.88,.69-1.35,.55-2.67,1.19-3.96,1.93-1,.58-1.96,1.21-2.87,1.88-.55,.39-1.07,.8-1.57,1.21-7.92,6.6-11.93,16.5-10.99,26.17h1.99c-.94-8.96,2.71-18.2,10-24.41,.5-.43,1.03-.85,1.58-1.25,.9-.68,1.85-1.3,2.85-1.87,1.3-.76,2.63-1.4,4-1.93,.63-.26,1.27-.49,1.91-.7,2.86-.91,5.81-1.36,8.78-1.36,2.28,0,4.56,.26,6.81,.82,6.63,1.62,12.23,5.49,15.91,11,.34,.49,.65,1,.95,1.52,.04,.07,.08,.15,.12,.22,3.18,5.61,4.05,11.95,2.92,17.96h2.02c1.09-6.25,.17-12.8-3.05-18.65Z"/><path class="i" d="M249.74,108.36c-.08-.16-.16-.31-.25-.47-.25-.43-.51-.85-.78-1.26-7.24-11.15-21.36-15.68-34.14-11.56-.64,.2-1.26,.43-1.9,.68-1.44,.57-2.87,1.25-4.25,2.05-.91,.53-1.77,1.08-2.6,1.68-.54,.38-1.07,.78-1.58,1.2-11.01,8.95-14.65,24.26-8.23,36.63,.19,.37,.4,.73,.61,1.1,.11,.22,.24,.42,.38,.63,5.39,8.81,14.99,13.68,25,13.68,5.3,0,10.72-1.36,15.69-4.22,7.05-4.08,12.16-10.55,14.39-18.2,2.19-7.5,1.36-15.27-2.34-21.94Zm.44,21.39c-2.09,7.16-6.88,13.21-13.48,17.02-13.49,7.78-30.47,3.77-38.11-8.92-.09-.14-.18-.28-.26-.43-.26-.45-.5-.89-.72-1.35-5.72-11.36-2.38-25.32,7.61-33.63,.51-.43,1.04-.85,1.58-1.24,.83-.6,1.69-1.16,2.61-1.68,1.4-.82,2.84-1.49,4.29-2.05,.64-.25,1.3-.47,1.95-.67,2.79-.85,5.64-1.25,8.46-1.25,8.95,0,17.56,4.17,22.66,11.76,.35,.51,.69,1.04,.99,1.57,.03,.05,.06,.11,.09,.16,3.57,6.25,4.4,13.61,2.33,20.71Z"/></g></g><text class="k" transform="translate(70.75 124.7) rotate(-30.06) skewX(-.12)"><tspan x="0" y="0">Helsinki</tspan></text></g></g></g></svg>