<?xml version="1.0" encoding="UTF-8"?><svg id="Calque_2" xmlns="http://www.w3.org/2000/svg" viewBox="0 0 373.73 177.79"><defs><style>.cls-1{fill:#e8e1a5;}.cls-2{fill:#fff5e6;}.cls-3{fill:#c52c2f;}.cls-4,.cls-5{fill:#1d1d1b;}.cls-6{fill:#1a6b9f;}.cls-7{fill:#a2c98d;}.cls-8{fill:#a2c1d8;}.cls-5{font-family:RocketScript, 'Rocket Script';font-size:38.64px;}</style></defs><g id="main"><rect class="cls-6" y="4.03" width="373.73" height="173.76"/><g><g id="_Groupe__2"><path class="cls-2" d="M346.96,4.18c-.31,42.86-39.09,121.59-75.24,173.6H34.99c-13.89-12.13-21.92-25.73-20.22-40.17C19.38,98.36,115.25,39.71,202.58,4.18h144.38Z"/><g><path class="cls-8" d="M157.73,149.51c-.17-.32-.34-.63-.53-.94-.18-.33-.37-.65-.58-.96-4.34-6.97-11.19-11.87-19.37-13.88-8.54-2.09-17.54-.77-25.31,3.71-14.57,8.42-20.72,25.7-15.11,40.34h2.35c-5.76-13.82-.03-30.42,13.85-38.44,5.04-2.9,10.59-4.4,16.19-4.4,2.51,0,5.03,.31,7.49,.9,7.7,1.9,14.12,6.51,18.16,13.09,.14,.23,.29,.47,.43,.72,.24,.4,.46,.82,.67,1.22,4.41,8.59,4.12,18.52-.02,26.9h2.41c4.06-8.91,4.11-19.32-.65-28.28Z"/><path class="cls-4" d="M223.38,111.55c-.21-.41-.42-.8-.65-1.2-.13-.24-.28-.47-.43-.69-4.33-7.11-11.24-12.11-19.54-14.14-8.53-2.08-17.53-.78-25.28,3.71-7.78,4.49-13.42,11.62-15.88,20.06-2.39,8.24-1.49,16.79,2.56,24.13,.1,.19,.21,.39,.32,.57,.25,.45,.53,.9,.82,1.33,6.01,9.3,16.37,14.44,27.16,14.44,3.6,0,7.27-.57,10.85-1.76,.69-.23,1.39-.5,2.08-.76,1.47-.61,2.93-1.31,4.35-2.13,.99-.58,1.94-1.19,2.85-1.85,.61-.42,1.18-.87,1.75-1.31,12.12-9.89,16.15-26.77,9.05-40.4Zm-10.13,38.43c-.57,.48-1.16,.93-1.76,1.37-.91,.66-1.86,1.28-2.85,1.85-1.44,.84-2.9,1.54-4.4,2.12-.71,.29-1.42,.54-2.13,.76-12.99,4.11-27.25-.39-34.72-11.53-.36-.53-.71-1.09-1.04-1.65-.04-.08-.09-.17-.13-.24-3.9-6.9-4.81-14.97-2.54-22.76,2.3-7.9,7.58-14.56,14.88-18.77,5.03-2.91,10.59-4.4,16.19-4.4,2.5,0,5.02,.3,7.49,.9,7.8,1.91,14.28,6.65,18.31,13.35,.11,.15,.2,.31,.29,.46,.28,.5,.54,.98,.79,1.48,6.3,12.52,2.61,27.9-8.39,37.07Z"/><path class="cls-3" d="M288.42,72.42c-4.32-7.47-11.4-12.74-19.96-14.84-8.55-2.09-17.53-.78-25.31,3.71-15.88,9.18-21.77,28.91-13.3,44.24,.1,.18,.2,.34,.3,.52,.28,.46,.54,.93,.84,1.38,4.38,6.72,11.1,11.48,19.12,13.45,2.65,.66,5.35,.97,8.02,.97,3.55,0,7.08-.56,10.49-1.66,.71-.22,1.4-.47,2.08-.75,1.61-.64,3.17-1.39,4.71-2.27,16.06-9.28,21.9-29.35,13.01-44.75Zm-14.1,42.85c-1.54,.89-3.12,1.65-4.75,2.26-.71,.28-1.41,.53-2.14,.75-5.47,1.66-11.23,1.85-16.81,.48-7.29-1.79-13.44-6.03-17.49-12.07-.37-.55-.75-1.14-1.09-1.73-.03-.06-.07-.12-.1-.18-8.15-14.34-2.66-32.96,12.3-41.6,5.03-2.91,10.59-4.4,16.19-4.4,2.51,0,5.03,.3,7.51,.9,7.98,1.95,14.57,6.86,18.58,13.81,8.29,14.36,2.81,33.09-12.2,41.76Z"/><path class="cls-1" d="M205.37,157.23c-.1-.19-.21-.39-.32-.57-.26-.45-.53-.9-.82-1.34-4.38-6.76-11.11-11.52-19.15-13.48-6.28-1.54-12.79-1.23-18.87,.82-.69,.23-1.39,.48-2.07,.76-1.49,.61-2.94,1.31-4.36,2.13-1.1,.64-2.16,1.33-3.16,2.07-.61,.43-1.18,.88-1.73,1.33-8.73,7.27-13.15,18.19-12.11,28.84h2.19c-1.04-9.88,2.99-20.06,11.02-26.9,.55-.47,1.14-.94,1.74-1.38,.99-.75,2.04-1.43,3.14-2.06,1.43-.84,2.9-1.54,4.41-2.13,.69-.29,1.4-.54,2.11-.77,3.15-1,6.4-1.5,9.68-1.5,2.51,0,5.03,.29,7.51,.9,7.31,1.79,13.48,6.05,17.54,12.12,.37,.54,.72,1.1,1.05,1.68,.04,.08,.09,.17,.13,.24,3.51,6.18,4.46,13.17,3.22,19.8h2.23c1.2-6.89,.19-14.11-3.36-20.56Z"/><path class="cls-7" d="M270.71,119.44c-.09-.18-.18-.34-.28-.52-.28-.47-.56-.94-.86-1.39-7.98-12.29-23.54-17.28-37.63-12.74-.71,.22-1.39,.47-2.09,.75-1.59,.63-3.16,1.38-4.68,2.26-1,.58-1.95,1.19-2.87,1.85-.6,.42-1.18,.86-1.74,1.32-12.14,9.86-16.15,26.74-9.07,40.37,.21,.41,.44,.8,.67,1.21,.12,.24,.26,.46,.42,.69,5.94,9.71,16.52,15.08,27.56,15.08,5.84,0,11.82-1.5,17.29-4.65,7.77-4.5,13.4-11.63,15.86-20.06,2.41-8.27,1.5-16.83-2.58-24.18Zm.48,23.58c-2.3,7.89-7.58,14.56-14.86,18.76-14.87,8.58-33.58,4.16-42.01-9.83-.1-.15-.2-.31-.29-.47-.29-.5-.55-.98-.79-1.49-6.3-12.52-2.62-27.91,8.39-37.07,.56-.47,1.15-.94,1.74-1.37,.91-.66,1.86-1.28,2.88-1.85,1.54-.9,3.13-1.64,4.73-2.26,.71-.28,1.43-.52,2.15-.74,3.08-.94,6.22-1.38,9.32-1.38,9.86,0,19.35,4.6,24.98,12.96,.39,.56,.76,1.15,1.09,1.73,.03,.06,.07,.12,.1,.18,3.93,6.89,4.85,15,2.57,22.83Z"/></g></g><text class="cls-5" transform="translate(73.43 137.45) rotate(-30.06) skewX(-.12)"><tspan x="0" y="0">Helsinki</tspan></text></g></g></svg>