<?xml version="1.0" encoding="UTF-8"?><svg xmlns="http://www.w3.org/2000/svg" viewBox="0 0 37 37"><g id="a"/><g id="b"><g id="c"><path d="M36.99,18.52c0-4.95,0-9.9,0-14.85C36.99,1.41,35.59,0,33.33,0c-9.92,0-19.83,0-29.75,0C1.44,0,0,1.45,0,3.6c0,9.9,0,19.8,0,29.7,0,2.31,1.39,3.7,3.69,3.7,9.84,0,19.68,0,29.52,0,2.4,0,3.78-1.39,3.78-3.79,0-4.89,0-9.79,0-14.68Zm-3.41,15.07h-8.64v-11.28h4.33c.21-1.71,.41-3.35,.62-5.05h-5c0-.43,0-.82,0-1.2,.02-.93-.03-1.87,.07-2.79,.13-1.14,.76-1.66,1.91-1.71,.89-.04,1.79-.05,2.69-.03,.4,.01,.57-.08,.56-.52-.02-1.34,0-2.68,0-4.07-1.91-.08-3.75-.32-5.59,.02-2.69,.49-4.53,2.46-4.79,5.2-.13,1.39-.08,2.79-.11,4.2,0,.28,0,.55,0,.89h-4.36v5.04h4.32v11.32H3.39V3.39h30.2v30.2Z"/></g></g></svg>