<?xml version="1.0" encoding="UTF-8"?><svg id="Calque_2" xmlns="http://www.w3.org/2000/svg" viewBox="0 0 228.47 215.06"><defs><style>.cls-1{letter-spacing:-.02em;}.cls-2{fill:#b5d5ba;}.cls-3{fill:#1d1d1b;font-family:Mexcellent-Regular, Mexcellent;font-size:53.52px;}.cls-4{stroke:#e8e1a5;}.cls-4,.cls-5,.cls-6,.cls-7,.cls-8{fill:none;stroke-miterlimit:10;stroke-width:4px;}.cls-5{stroke:#1d1d1b;}.cls-6{stroke:#c52c2f;}.cls-7{stroke:#a2c98d;}.cls-8{stroke:#a2c1d8;}</style></defs><g id="main"><g><g id="petit_logo_avant"><path class="cls-2" d="M48.07,51.09C85.71,9.98,97.39,6.49,144.86,1.3c47.47-5.2,31.62,5.35,35.05,29.37,2.44,17.12,64.3,3.35,44.74,39.41-24.71,45.54-17.21,56.66-32.69,80.46-28.39,43.66-184.92,103.27-167.26,30.07C42.37,107.42-9.32,131.25,1.51,96.83c5.57-17.71,17.43-24.87,46.57-45.74Z"/></g><g><g id="anneaux..."><g><ellipse class="cls-8" cx="81.76" cy="149.89" rx="22.23" ry="21.28" transform="translate(-64.23 61.35) rotate(-30.15)"/><ellipse class="cls-5" cx="126.52" cy="123.84" rx="22.23" ry="21.28" transform="translate(-45.09 80.32) rotate(-30.15)"/><ellipse class="cls-6" cx="171.41" cy="98" rx="22.23" ry="21.28" transform="translate(-26.03 99.36) rotate(-30.15)"/><ellipse class="cls-4" cx="114.41" cy="155.46" rx="22.23" ry="21.28" transform="translate(-62.61 78.51) rotate(-30.15)"/><ellipse class="cls-7" cx="159.08" cy="129.74" rx="22.23" ry="21.28" transform="translate(-43.65 97.47) rotate(-30.15)"/></g></g><text class="cls-3" transform="translate(41.77 132.28) rotate(-29.93) skewX(-.02)"><tspan x="0" y="0">M</tspan><tspan class="cls-1" x="39.98" y="0">e</tspan><tspan x="66.8" y="0">xico</tspan></text></g></g></g></svg>