<?xml version="1.0" encoding="UTF-8"?><svg xmlns="http://www.w3.org/2000/svg" viewBox="0 0 85.71 37.5"><defs><style>.d{fill:#1d1d1b;}</style></defs><g id="a"/><g id="b"><g id="c"><g><g><path class="d" d="M13.2,8.25h1.61l7.16,16.07h-2.34l-2.13-4.73h-6.81l-2,4.73h-2.35L13.2,8.25Zm3.36,9.3l-2.58-5.79-2.39,5.79h4.97Z"/><path class="d" d="M36.07,8.34h2.14v15.97h-2.3V11.89l-4.91,6.17h-.42l-4.97-6.17v12.43h-2.29V8.34h2.17l5.31,6.56,5.28-6.56Z"/><path class="d" d="M46.36,24.32h-5.41V8.34h4.18c1.32,0,2.35,.18,3.09,.53s1.3,.84,1.69,1.46c.39,.62,.58,1.34,.58,2.16,0,1.57-.81,2.69-2.44,3.37,1.17,.22,2.09,.7,2.78,1.44,.69,.74,1.03,1.62,1.03,2.65,0,.82-.21,1.54-.63,2.18s-1.03,1.16-1.85,1.57-1.83,.61-3.05,.61Zm-1.15-13.94h-1.97v4.8h1.52c1.22,0,2.09-.23,2.6-.7,.51-.46,.77-1.07,.77-1.81,0-1.53-.98-2.3-2.93-2.3Zm.17,6.84h-2.14v5.07h2.25c1.25,0,2.1-.1,2.54-.29s.8-.5,1.07-.91,.41-.85,.41-1.33-.14-.93-.43-1.34c-.29-.4-.69-.7-1.22-.9-.53-.2-1.36-.3-2.49-.3Z"/><path class="d" d="M54.01,8.34h9.06v2.04h-6.77v4.87h6.54v2.05h-6.54v4.96h6.99v2.04h-9.27V8.34Z"/><path class="d" d="M66.26,24.32V8.34h4c1.62,0,2.9,.4,3.85,1.2s1.42,1.88,1.42,3.25c0,.93-.23,1.73-.7,2.41-.46,.68-1,1.18-1.87,1.66l4.05,7.46h-2.72l-3.55-6.95s-.85,0-1.6,0h-.6v6.95h-2.29Zm2.97-14.03h-.69v5.04h.87c1.16,0,1.95-.1,2.38-.3,.43-.2,.77-.5,1.01-.9,.24-.4,.36-.86,.36-1.37s-.13-.96-.4-1.37c-.27-.41-.64-.7-1.13-.86-.48-.17-1.29-.25-2.41-.25Z"/></g><g><path class="d" d="M38.71,27.5v2.42h-.66v-1.85c0-.37-.05-.63-.15-.77-.1-.15-.27-.22-.52-.22-.14,0-.26,.03-.38,.09-.11,.06-.25,.17-.39,.33v2.42h-.66v-3.33h.66v.44c.34-.34,.66-.5,.98-.5,.42,0,.75,.2,.98,.6,.35-.41,.72-.61,1.1-.61,.32,0,.59,.12,.8,.35,.21,.24,.31,.6,.31,1.08v1.97h-.66v-1.97c0-.28-.06-.49-.17-.64-.11-.15-.28-.22-.49-.22-.27,0-.53,.14-.76,.41Z"/><path class="d" d="M43.38,26.58c.51,0,.93,.16,1.26,.49,.34,.33,.5,.74,.5,1.23s-.17,.88-.51,1.2-.77,.48-1.29,.48-.92-.16-1.25-.48c-.34-.32-.5-.72-.5-1.21s.17-.89,.51-1.22c.34-.32,.76-.49,1.28-.49Zm-.04,.59c-.32,0-.58,.1-.78,.31s-.3,.47-.3,.79,.1,.58,.31,.78c.21,.2,.47,.3,.8,.3s.59-.1,.79-.31c.21-.2,.31-.46,.31-.78s-.11-.58-.32-.79c-.21-.21-.49-.31-.81-.31Z"/><path class="d" d="M48.02,26.58h.71l-1.47,3.39h-.22l-1.51-3.39h.72l.9,2.05,.87-2.05Z"/><path class="d" d="M49.66,25.18c.11,0,.2,.04,.28,.11s.12,.17,.12,.28-.04,.2-.12,.28-.17,.12-.28,.12c-.1,0-.19-.04-.27-.12-.08-.08-.12-.17-.12-.27s.04-.19,.12-.27c.08-.08,.17-.12,.27-.12Zm-.33,1.4h.66v3.33h-.66v-3.33Z"/><path class="d" d="M51.7,26.58v.42c.29-.33,.63-.49,1-.49,.21,0,.4,.05,.58,.16s.31,.25,.41,.44,.14,.48,.14,.89v1.9h-.66v-1.9c0-.34-.05-.58-.16-.73s-.28-.22-.52-.22c-.31,0-.58,.16-.79,.47v2.38h-.67v-3.33h.67Z"/><path class="d" d="M54.68,27.73c0-.35,.13-.64,.39-.84,.26-.21,.61-.31,1.06-.31h1.37v.51h-.67c.13,.13,.22,.25,.27,.36s.08,.23,.08,.37c0,.17-.05,.34-.15,.51-.1,.17-.23,.3-.38,.39-.16,.09-.41,.16-.77,.21-.25,.04-.37,.12-.37,.26,0,.08,.05,.14,.14,.19,.09,.05,.26,.1,.51,.15,.41,.09,.67,.16,.79,.21s.22,.12,.32,.22c.16,.16,.24,.36,.24,.6,0,.32-.14,.57-.42,.76-.28,.19-.66,.28-1.13,.28s-.85-.09-1.14-.28c-.28-.19-.43-.44-.43-.76,0-.45,.28-.74,.84-.87-.22-.14-.33-.28-.33-.42,0-.11,.05-.2,.14-.29s.22-.15,.39-.19c-.49-.22-.74-.57-.74-1.05Zm1.08,2.34c-.22,0-.4,.05-.55,.14-.14,.09-.21,.21-.21,.36,0,.34,.31,.51,.93,.51,.29,0,.52-.04,.68-.13,.16-.09,.24-.21,.24-.36s-.1-.28-.3-.38c-.2-.1-.46-.15-.79-.15Zm.16-2.91c-.18,0-.33,.06-.46,.18s-.19,.27-.19,.43,.06,.31,.18,.43c.12,.11,.28,.17,.47,.17s.34-.06,.47-.17,.19-.26,.19-.43-.06-.32-.19-.43-.28-.17-.47-.17Z"/><path class="d" d="M63,27.5v2.42h-.66v-1.85c0-.37-.05-.63-.15-.77s-.27-.22-.52-.22c-.14,0-.26,.03-.38,.09s-.25,.17-.39,.33v2.42h-.66v-3.33h.66v.44c.34-.34,.66-.5,.98-.5,.42,0,.75,.2,.98,.6,.35-.41,.72-.61,1.1-.61,.32,0,.59,.12,.8,.35s.31,.6,.31,1.08v1.97h-.66v-1.97c0-.28-.06-.49-.17-.64-.11-.15-.28-.22-.49-.22-.27,0-.53,.14-.76,.41Z"/><path class="d" d="M68.2,29.91v-.43c-.14,.15-.3,.27-.48,.36s-.36,.13-.54,.13c-.21,0-.4-.05-.58-.16-.18-.11-.31-.25-.4-.43-.09-.18-.14-.48-.14-.9v-1.91h.66v1.9c0,.35,.05,.59,.15,.73,.1,.14,.28,.21,.53,.21,.31,0,.58-.15,.8-.46v-2.38h.66v3.33h-.66Z"/><path class="d" d="M69.72,29.68v-.71c.19,.13,.38,.24,.57,.32,.19,.08,.36,.12,.49,.12s.26-.03,.35-.1c.1-.07,.15-.15,.15-.24s-.03-.18-.1-.24-.2-.16-.41-.28c-.42-.24-.7-.44-.83-.61-.13-.17-.2-.35-.2-.55,0-.26,.1-.46,.3-.63,.2-.16,.46-.24,.77-.24s.66,.09,1,.28v.65c-.39-.24-.71-.35-.96-.35-.13,0-.23,.03-.31,.08-.08,.05-.12,.13-.12,.22,0,.08,.04,.15,.11,.22,.07,.07,.2,.15,.37,.25l.24,.13c.56,.31,.83,.66,.83,1.04,0,.27-.11,.5-.32,.67-.21,.17-.49,.26-.82,.26-.2,0-.37-.02-.53-.06-.15-.04-.35-.12-.58-.23Z"/><path class="d" d="M73.17,25.18c.11,0,.2,.04,.28,.11,.08,.07,.12,.17,.12,.28s-.04,.2-.12,.28c-.08,.08-.17,.12-.28,.12-.1,0-.19-.04-.27-.12-.08-.08-.12-.17-.12-.27s.04-.19,.12-.27c.08-.08,.17-.12,.27-.12Zm-.33,1.4h.66v3.33h-.66v-3.33Z"/><path class="d" d="M77.05,29.14v.65c-.33,.12-.65,.18-.97,.18-.52,0-.94-.15-1.25-.46-.31-.31-.47-.72-.47-1.24s.15-.95,.45-1.27c.3-.32,.7-.48,1.19-.48,.17,0,.33,.02,.46,.05,.14,.03,.3,.09,.51,.18v.7c-.33-.21-.64-.32-.93-.32s-.54,.1-.73,.31c-.19,.21-.29,.47-.29,.8,0,.34,.1,.61,.31,.81,.21,.2,.48,.3,.83,.3,.25,0,.54-.07,.87-.22Z"/></g><path class="d" d="M85.15,.57V36.93H.57V.57H85.15m.57-.57H0V37.5H85.71V0h0Z"/></g></g></g></svg>