<?xml version="1.0" encoding="UTF-8"?><svg id="Calque_2" xmlns="http://www.w3.org/2000/svg" viewBox="0 0 277.48 215.74"><defs><style>.cls-1{fill:#fff9ea;}.cls-2{stroke:#ece5a9;}.cls-2,.cls-3,.cls-4,.cls-5,.cls-6{fill:none;stroke-miterlimit:10;stroke-width:4px;}.cls-3{stroke:#1d1d1b;}.cls-4{stroke:#c92c2f;}.cls-5{stroke:#a6cd91;}.cls-6{stroke:#a6c5dc;}.cls-7{fill:#1d1d1b;font-family:RocketScript, 'Rocket Script';font-size:32.26px;}</style></defs><g id="main"><g><g id="_Groupe__2"><path class="cls-1" d="M.19,137c-6.11,51.95,138.53,90.65,175.2,75.38C212.06,197.09,317.99,8.65,260.95,.5,203.91-7.65,6.3,85.05,.19,137Z"/><g><ellipse class="cls-6" cx="94.77" cy="160.18" rx="27.17" ry="26.01" transform="translate(-67.39 68.84) rotate(-30)"/><ellipse class="cls-3" cx="149.46" cy="128.27" rx="27.17" ry="26.01" transform="translate(-44.11 91.91) rotate(-30)"/><ellipse class="cls-4" cx="204.29" cy="96.61" rx="27.17" ry="26.01" transform="translate(-20.93 115.09) rotate(-30)"/><ellipse class="cls-2" cx="134.7" cy="166.93" rx="27.17" ry="26.01" transform="translate(-65.42 89.72) rotate(-30)"/><ellipse class="cls-5" cx="189.27" cy="135.43" rx="27.17" ry="26.01" transform="translate(-42.36 112.78) rotate(-30)"/></g></g><text class="cls-7" transform="translate(49.15 136.86) rotate(-30.06) skewX(-.12)"><tspan x="0" y="0">Helsinki</tspan></text></g></g></svg>