<?xml version="1.0" encoding="UTF-8"?><svg xmlns="http://www.w3.org/2000/svg" viewBox="0 0 131.9 128.82"><defs><style>.d{fill:#ede6aa;}.e{fill:#a7c6dd;}.f{fill:#ca2c2f;}.g{fill:#a7ce92;}.h{fill:#1d1d1b;}</style></defs><g id="a"/><g id="b"><g id="c"><g><path class="e" d="M59.92,0c-.76,5.46-3.1,10.48-6.79,14.54-.29,.32-.59,.64-.9,.95-.5,.5-1.02,.98-1.55,1.44-5.1,4.37-11.62,6.67-18.56,6.52-5.58-.12-10.95-1.81-15.6-4.85-.95-.62-1.87-1.3-2.75-2.02-.76-.63-1.5-1.3-2.21-2.01C7.46,10.46,4.67,5.43,3.42,0H0C1.3,6.33,4.47,12.19,9.19,16.92c.71,.71,1.45,1.39,2.22,2.03,.86,.73,1.75,1.4,2.66,2.03,5.31,3.64,11.52,5.67,17.98,5.81,.24,0,.48,0,.72,0,7.78,0,15.04-2.76,20.67-7.85,.39-.35,.78-.72,1.15-1.09,.42-.42,.82-.85,1.21-1.28,4.14-4.64,6.72-10.37,7.49-16.57h-3.37Z"/><path class="h" d="M115,46.31c-.19-8.56-3.69-16.68-9.87-22.86-6.18-6.18-14.3-9.68-22.86-9.87-8.14-.18-15.75,2.66-21.58,8.02-.33,.3-.65,.61-.96,.92-.48,.48-.95,.98-1.39,1.49-5.05,5.76-7.72,13.16-7.54,21.05,.13,6.11,1.96,12,5.24,17.11,.6,.94,1.25,1.86,1.95,2.74,.83,1.04,1.72,2.05,2.68,3.01,.63,.63,1.27,1.23,1.94,1.79,.86,.73,1.74,1.42,2.65,2.05,5.73,4.01,12.39,6.02,18.98,6.02,7.39,0,14.69-2.53,20.46-7.64,.47-.41,.93-.84,1.38-1.29,.34-.34,.68-.7,1.01-1.06,5.29-5.82,8.1-13.4,7.92-21.49Zm-10.57,19.43c-.23,.26-.48,.51-.72,.75-.56,.56-1.15,1.1-1.75,1.6-9.58,8.04-23.59,8.42-34.24,1.32-.94-.63-1.85-1.31-2.73-2.05-.67-.56-1.33-1.17-1.96-1.8-.97-.97-1.86-1.99-2.68-3.06-.71-.92-1.36-1.87-1.95-2.86-2.67-4.43-4.15-9.45-4.26-14.66-.15-6.75,2.02-13.09,6.16-18.12,.56-.69,1.17-1.35,1.8-1.99,.18-.18,.37-.36,.56-.54,5.09-4.81,11.75-7.43,18.91-7.43,.21,0,.43,0,.64,0,7.7,.17,15,3.32,20.57,8.89,5.57,5.57,8.73,12.87,8.89,20.57,.16,7.31-2.4,14.14-7.23,19.36Z"/><path class="f" d="M113.34,76.12c.16-.16,.33-.33,.5-.49,4.88-4.64,11.22-7.25,18.07-7.46v-3.34c-7.53,.21-14.54,3.02-20,8.04-.31,.29-.63,.59-.93,.89-.5,.5-.97,1-1.42,1.53-5.03,5.76-7.68,13.14-7.51,21.02,.13,5.99,1.89,11.77,5.05,16.81,.59,.95,1.24,1.87,1.93,2.76,.88,1.14,1.85,2.24,2.89,3.28,5.64,5.64,12.75,8.86,19.99,9.66v-3.35c-6.39-.79-12.65-3.68-17.63-8.67-1.05-1.05-2.02-2.17-2.9-3.34-.7-.93-1.34-1.9-1.92-2.89-2.55-4.35-3.96-9.26-4.07-14.34-.15-6.71,2.01-13.03,6.1-18.05,.58-.71,1.2-1.4,1.86-2.06Z"/><path class="d" d="M67.89,41.45c-.13-6.11-1.96-12-5.24-17.11-.6-.94-1.25-1.86-1.95-2.74-.83-1.04-1.72-2.05-2.68-3.01-.71-.71-1.45-1.39-2.22-2.02-.86-.73-1.76-1.4-2.67-2.02-12.21-8.34-28.54-7.73-39.37,2.02-.39,.35-.77,.71-1.15,1.09-.42,.42-.82,.85-1.21,1.28-5.17,5.79-7.9,13.27-7.73,21.26,.19,8.56,3.69,16.68,9.87,22.86,6.18,6.18,14.3,9.68,22.86,9.87,.24,0,.48,0,.71,0,7.87,0,15.2-2.83,20.86-8.02,.33-.29,.65-.6,.97-.92,.48-.48,.95-.98,1.39-1.49,5.05-5.76,7.72-13.16,7.54-21.05Zm-9.49,18.2c-.56,.69-1.17,1.35-1.8,1.99-.18,.18-.37,.36-.56,.54-5.24,4.95-12.15,7.58-19.55,7.42-7.7-.17-15-3.33-20.57-8.89-5.57-5.57-8.73-12.87-8.89-20.57-.16-7.22,2.34-13.97,7.05-19.16,.29-.32,.6-.64,.91-.95,.5-.5,1.02-.98,1.54-1.43,5.1-4.36,11.47-6.53,17.94-6.53,5.6,0,11.27,1.62,16.23,4.86,.95,.61,1.87,1.28,2.76,2.02,.76,.63,1.5,1.3,2.22,2.01,.97,.97,1.86,1.99,2.68,3.06,.71,.92,1.36,1.87,1.95,2.86,2.67,4.43,4.15,9.45,4.26,14.66,0,.21,0,.43,0,.64,0,6.51-2.16,12.61-6.16,17.48Z"/><path class="g" d="M118.88,92.45c-.13-5.99-1.89-11.77-5.05-16.81-.6-.95-1.24-1.87-1.93-2.76-.88-1.14-1.85-2.24-2.89-3.28-.63-.63-1.27-1.22-1.94-1.79-.85-.74-1.74-1.42-2.65-2.06-5.38-3.77-11.7-5.88-18.28-6.02-7.94-.17-15.38,2.53-21.16,7.64-.47,.41-.93,.85-1.38,1.3-.34,.34-.68,.7-1.01,1.06-5.3,5.82-8.1,13.4-7.92,21.48,.19,8.56,3.69,16.68,9.87,22.86,6.56,6.56,15.12,9.86,23.56,9.86,7.58,0,15.07-2.67,20.91-8.04,.32-.29,.63-.58,.93-.89,.5-.5,.97-1,1.42-1.53,5.03-5.76,7.68-13.14,7.51-21.02Zm-9.43,18.12c-.58,.71-1.2,1.4-1.86,2.06-.16,.16-.33,.33-.5,.49-11.01,10.46-28.88,9.88-40.18-1.42-5.57-5.57-8.73-12.87-8.89-20.57-.16-7.31,2.4-14.15,7.23-19.36,.23-.26,.48-.51,.72-.75,.56-.56,1.15-1.1,1.75-1.6,4.91-4.13,11.11-6.36,17.72-6.36,.21,0,.43,0,.64,0,5.69,.12,11.16,1.88,15.88,5.04,.94,.63,1.85,1.31,2.73,2.05,.68,.57,1.33,1.17,1.96,1.8,1.05,1.05,2.02,2.17,2.9,3.34,.7,.93,1.34,1.9,1.92,2.89,2.55,4.35,3.96,9.26,4.07,14.34,.15,6.71-2,13.03-6.1,18.05Z"/></g></g></g></svg>