<?xml version="1.0" encoding="UTF-8"?><svg id="Calque_2" xmlns="http://www.w3.org/2000/svg" viewBox="0 0 333.43 203.26"><defs><style>.cls-1{fill:#1d1d1b;font-family:WickedSeventies, WickedSeventies;font-size:69.21px;}.cls-2{fill:#fff;stroke-width:.25px;}.cls-2,.cls-3,.cls-4,.cls-5,.cls-6,.cls-7{stroke-miterlimit:10;}.cls-2,.cls-5{stroke:#1d1d1b;}.cls-3{stroke:#ede6aa;}.cls-3,.cls-4,.cls-5,.cls-6,.cls-7{fill:none;stroke-width:4px;}.cls-4{stroke:#a7ce92;}.cls-6{stroke:#ca2c2f;}.cls-7{stroke:#a7c6dd;}</style></defs><g id="main"><g id="anneaux..."><path id="dessous_annneaux" class="cls-2" d="M333.27,8.91c-34.04,24.17-57.92,53.23-67.44,89.19-18.39,87.53-71.3,108.87-146.75,87.02-42.88-7.08-81.29-.84-112.68,17.97L.17,191.57c31.93-17.22,56.1-46.72,70.55-88C87.74,26.89,131.85-9.3,217.47,16.55c36.12,8.9,73.08,1.88,110.61-16.39l5.19,8.75Z"/><g><ellipse class="cls-7" cx="134.42" cy="146.23" rx="21.56" ry="20.64" transform="translate(-55.02 86.55) rotate(-29.92)"/><ellipse class="cls-5" cx="177.85" cy="120.96" rx="21.56" ry="20.64" transform="translate(-36.63 104.84) rotate(-29.92)"/><ellipse class="cls-6" cx="221.39" cy="95.9" rx="21.56" ry="20.64" transform="translate(-18.33 123.22) rotate(-29.92)"/><ellipse class="cls-3" cx="166.1" cy="151.63" rx="21.56" ry="20.64" transform="translate(-53.5 103.07) rotate(-29.92)"/><ellipse class="cls-4" cx="209.43" cy="126.69" rx="21.56" ry="20.64" transform="translate(-35.28 121.36) rotate(-29.92)"/></g><text class="cls-1" transform="translate(93.79 126.4) rotate(-29.92)"><tspan x="0" y="0">Munich</tspan></text></g></g></svg>