<?xml version="1.0" encoding="UTF-8"?><svg xmlns="http://www.w3.org/2000/svg" viewBox="0 0 347.54 162.66"><defs><style>.f{fill:#eee7ab;}.g{fill:#a8cf93;}.h{fill:#a8c7de;}.i{fill:#bbdbc0;}.j{fill:#cb2c2f;}.k{fill:#1d1d1b;}.l{fill:#aecb99;stroke:#000;stroke-miterlimit:10;stroke-width:2px;}</style></defs><g id="a"/><g id="b"><g id="c"><g><rect class="l" x="1" y="1" width="345.54" height="160.66"/><g><g id="d"><path class="i" d="M313.24,54.69c-32.49,59.88-22.63,74.5-42.99,105.8-.03,.04-.05,.08-.08,.12H55.09c-2.52-48.29-47.06-33.27-35.27-70.74,7.33-23.28,22.92-32.7,61.23-60.14,10.26-11.2,19.04-20.28,27.09-27.68H254.3c.03,.27,.07,.54,.11,.82,3.21,22.51,84.56,4.4,58.83,51.82Z"/></g><g><g id="e"><g><path class="h" d="M152.01,145.42c-.15-.29-.31-.58-.47-.86-.17-.3-.35-.59-.54-.88-3.9-6.25-10.03-10.66-17.38-12.47-7.67-1.89-15.74-.72-22.73,3.31-9.82,5.65-15.41,15.81-15.46,26.09h2c.05-9.59,5.28-19.07,14.46-24.36,4.5-2.59,9.48-3.92,14.49-3.92,2.26,0,4.53,.27,6.76,.82,6.91,1.7,12.66,5.87,16.27,11.77,.14,.21,.26,.42,.39,.64,.22,.37,.42,.75,.61,1.13,2.26,4.41,3.13,9.21,2.77,13.92h2c.38-5.15-.63-10.4-3.17-15.19Z"/><path class="k" d="M210.99,111.41c-.18-.37-.38-.74-.59-1.1-.13-.22-.26-.44-.39-.65-3.89-6.38-10.08-10.87-17.52-12.71-7.67-1.89-15.75-.71-22.74,3.31-14.26,8.21-19.57,25.9-12.02,39.68,.09,.18,.19,.35,.29,.53,.24,.41,.48,.82,.73,1.22,3.92,6.07,9.96,10.36,17.18,12.14,2.39,.58,4.82,.88,7.25,.88,3.27,0,6.54-.54,9.69-1.59,.64-.21,1.27-.45,1.9-.71,1.33-.54,2.63-1.17,3.9-1.9,.89-.51,1.74-1.06,2.55-1.63,.55-.4,1.08-.8,1.6-1.22,7.27-5.9,11.3-14.6,11.3-23.38,0-4.38-1.01-8.79-3.13-12.87Zm-9.15,34.47c-.52,.43-1.05,.85-1.61,1.25-.81,.59-1.67,1.14-2.56,1.65-1.27,.73-2.59,1.37-3.93,1.9-.65,.25-1.3,.48-1.96,.69-4.98,1.58-10.27,1.77-15.37,.51-6.55-1.61-12.07-5.45-15.71-10.89-.34-.49-.65-1-.95-1.52-.04-.08-.09-.15-.13-.23-7.23-12.87-2.28-29.53,11.13-37.25,4.51-2.59,9.49-3.92,14.5-3.92,2.26,0,4.53,.27,6.76,.82,3.57,.88,6.84,2.42,9.67,4.52,2.69,2.01,4.98,4.52,6.73,7.46,.09,.14,.18,.28,.26,.43,.26,.45,.5,.9,.72,1.36,5.62,11.24,2.31,25.01-7.55,33.22Z"/><path class="j" d="M269.43,76.32c-3.87-6.72-10.23-11.46-17.92-13.35-7.67-1.89-15.75-.72-22.73,3.31-14.28,8.21-19.59,25.93-12.01,39.72,.09,.17,.18,.33,.27,.49,.24,.42,.5,.84,.75,1.25,3.92,6.05,9.96,10.33,17.16,12.1,2.39,.59,4.82,.88,7.25,.88,3.17,0,6.33-.5,9.38-1.49,.64-.2,1.27-.43,1.9-.68,1.44-.56,2.84-1.24,4.21-2.02,14.44-8.31,19.71-26.35,11.74-40.21Zm-12.74,38.48c-1.37,.79-2.79,1.46-4.24,2.02-.65,.24-1.3,.47-1.96,.67-4.89,1.48-10.07,1.64-15.06,.41-6.53-1.61-12.03-5.43-15.67-10.83-.35-.51-.68-1.04-.99-1.58-.03-.06-.06-.11-.1-.17-7.28-12.88-2.32-29.57,11.1-37.31,4.51-2.59,9.49-3.92,14.5-3.92,2.26,0,4.53,.27,6.76,.82,7.15,1.76,13.07,6.17,16.66,12.41,7.42,12.9,2.49,29.71-11,37.48Z"/><path class="f" d="M194.77,152.41c-.09-.18-.19-.35-.29-.52-.24-.41-.48-.81-.74-1.21-3.91-6.08-9.96-10.37-17.18-12.15-5.62-1.39-11.47-1.12-16.94,.71-.64,.21-1.27,.44-1.89,.7-1.33,.53-2.63,1.17-3.9,1.9-.99,.57-1.93,1.18-2.83,1.84-.55,.39-1.08,.81-1.59,1.24-5.05,4.18-8.49,9.73-10.06,15.69h2.07c1.5-5.27,4.57-10.16,8.99-13.92,.51-.44,1.05-.87,1.6-1.27,.89-.66,1.83-1.27,2.81-1.84,1.28-.73,2.59-1.37,3.93-1.89,.64-.26,1.29-.49,1.95-.7,2.81-.89,5.71-1.34,8.62-1.34,2.26,0,4.53,.28,6.76,.83,3.58,.88,6.84,2.42,9.66,4.52,2.36,1.75,4.4,3.9,6.04,6.37,.34,.49,.66,1,.96,1.52,.04,.08,.09,.15,.13,.23,1.34,2.39,2.27,4.91,2.79,7.49h2.05c-.53-2.82-1.5-5.58-2.94-8.2Z"/><path class="g" d="M253.48,118.55c-.09-.16-.18-.32-.27-.48-.24-.42-.5-.84-.76-1.25-3.91-6.06-9.94-10.33-17.15-12.11-5.52-1.36-11.24-1.13-16.63,.61-.64,.2-1.27,.42-1.9,.68-1.44,.56-2.85,1.23-4.21,2.02-.89,.51-1.74,1.06-2.55,1.64-.55,.39-1.08,.79-1.6,1.21-10.9,8.86-14.52,24-8.18,36.26,.19,.37,.39,.74,.6,1.1,.13,.22,.26,.44,.39,.65,3.32,5.44,8.32,9.52,14.34,11.73h20.91c1.72-.62,3.39-1.4,5.01-2.34,14.27-8.21,19.59-25.94,12-39.72Zm-13,37.99c-6.54,3.77-14.09,4.87-21.26,3.1-6.98-1.72-12.79-5.97-16.4-11.98-.09-.14-.18-.28-.26-.43-.26-.45-.5-.9-.72-1.35-5.62-11.24-2.31-25.01,7.55-33.22,.51-.43,1.05-.85,1.6-1.25,.82-.59,1.68-1.14,2.57-1.66,1.37-.79,2.79-1.46,4.23-2.01,.65-.25,1.31-.48,1.97-.67,2.71-.82,5.5-1.24,8.3-1.24,2.26,0,4.53,.27,6.76,.82,6.53,1.62,12.04,5.43,15.67,10.84,.35,.51,.68,1.03,.99,1.57,.03,.06,.06,.11,.1,.17,7.28,12.88,2.33,29.58-11.1,37.31Z"/></g></g><g><path class="k" d="M79.65,75.82c2.93-1.68,6.11-1.24,8.14,2.3l21.48,37.33,1.34-.77-21.47-37.33c-2.36-4.09-6.42-5.08-10.26-2.87-3.84,2.21-5.15,6.3-2.8,10.38l21.48,37.34,1.34-.78-21.47-37.33c-2.04-3.54-.77-6.54,2.22-8.27Zm-17.2,9.91c2.93-1.69,6.17-1.28,8.21,2.26l21.47,37.33,1.34-.77-21.47-37.33c-2.35-4.09-6.48-5.05-10.32-2.84-3.84,2.22-5.08,6.26-2.73,10.35l21.47,37.33,1.34-.77-21.47-37.33c-2.04-3.54-.82-6.51,2.16-8.23Zm15.62-12.65c5.01-2.88,9.66-1.42,12.47,3.46l21.47,37.33,1.41-.8-21.48-37.34c-3.16-5.49-8.64-7.53-14.67-4.05-4.58,2.63-6.44,6.3-5.19,11.02-2.75-3.37-7.68-3.61-12.01-1.12-6.04,3.48-7.09,9.27-3.93,14.77l21.48,37.33,1.46-.85-21.47-37.33c-2.81-4.88-1.8-9.6,3.27-12.52,5-2.88,9.71-1.45,12.52,3.43l21.48,37.33,1.34-.77-21.48-37.33c-2.8-4.88-1.73-9.65,3.33-12.56Zm16.62,1.07c-4.07-7.07-10.83-9.92-19-5.22-3.78,2.18-6.1,5.22-6.8,8.22-3.08-.83-6.62-.49-10.4,1.68-8.23,4.74-9.16,12.02-5.09,19.1l21.47,37.33,1.34-.78-21.47-37.33c-3.55-6.16-2.64-12.77,4.56-16.91,3.66-2.11,7.04-2.43,10.84-1.05,.71-3.98,2.76-6.78,6.35-8.85,7.14-4.11,13.31-1.57,16.85,4.59l21.48,37.33,1.34-.77-21.47-37.34Z"/><path class="k" d="M135.41,83.43l-.7-1.22-1.34,.77,.7,1.22c2.42,4.21,1.18,8.26-3.03,10.68-4.27,2.46-8.39,1.5-10.81-2.71l-4.6-7.99,11.77-6.77-.81-1.41-13.11,7.55,5.41,9.4c2.87,5,8.53,5.8,12.92,3.27,4.33-2.49,6.48-7.79,3.6-12.79Zm-12.01-12.98l-11.77,6.78-4.67-8.11c-2.45-4.27-1.21-8.32,3.06-10.78,4.21-2.42,8.33-1.46,10.79,2.81l.8,1.4,1.35-.77-.81-1.41c-2.91-5.06-8.57-5.86-12.9-3.37-4.39,2.53-6.54,7.82-3.63,12.89l5.51,9.58,13.11-7.55-.84-1.47Zm14.82,11.37l-.7-1.22-1.4,.8,.7,1.22c3.19,5.55,1.45,11.84-4.17,15.07-5.61,3.23-11.91,1.58-15.11-3.97l-6.21-10.8,14.46-8.32-.77-1.34-14.46,8.32-6.28-10.92c-3.23-5.61-1.45-11.83,4.16-15.06,5.61-3.23,11.88-1.65,15.11,3.96l.81,1.41,1.4-.81-.81-1.4c-3.75-6.53-11.64-7.83-17.32-4.57-5.67,3.27-8.57,10.79-4.81,17.31l13.26,23.06c3.72,6.47,11.67,7.73,17.35,4.47,5.67-3.27,8.51-10.75,4.79-17.21Zm2.74-1.58l-.7-1.22-1.34,.77,.7,1.22c4.25,7.38,.86,15.74-5.42,19.36-6.34,3.65-15.28,2.38-19.52-5l-13.27-23.06c-4.28-7.44-.89-15.81,5.45-19.46,6.28-3.61,15.22-2.34,19.5,5.1l.8,1.4,1.35-.77-.81-1.4c-4.63-8.05-13.96-10.16-21.64-5.73-7.69,4.42-10.62,13.58-5.99,21.63l13.27,23.06c4.59,7.99,14.02,10.12,21.7,5.7,7.69-4.43,10.52-13.61,5.92-21.6Z"/><path class="k" d="M168.18,81.54l-17.25-14.6,3.89,22.29,1.34-.77-3.22-17.88,13.96,11.7,1.28-.74Zm-17.26-22.38l-5.28-29.36-1.34,.77,5.34,29.33,22.62,19.29,1.35-.78-22.69-19.25Zm-10.71-26.24l-1.28,.74,3.13,18.01-13.86-11.83-1.35,.77,17.32,14.72-3.96-22.41Zm30.77,47l-22.81-19.18-5.15-29.43-1.47,.84,4.6,26.91-20.64-17.68-1.4,.81,22.52,19.11,5.45,29.51,1.4-.81-4.89-26.99,20.93,17.76,1.46-.85Zm-25.49-17.64l-22.72-19.32-1.41,.81,22.73,19.32,5.3,29.26,1.35-.77-5.25-29.3Z"/><path class="k" d="M155.39,24.18l-1.34,.77,27.97,48.62,1.34-.77-27.97-48.62Zm-2.68,1.55l-1.46,.84,27.96,48.62,1.47-.85-27.97-48.61Zm-2.81,1.61l-1.4,.81,27.97,48.62,1.4-.81-27.97-48.62Z"/><path class="k" d="M202.43,44.85l-.7-1.22-1.4,.81,.7,1.21c2.42,4.21,1.24,8.22-3.03,10.68-4.27,2.46-8.39,1.5-10.81-2.7l-13.27-23.06c-2.45-4.27-1.21-8.32,3.06-10.78,4.27-2.46,8.33-1.46,10.79,2.81l.8,1.4,1.41-.81-.81-1.4c-2.91-5.06-8.57-5.87-12.96-3.34-4.39,2.53-6.54,7.83-3.63,12.89l13.26,23.06c2.88,5,8.54,5.8,12.93,3.27,4.39-2.52,6.54-7.82,3.66-12.82Zm2.75-1.58l-.7-1.22-1.41,.8,.7,1.22c3.2,5.56,1.45,11.84-4.16,15.07-5.61,3.23-11.91,1.58-15.11-3.97l-13.26-23.06c-3.23-5.61-1.45-11.83,4.16-15.06,5.61-3.23,11.88-1.65,15.11,3.97l.81,1.4,1.4-.81-.81-1.4c-3.75-6.53-11.65-7.83-17.32-4.56-5.67,3.26-8.51,10.74-4.75,17.27l13.26,23.06c3.72,6.46,11.61,7.77,17.28,4.5,5.68-3.27,8.52-10.75,4.8-17.21Zm2.8-1.62l-.7-1.22-1.4,.81,.7,1.22c4.25,7.38,.92,15.71-5.42,19.36-6.35,3.65-15.28,2.38-19.52-5l-13.27-23.06c-4.28-7.44-.89-15.81,5.45-19.46,6.34-3.65,15.21-2.34,19.5,5.1l.8,1.4,1.41-.8-.81-1.41c-4.63-8.05-14.02-10.11-21.71-5.69-7.68,4.42-10.61,13.58-5.98,21.63l13.26,23.06c4.6,7.99,14.02,10.12,21.71,5.7,7.68-4.43,10.58-13.65,5.98-21.64Z"/><path class="k" d="M233.78,26.8l-13.27-23.06c-.36-.63-.77-1.19-1.21-1.69h-2.22c.75,.64,1.44,1.48,2.03,2.5l13.27,23.06c2.42,4.21,1.23,8.22-3.04,10.68-4.27,2.45-8.39,1.5-10.81-2.71l-13.26-23.06c-2.36-4.1-1.31-8,2.56-10.47h-2.44c-2.85,2.8-3.85,7.1-1.47,11.24l13.27,23.06c2.88,5,8.53,5.81,12.93,3.28,4.39-2.53,6.54-7.83,3.66-12.83Zm0,0l-13.27-23.06c-.36-.63-.77-1.19-1.21-1.69h-2.22c.75,.64,1.44,1.48,2.03,2.5l13.27,23.06c2.42,4.21,1.23,8.22-3.04,10.68-4.27,2.45-8.39,1.5-10.81-2.71l-13.26-23.06c-2.36-4.1-1.31-8,2.56-10.47h-2.44c-2.85,2.8-3.85,7.1-1.47,11.24l13.27,23.06c2.88,5,8.53,5.81,12.93,3.28,4.39-2.53,6.54-7.83,3.66-12.83Zm2.74-1.58l-13.26-23.06s-.04-.08-.07-.11h-1.92c.2,.29,.4,.6,.58,.92l13.27,23.06c3.19,5.55,1.45,11.83-4.16,15.06s-11.92,1.59-15.11-3.97l-13.27-23.05c-2.39-4.16-2.04-8.66,.6-12.02h-1.8c-2.27,3.67-2.71,8.46-.2,12.82l13.26,23.06c3.72,6.47,11.62,7.77,17.29,4.5,5.67-3.26,8.51-10.74,4.79-17.21Zm-2.74,1.58l-13.27-23.06c-.36-.63-.77-1.19-1.21-1.69h-2.22c.75,.64,1.44,1.48,2.03,2.5l13.27,23.06c2.42,4.21,1.23,8.22-3.04,10.68-4.27,2.45-8.39,1.5-10.81-2.71l-13.26-23.06c-2.36-4.1-1.31-8,2.56-10.47h-2.44c-2.85,2.8-3.85,7.1-1.47,11.24l13.27,23.06c2.88,5,8.53,5.81,12.93,3.28,4.39-2.53,6.54-7.83,3.66-12.83Zm2.74-1.58l-13.26-23.06s-.04-.08-.07-.11h-1.92c.2,.29,.4,.6,.58,.92l13.27,23.06c3.19,5.55,1.45,11.83-4.16,15.06s-11.92,1.59-15.11-3.97l-13.27-23.05c-2.39-4.16-2.04-8.66,.6-12.02h-1.8c-2.27,3.67-2.71,8.46-.2,12.82l13.26,23.06c3.72,6.47,11.62,7.77,17.29,4.5,5.67-3.26,8.51-10.74,4.79-17.21Zm-2.74,1.58l-13.27-23.06c-.36-.63-.77-1.19-1.21-1.69h-2.22c.75,.64,1.44,1.48,2.03,2.5l13.27,23.06c2.42,4.21,1.23,8.22-3.04,10.68-4.27,2.45-8.39,1.5-10.81-2.71l-13.26-23.06c-2.36-4.1-1.31-8,2.56-10.47h-2.44c-2.85,2.8-3.85,7.1-1.47,11.24l13.27,23.06c2.88,5,8.53,5.81,12.93,3.28,4.39-2.53,6.54-7.83,3.66-12.83Zm5.55-3.19l-12.41-21.56h-1.86l12.87,22.36c4.24,7.38,.91,15.71-5.43,19.37-6.34,3.65-15.27,2.38-19.52-5.01l-13.26-23.05c-2.68-4.66-2.36-9.67-.18-13.67h-1.93c-2.07,4.37-2.02,9.6,.76,14.44l13.27,23.06c4.6,7.99,14.02,10.11,21.7,5.69,7.69-4.42,10.58-13.64,5.99-21.63Zm-2.81,1.61l-13.26-23.06s-.04-.08-.07-.11h-1.92c.2,.29,.4,.6,.58,.92l13.27,23.06c3.19,5.55,1.45,11.83-4.16,15.06s-11.92,1.59-15.11-3.97l-13.27-23.05c-2.39-4.16-2.04-8.66,.6-12.02h-1.8c-2.27,3.67-2.71,8.46-.2,12.82l13.26,23.06c3.72,6.47,11.62,7.77,17.29,4.5,5.67-3.26,8.51-10.74,4.79-17.21Zm-2.74,1.58l-13.27-23.06c-.36-.63-.77-1.19-1.21-1.69h-2.22c.75,.64,1.44,1.48,2.03,2.5l13.27,23.06c2.42,4.21,1.23,8.22-3.04,10.68-4.27,2.45-8.39,1.5-10.81-2.71l-13.26-23.06c-2.36-4.1-1.31-8,2.56-10.47h-2.44c-2.85,2.8-3.85,7.1-1.47,11.24l13.27,23.06c2.88,5,8.53,5.81,12.93,3.28,4.39-2.53,6.54-7.83,3.66-12.83Z"/></g></g></g></g></g></g></svg>