<?xml version="1.0" encoding="UTF-8"?><svg id="Calque_2" xmlns="http://www.w3.org/2000/svg" viewBox="0 0 373.73 173.76"><defs><style>.cls-1{fill:#e9e2a6;}.cls-2{fill:#b6d6bb;}.cls-3{fill:#a3ca8e;}.cls-4{fill:#a3c2d9;}.cls-5{fill:#a9c694;}.cls-6{fill:#c62c2f;}.cls-7{fill:#1d1d1b;}</style></defs><g id="main"><g><rect class="cls-5" width="373.73" height="173.76"/><g><g id="petit_logo_avant"><path class="cls-2" d="M339.79,57.69c-35.61,65.62-24.8,81.64-47.11,115.94-.03,.04-.05,.09-.09,.13H56.89c-2.76-52.92-51.57-36.46-38.65-77.52,8.03-25.51,25.12-35.84,67.1-65.91,11.24-12.27,20.87-22.22,29.69-30.33h160.17c.03,.3,.08,.59,.12,.9,3.52,24.67,92.67,4.82,64.47,56.79Z"/></g><g><g id="anneaux..."><g><path class="cls-4" d="M163.1,157.12c-.16-.32-.34-.64-.52-.94-.19-.33-.38-.65-.59-.96-4.27-6.85-10.99-11.68-19.05-13.67-8.41-2.07-17.25-.79-24.91,3.63-10.76,6.19-16.89,17.33-16.94,28.59h2.19c.05-10.51,5.79-20.9,15.85-26.7,4.93-2.84,10.39-4.3,15.88-4.3,2.48,0,4.96,.3,7.41,.9,7.57,1.86,13.87,6.43,17.83,12.9,.15,.23,.28,.46,.43,.7,.24,.41,.46,.82,.67,1.24,2.48,4.83,3.43,10.09,3.04,15.25h2.19c.42-5.64-.69-11.4-3.47-16.65Z"/><path class="cls-7" d="M227.73,119.85c-.2-.41-.42-.81-.65-1.21-.14-.24-.28-.48-.43-.71-4.26-6.99-11.05-11.91-19.2-13.93-8.41-2.07-17.26-.78-24.92,3.63-15.63,9-21.45,28.38-13.17,43.48,.1,.2,.21,.38,.32,.58,.26,.45,.53,.9,.8,1.34,4.3,6.65,10.91,11.35,18.83,13.3,2.62,.64,5.28,.96,7.95,.96,3.58,0,7.17-.59,10.62-1.74,.7-.23,1.39-.49,2.08-.78,1.46-.59,2.88-1.28,4.27-2.08,.98-.56,1.91-1.16,2.79-1.79,.6-.44,1.18-.88,1.75-1.34,7.97-6.47,12.38-16,12.38-25.62,0-4.8-1.11-9.63-3.43-14.1Zm-10.03,37.77c-.57,.47-1.15,.93-1.76,1.37-.89,.65-1.83,1.25-2.81,1.81-1.39,.8-2.84,1.5-4.31,2.08-.71,.27-1.42,.53-2.15,.76-5.46,1.73-11.25,1.94-16.84,.56-7.18-1.76-13.23-5.97-17.22-11.93-.37-.54-.71-1.1-1.04-1.67-.04-.09-.1-.16-.14-.25-7.92-14.1-2.5-32.36,12.2-40.82,4.94-2.84,10.4-4.3,15.89-4.3,2.48,0,4.96,.3,7.41,.9,3.91,.96,7.5,2.65,10.6,4.95,2.95,2.2,5.46,4.95,7.38,8.18,.1,.15,.2,.31,.28,.47,.28,.49,.55,.99,.79,1.49,6.16,12.32,2.53,27.41-8.27,36.41Z"/><path class="cls-6" d="M291.78,81.39c-4.24-7.36-11.21-12.56-19.64-14.63-8.41-2.07-17.26-.79-24.91,3.63-15.65,9-21.47,28.42-13.16,43.53,.1,.19,.2,.36,.3,.54,.26,.46,.55,.92,.82,1.37,4.3,6.63,10.91,11.32,18.81,13.26,2.62,.65,5.28,.96,7.95,.96,3.47,0,6.94-.55,10.28-1.63,.7-.22,1.39-.47,2.08-.75,1.58-.61,3.11-1.36,4.61-2.21,15.82-9.11,21.6-28.88,12.87-44.07Zm-13.96,42.17c-1.5,.87-3.06,1.6-4.65,2.21-.71,.26-1.42,.52-2.15,.73-5.36,1.62-11.04,1.8-16.5,.45-7.16-1.76-13.18-5.95-17.17-11.87-.38-.56-.75-1.14-1.08-1.73-.03-.07-.07-.12-.11-.19-7.98-14.11-2.54-32.41,12.16-40.89,4.94-2.84,10.4-4.3,15.89-4.3,2.48,0,4.96,.3,7.41,.9,7.84,1.93,14.32,6.76,18.26,13.6,8.13,14.14,2.73,32.56-12.05,41.07Z"/><path class="cls-1" d="M209.96,164.78c-.1-.2-.21-.38-.32-.57-.26-.45-.53-.89-.81-1.33-4.28-6.66-10.91-11.36-18.83-13.31-6.16-1.52-12.57-1.23-18.56,.78-.7,.23-1.39,.48-2.07,.77-1.46,.58-2.88,1.28-4.27,2.08-1.08,.62-2.12,1.29-3.1,2.02-.6,.43-1.18,.89-1.74,1.36-5.53,4.58-9.3,10.66-11.02,17.19h2.27c1.64-5.78,5.01-11.13,9.85-15.25,.56-.48,1.15-.95,1.75-1.39,.98-.72,2.01-1.39,3.08-2.02,1.4-.8,2.84-1.5,4.31-2.07,.7-.28,1.41-.54,2.14-.77,3.08-.98,6.26-1.47,9.45-1.47,2.48,0,4.96,.31,7.41,.91,3.92,.96,7.5,2.65,10.59,4.95,2.59,1.92,4.82,4.27,6.62,6.98,.37,.54,.72,1.1,1.05,1.67,.04,.09,.1,.16,.14,.25,1.47,2.62,2.49,5.38,3.06,8.21h2.25c-.58-3.09-1.64-6.11-3.22-8.99Z"/><path class="cls-3" d="M274.3,127.67c-.1-.18-.2-.35-.3-.53-.26-.46-.55-.92-.83-1.37-4.28-6.64-10.89-11.32-18.79-13.27-6.05-1.49-12.32-1.24-18.22,.67-.7,.22-1.39,.46-2.08,.75-1.58,.61-3.12,1.35-4.61,2.21-.98,.56-1.91,1.16-2.79,1.8-.6,.43-1.18,.87-1.75,1.33-11.94,9.71-15.91,26.3-8.96,39.74,.21,.41,.43,.81,.66,1.21,.14,.24,.28,.48,.43,.71,3.64,5.96,9.12,10.43,15.71,12.85h22.91c1.88-.68,3.72-1.53,5.49-2.56,15.64-9,21.47-28.43,13.15-43.53Zm-14.25,41.63c-7.17,4.13-15.44,5.34-23.3,3.4-7.65-1.88-14.02-6.54-17.97-13.13-.1-.15-.2-.31-.28-.47-.28-.49-.55-.99-.79-1.48-6.16-12.32-2.53-27.41,8.27-36.41,.56-.47,1.15-.93,1.75-1.37,.9-.65,1.84-1.25,2.82-1.82,1.5-.87,3.06-1.6,4.64-2.2,.71-.27,1.44-.53,2.16-.73,2.97-.9,6.03-1.36,9.1-1.36,2.48,0,4.96,.3,7.41,.9,7.16,1.78,13.19,5.95,17.17,11.88,.38,.56,.75,1.13,1.08,1.72,.03,.07,.07,.12,.11,.19,7.98,14.11,2.55,32.42-12.16,40.89Z"/></g></g><g><path class="cls-7" d="M83.8,80.84c3.21-1.84,6.7-1.36,8.92,2.52l23.54,40.91,1.47-.84-23.53-40.91c-2.59-4.48-7.04-5.57-11.24-3.15-4.21,2.42-5.64,6.9-3.07,11.38l23.54,40.92,1.47-.85-23.53-40.91c-2.24-3.88-.84-7.17,2.43-9.06Zm-18.85,10.86c3.21-1.85,6.76-1.4,9,2.48l23.53,40.91,1.47-.84-23.53-40.91c-2.58-4.48-7.1-5.53-11.31-3.11-4.21,2.43-5.57,6.86-2.99,11.34l23.53,40.91,1.47-.84-23.53-40.91c-2.24-3.88-.9-7.13,2.37-9.02Zm17.12-13.86c5.49-3.16,10.59-1.56,13.67,3.79l23.53,40.91,1.55-.88-23.54-40.92c-3.46-6.02-9.47-8.25-16.08-4.44-5.02,2.88-7.06,6.9-5.69,12.08-3.01-3.69-8.42-3.96-13.16-1.23-6.62,3.81-7.77,10.16-4.31,16.19l23.54,40.91,1.6-.93-23.53-40.91c-3.08-5.35-1.97-10.52,3.58-13.72,5.48-3.16,10.64-1.59,13.72,3.76l23.54,40.91,1.47-.84-23.54-40.91c-3.07-5.35-1.9-10.58,3.65-13.76Zm18.21,1.17c-4.46-7.75-11.87-10.87-20.82-5.72-4.14,2.39-6.68,5.72-7.45,9.01-3.38-.91-7.25-.54-11.4,1.84-9.02,5.19-10.04,13.17-5.58,20.93l23.53,40.91,1.47-.85-23.53-40.91c-3.89-6.75-2.89-13.99,5-18.53,4.01-2.31,7.71-2.66,11.88-1.15,.78-4.36,3.02-7.43,6.96-9.7,7.82-4.5,14.59-1.72,18.47,5.03l23.54,40.91,1.47-.84-23.53-40.92Z"/><path class="cls-7" d="M144.91,89.18l-.77-1.34-1.47,.84,.77,1.34c2.65,4.61,1.29,9.05-3.32,11.7-4.68,2.7-9.19,1.64-11.85-2.97l-5.04-8.76,12.9-7.42-.89-1.55-14.37,8.27,5.93,10.3c3.15,5.48,9.35,6.36,14.16,3.58,4.75-2.73,7.1-8.54,3.95-14.02Zm-13.16-14.22l-12.9,7.43-5.12-8.89c-2.68-4.68-1.33-9.12,3.35-11.81,4.61-2.65,9.13-1.6,11.82,3.08l.88,1.53,1.48-.84-.89-1.55c-3.19-5.55-9.39-6.42-14.14-3.69-4.81,2.77-7.17,8.57-3.98,14.13l6.04,10.5,14.37-8.27-.92-1.61Zm16.24,12.46l-.77-1.34-1.53,.88,.77,1.34c3.5,6.08,1.59,12.98-4.57,16.51-6.15,3.54-13.05,1.73-16.56-4.35l-6.81-11.84,15.85-9.12-.84-1.47-15.85,9.12-6.88-11.97c-3.54-6.15-1.59-12.96,4.56-16.5,6.15-3.54,13.02-1.81,16.56,4.34l.89,1.55,1.53-.89-.89-1.53c-4.11-7.16-12.76-8.58-18.98-5.01-6.21,3.58-9.39,11.82-5.27,18.97l14.53,25.27c4.08,7.09,12.79,8.47,19.01,4.9,6.21-3.58,9.33-11.78,5.25-18.86Zm3-1.73l-.77-1.34-1.47,.84,.77,1.34c4.66,8.09,.94,17.25-5.94,21.22-6.95,4-16.75,2.61-21.39-5.48l-14.54-25.27c-4.69-8.15-.98-17.33,5.97-21.33,6.88-3.96,16.68-2.56,21.37,5.59l.88,1.53,1.48-.84-.89-1.53c-5.07-8.82-15.3-11.13-23.71-6.28-8.43,4.84-11.64,14.88-6.56,23.7l14.54,25.27c5.03,8.76,15.36,11.09,23.78,6.25,8.43-4.85,11.53-14.91,6.49-23.67Z"/><path class="cls-7" d="M180.82,87.11l-18.9-16,4.26,24.43,1.47-.84-3.53-19.59,15.3,12.82,1.4-.81Zm-18.91-24.53l-5.79-32.17-1.47,.84,5.85,32.14,24.79,21.14,1.48-.85-24.87-21.1Zm-11.74-28.76l-1.4,.81,3.43,19.74-15.19-12.96-1.48,.84,18.98,16.13-4.34-24.56Zm33.72,51.51l-25-21.02-5.64-32.25-1.61,.92,5.04,29.49-22.62-19.38-1.53,.89,24.68,20.94,5.97,32.34,1.53-.89-5.36-29.58,22.94,19.46,1.6-.93Zm-27.93-19.33l-24.9-21.17-1.55,.89,24.91,21.17,5.81,32.07,1.48-.84-5.75-32.11Z"/><path class="cls-7" d="M166.8,24.25l-1.47,.84,30.65,53.28,1.47-.84-30.65-53.28Zm-2.94,1.7l-1.6,.92,30.64,53.28,1.61-.93-30.65-53.27Zm-3.08,1.76l-1.53,.89,30.65,53.28,1.53-.89-30.65-53.28Z"/><path class="cls-7" d="M218.35,46.9l-.77-1.34-1.53,.89,.77,1.33c2.65,4.61,1.36,9.01-3.32,11.7-4.68,2.7-9.19,1.64-11.85-2.96l-14.54-25.27c-2.68-4.68-1.33-9.12,3.35-11.81,4.68-2.7,9.13-1.6,11.82,3.08l.88,1.53,1.55-.89-.89-1.53c-3.19-5.55-9.39-6.43-14.2-3.66-4.81,2.77-7.17,8.58-3.98,14.13l14.53,25.27c3.16,5.48,9.36,6.36,14.17,3.58,4.81-2.76,7.17-8.57,4.01-14.05Zm3.01-1.73l-.77-1.34-1.55,.88,.77,1.34c3.51,6.09,1.59,12.98-4.56,16.51-6.15,3.54-13.05,1.73-16.56-4.35l-14.53-25.27c-3.54-6.15-1.59-12.96,4.56-16.5,6.15-3.54,13.02-1.81,16.56,4.35l.89,1.53,1.53-.89-.89-1.53c-4.11-7.16-12.77-8.58-18.98-5-6.21,3.57-9.33,11.77-5.21,18.93l14.53,25.27c4.08,7.08,12.72,8.51,18.94,4.93,6.22-3.58,9.34-11.78,5.26-18.86Zm3.07-1.78l-.77-1.34-1.53,.89,.77,1.34c4.66,8.09,1.01,17.22-5.94,21.22-6.96,4-16.75,2.61-21.39-5.48l-14.54-25.27c-4.69-8.15-.98-17.33,5.97-21.33,6.95-4,16.67-2.56,21.37,5.59l.88,1.53,1.55-.88-.89-1.55c-5.07-8.82-15.36-11.08-23.79-6.24-8.42,4.84-11.63,14.88-6.55,23.7l14.53,25.27c5.04,8.76,15.36,11.09,23.79,6.25,8.42-4.85,11.59-14.96,6.55-23.71Z"/><path class="cls-7" d="M252.71,27.12L238.17,1.85c-.39-.69-.84-1.3-1.33-1.85h-2.43c.82,.7,1.58,1.62,2.22,2.74l14.54,25.27c2.65,4.61,1.35,9.01-3.33,11.7-4.68,2.68-9.19,1.64-11.85-2.97l-14.53-25.27c-2.59-4.49-1.44-8.77,2.81-11.47h-2.67c-3.12,3.07-4.22,7.78-1.61,12.32l14.54,25.27c3.16,5.48,9.35,6.37,14.17,3.59,4.81-2.77,7.17-8.58,4.01-14.06Zm0,0L238.17,1.85c-.39-.69-.84-1.3-1.33-1.85h-2.43c.82,.7,1.58,1.62,2.22,2.74l14.54,25.27c2.65,4.61,1.35,9.01-3.33,11.7-4.68,2.68-9.19,1.64-11.85-2.97l-14.53-25.27c-2.59-4.49-1.44-8.77,2.81-11.47h-2.67c-3.12,3.07-4.22,7.78-1.61,12.32l14.54,25.27c3.16,5.48,9.35,6.37,14.17,3.59,4.81-2.77,7.17-8.58,4.01-14.06Zm3-1.73L241.18,.12s-.04-.09-.08-.12h-2.1c.22,.32,.44,.66,.64,1.01l14.54,25.27c3.5,6.08,1.59,12.96-4.56,16.5s-13.06,1.74-16.56-4.35l-14.54-25.26c-2.62-4.56-2.24-9.49,.66-13.17h-1.97c-2.49,4.02-2.97,9.27-.22,14.05l14.53,25.27c4.08,7.09,12.73,8.51,18.95,4.93,6.21-3.57,9.33-11.77,5.25-18.86Zm-3,1.73L238.17,1.85c-.39-.69-.84-1.3-1.33-1.85h-2.43c.82,.7,1.58,1.62,2.22,2.74l14.54,25.27c2.65,4.61,1.35,9.01-3.33,11.7-4.68,2.68-9.19,1.64-11.85-2.97l-14.53-25.27c-2.59-4.49-1.44-8.77,2.81-11.47h-2.67c-3.12,3.07-4.22,7.78-1.61,12.32l14.54,25.27c3.16,5.48,9.35,6.37,14.17,3.59,4.81-2.77,7.17-8.58,4.01-14.06Zm3-1.73L241.18,.12s-.04-.09-.08-.12h-2.1c.22,.32,.44,.66,.64,1.01l14.54,25.27c3.5,6.08,1.59,12.96-4.56,16.5s-13.06,1.74-16.56-4.35l-14.54-25.26c-2.62-4.56-2.24-9.49,.66-13.17h-1.97c-2.49,4.02-2.97,9.27-.22,14.05l14.53,25.27c4.08,7.09,12.73,8.51,18.95,4.93,6.21-3.57,9.33-11.77,5.25-18.86Zm-3,1.73L238.17,1.85c-.39-.69-.84-1.3-1.33-1.85h-2.43c.82,.7,1.58,1.62,2.22,2.74l14.54,25.27c2.65,4.61,1.35,9.01-3.33,11.7-4.68,2.68-9.19,1.64-11.85-2.97l-14.53-25.27c-2.59-4.49-1.44-8.77,2.81-11.47h-2.67c-3.12,3.07-4.22,7.78-1.61,12.32l14.54,25.27c3.16,5.48,9.35,6.37,14.17,3.59,4.81-2.77,7.17-8.58,4.01-14.06Zm6.08-3.5L245.19,0h-2.04l14.1,24.5c4.65,8.09,1,17.22-5.95,21.23-6.95,4-16.73,2.61-21.39-5.49l-14.53-25.26c-2.94-5.11-2.59-10.6-.2-14.98h-2.12c-2.27,4.79-2.21,10.52,.83,15.82l14.54,25.27c5.04,8.76,15.36,11.08,23.78,6.24,8.43-4.84,11.59-14.95,6.56-23.7Zm-3.08,1.76L241.18,.12s-.04-.09-.08-.12h-2.1c.22,.32,.44,.66,.64,1.01l14.54,25.27c3.5,6.08,1.59,12.96-4.56,16.5s-13.06,1.74-16.56-4.35l-14.54-25.26c-2.62-4.56-2.24-9.49,.66-13.17h-1.97c-2.49,4.02-2.97,9.27-.22,14.05l14.53,25.27c4.08,7.09,12.73,8.51,18.95,4.93,6.21-3.57,9.33-11.77,5.25-18.86Zm-3,1.73L238.17,1.85c-.39-.69-.84-1.3-1.33-1.85h-2.43c.82,.7,1.58,1.62,2.22,2.74l14.54,25.27c2.65,4.61,1.35,9.01-3.33,11.7-4.68,2.68-9.19,1.64-11.85-2.97l-14.53-25.27c-2.59-4.49-1.44-8.77,2.81-11.47h-2.67c-3.12,3.07-4.22,7.78-1.61,12.32l14.54,25.27c3.16,5.48,9.35,6.37,14.17,3.59,4.81-2.77,7.17-8.58,4.01-14.06Z"/></g></g></g></g></g></svg>