<?xml version="1.0" encoding="UTF-8"?><svg id="Calque_2" xmlns="http://www.w3.org/2000/svg" viewBox="0 0 373.28 174.01"><defs><style>.cls-1{fill:#e9e2a6;}.cls-2{fill:#a3ca8e;}.cls-3{fill:#a3c2d9;}.cls-4{fill:#c62c2f;}.cls-5{fill:#e15a0c;}.cls-6{fill:#1d1d1b;}.cls-7{fill:#fff;stroke:#1d1d1b;stroke-miterlimit:10;stroke-width:.25px;}</style></defs><g id="main"><g><rect class="cls-5" y=".12" width="373.15" height="173.76"/><path class="cls-7" d="M91.44,.12c-26.85,25.17-44.93,63.35-55.83,112.16-8.06,22.9-18.11,43.45-29.95,61.61H314.49c1.69-3.22,3.31-6.54,4.88-9.99,4.26-9.34,8.09-19.5,11.47-30.51,2.85-9.24,5.4-19.08,7.6-29.54,6.92-25.94,18.7-49.53,34.72-71.13V.12H91.44Z"/><g><path class="cls-3" d="M168.64,163.91c-.29-.67-.62-1.34-.97-2-.18-.33-.36-.64-.54-.97-.19-.34-.39-.66-.61-.99-4.38-7.03-11.27-11.99-19.54-14.04-5.37-1.32-10.9-1.3-16.21-.01-3.23,.78-6.39,2.02-9.36,3.75-7.87,4.52-13.58,11.71-16.07,20.24-.38,1.3-.69,2.61-.9,3.91h2.28c.2-1.1,.46-2.19,.78-3.28,2.33-7.96,7.67-14.68,15.03-18.92,2.54-1.46,5.22-2.56,7.98-3.31,2.72-.73,5.52-1.1,8.32-1.1,2.55,0,5.11,.3,7.62,.92,7.77,1.91,14.25,6.6,18.3,13.24,.16,.24,.3,.47,.44,.72,.24,.42,.47,.84,.69,1.27,.1,.19,.19,.38,.28,.57,1.53,3.12,2.46,6.47,2.8,9.89h2.25c-.3-3.4-1.16-6.74-2.56-9.89Z"/><path class="cls-6" d="M237.25,133.73c-.48-3.5-1.56-6.88-3.22-10.07-.21-.42-.44-.83-.67-1.24-.13-.25-.28-.48-.44-.72-9.16-15.03-29.29-19.8-45.28-10.58-8.9,5.12-14.7,13.51-16.66,22.61-1.57,7.32-.67,15.11,3.12,22.01,.1,.2,.21,.4,.33,.6,.27,.46,.54,.91,.83,1.36,1.51,2.34,3.28,4.41,5.26,6.21,6.04,5.47,14,8.41,22.2,8.41,3.63,0,7.32-.57,10.91-1.77,.71-.24,1.43-.51,2.14-.79,1.48-.6,2.96-1.32,4.39-2.14,.99-.57,1.95-1.19,2.87-1.84,.62-.44,1.23-.9,1.81-1.38,.2-.16,.39-.33,.58-.49,5.15-4.32,8.9-10.03,10.8-16.52,.9-3.07,1.34-6.18,1.34-9.26,0-1.47-.1-2.95-.31-4.4Zm-3.18,13.03c-1.81,6.16-5.4,11.59-10.34,15.67-.58,.49-1.19,.96-1.81,1.41-.03,.02-.08,.06-.11,.08-.89,.62-1.81,1.21-2.77,1.77-1.45,.83-2.92,1.54-4.43,2.13-.72,.29-1.45,.55-2.19,.78-9.9,3.12-20.51,1.27-28.36-4.67-2.53-1.91-4.78-4.25-6.61-6.99-.37-.55-.72-1.12-1.06-1.71-.04-.09-.1-.17-.15-.26-3.73-6.64-4.59-14.18-2.95-21.23,1.92-8.32,7.3-15.97,15.47-20.66,5.17-2.97,10.8-4.39,16.31-4.39s10.54,1.33,15.11,3.85c4.42,2.44,8.23,5.98,10.96,10.54,.1,.16,.19,.31,.28,.47,.29,.49,.56,1,.82,1.52,1.38,2.76,2.29,5.68,2.74,8.67,.65,4.26,.36,8.68-.91,13.03Z"/><path class="cls-4" d="M299.76,84.2c-4.35-7.56-11.5-12.89-20.15-15.02-8.64-2.11-17.72-.8-25.58,3.72-7.86,4.52-13.57,11.71-16.06,20.25-2.45,8.34-1.54,16.99,2.55,24.42,.09,.18,.2,.37,.3,.55,.28,.48,.56,.94,.87,1.41,5.13,7.93,13.36,12.85,22.37,14.2,1.66,.25,3.35,.37,5.06,.37s3.36-.12,5.05-.37c1.84-.27,3.69-.7,5.51-1.27,.72-.22,1.43-.48,2.14-.76,1.61-.63,3.19-1.38,4.74-2.27,11.1-6.4,17.38-17.9,17.38-29.51,0-5.38-1.35-10.78-4.18-15.71Zm-14.32,43.27c-1.55,.89-3.15,1.64-4.78,2.25-.73,.29-1.46,.54-2.2,.75-12.97,3.9-27.1-.63-34.57-11.7-.39-.57-.76-1.17-1.11-1.78-.03-.07-.07-.12-.1-.19-3.95-6.99-4.86-15.15-2.54-23.03,2.33-7.98,7.67-14.69,15.03-18.93,5.06-2.92,10.66-4.42,16.3-4.42,2.55,0,5.11,.31,7.62,.93,8.05,1.98,14.69,6.94,18.74,13.96,8.35,14.51,2.79,33.41-12.37,42.15Z"/><path class="cls-1" d="M215.78,169.77c-.1-.2-.21-.39-.33-.6-.27-.46-.55-.92-.84-1.37-.9-1.38-1.89-2.69-2.97-3.89-4.24-4.77-9.87-8.16-16.34-9.75-6.32-1.56-12.89-1.26-19.06,.8-.72,.22-1.43,.49-2.14,.79-1.5,.61-2.96,1.32-4.39,2.14-1.1,.64-2.17,1.33-3.18,2.07-.61,.44-1.2,.9-1.78,1.39-.98,.81-1.91,1.66-2.79,2.56-2.8,2.88-5.07,6.21-6.7,9.89h2.49c1.81-3.76,4.34-7.11,7.48-9.89,.21-.19,.43-.38,.65-.57,.58-.51,1.18-.98,1.8-1.43,1-.74,2.06-1.44,3.16-2.07,1.43-.83,2.91-1.54,4.42-2.14,.72-.28,1.45-.54,2.18-.78,3.16-1,6.42-1.51,9.71-1.51,2.54,0,5.11,.3,7.6,.92,4.03,1,7.69,2.73,10.87,5.1,1.02,.76,1.99,1.59,2.9,2.47,1.45,1.41,2.76,2.96,3.89,4.67,.38,.56,.74,1.14,1.08,1.72,.04,.09,.1,.17,.15,.26,.6,1.06,1.12,2.14,1.57,3.24h2.43c-.52-1.37-1.14-2.72-1.87-4.03Z"/><path class="cls-2" d="M282.85,133.73c-.31-.69-.65-1.36-1.02-2.04l-.3-.54c-.28-.48-.57-.96-.87-1.43-4.4-6.81-11.19-11.61-19.29-13.6-6.2-1.53-12.63-1.27-18.7,.69-.72,.22-1.44,.47-2.15,.76-1.62,.63-3.19,1.39-4.72,2.27-1,.57-1.96,1.19-2.88,1.86-.62,.43-1.21,.88-1.79,1.36-3.7,3-6.66,6.66-8.79,10.66-4.92,9.28-5.41,20.48-.43,30.1,.01,.02,.02,.06,.04,.08,.2,.38,.4,.76,.63,1.15,.15,.25,.29,.49,.44,.73,1.88,3.09,4.23,5.78,6.99,8.01h3.82c-3.67-2.4-6.74-5.58-9-9.39-.11-.16-.2-.31-.29-.46-.01-.01-.01-.02-.02-.03-.28-.49-.55-.99-.8-1.48-4.61-9.24-3.87-19.98,1.18-28.7,1.87-3.23,4.33-6.19,7.32-8.67,.57-.48,1.18-.96,1.8-1.39,.91-.66,1.88-1.29,2.88-1.87,1.54-.89,3.15-1.64,4.78-2.26,.73-.28,1.46-.53,2.19-.75,3.05-.92,6.19-1.39,9.34-1.39,2.55,0,5.1,.3,7.6,.92,4.03,.99,7.71,2.72,10.88,5.1,2.63,1.95,4.92,4.33,6.75,7.08,.4,.58,.78,1.18,1.12,1.79,.03,.07,.07,.12,.11,.19,.24,.42,.46,.84,.67,1.27,4.9,9.74,3.81,21.2-2.05,30.18-2.51,3.87-5.92,7.28-10.11,9.89h3.96c3.63-2.78,6.59-6.15,8.81-9.89,3.09-5.21,4.74-11.11,4.74-17.05,0-4.45-.92-8.93-2.86-13.13Z"/></g><g><path class="cls-6" d="M124.45,112.72c-.25-.41-.45-.84-.64-1.3l.09-.58-.39-.26c-.56-2.77-1.04-4.49-1.43-5.18l-.11-.17,.18-.1c-.31-1.09-.55-1.8-.72-2.09,.09-.32,.11-.67,.05-1.04l-.08-.43-.31-1.07c.12-.06,.17-.18,.16-.34-1.06-4.54-2.26-9.26-3.58-14.17,.12-.06,.15-.18,.1-.36v-.23c-.76-5.28,0-10.52,2.23-15.74l-.09-.25-.04-.09c-.19-.32-1.58,.19-4.16,1.56l-3.21,1.85c-1.58,.91-2.89,1.74-3.92,2.49-2.35,2.18-3.77,3.43-4.28,3.72-5,3.03-7.4,5.17-7.2,6.4-.01,.04,0,.1,.03,.15,.16,.27,.85,.65,2.08,1.12l.18,1.15c.06,.59,.08,1.24,.04,1.94-1.05,4.58-1.75,8.22-2.08,10.95l-.62-.12-2.96-5.79c-.34-.52-.64-1-.9-1.45-.58-1.01-.91-1.75-.98-2.23l-.19-1.37,.84-1.02c-.05-.28,.4-1.12,1.35-2.5l-.23-.4c-2.04,.74-3.42,1.03-4.13,.89l-.71,.41-1.06,.84c-.47-.04-.95,.08-1.45,.37l-2.68,1.54-.95,.31c.03,.13,0,.24-.12,.3h-.42l-.29,.41c-.91,.37-2.6,1.18-5.08,2.44-1.37,1.11-3.14,2.28-5.28,3.53l-.18,.1-1.31,.52c.02,.11-.25,.5-.81,1.18,.03,.26,.1,.47,.17,.61,.05,.1,.12,.16,.17,.21l-.12,.61c.17-.11,.3-.1,.37,.02,.03,.05,.05,.13,.06,.21,.8-.47,1.45-.26,1.95,.61,.39,.68,.69,1.75,.91,3.22l-.04,1.27c.09-.04,.16-.03,.21,.06l.05,.09c.01,.15-.02,.41-.1,.77l.38,.02c1.15,7.11,1.82,11.3,2,12.58,.02,.11,.08,.24,.16,.39l.13,.22c-.12,.06-.17,.18-.16,.34l1.44,9.93c.36,2.77,.34,5.35-.05,7.77-.79,5.53-1.16,8.39-1.11,8.61,.02,.1,.06,.22,.13,.34,.08,.12,.18,.25,.35,.39l1.18-1.15,1.44-.82,1.31-.52c-.04-.14,0-.24,.12-.3l.02,.04c.05,.09,.12,.11,.22,.05l.71-.41,.83-.72,.02,.05c.05,.09,.13,.11,.22,.05,.16-.26,.39-.47,.65-.62l.72-.41,.95-.31c-.04-.13,0-.24,.12-.3l.77-.21c.21-.28,.36-.44,.48-.52l-.05-.5c-.77-.51-1.4-1.2-1.89-2.07-.62-1.07-1.05-2.43-1.28-4.08-.1-1.54-.24-3.03-.45-4.5-.03-.13-.12-.32-.26-.56,.17-.1,.24-.96,.17-2.6l-.3-.83-.13-2.18c-.02-.11-.08-.24-.16-.39l-.13-.22-.39-8.22-.23-.4c-.04-.34-.03-.68,.01-1.02-.02-.11-.08-.22-.14-.34l-.13-.23-.12-.94,.17-.1c.05,.37,.28,.91,.69,1.62,.29,.5,.68,1.11,1.18,1.82,.62,.67,1.08,1.28,1.4,1.82,.21,.36,.32,.66,.36,.92,1.76,2.39,3.17,4.48,4.2,6.26,1.15,2,1.82,3.61,2.01,4.85-.02,2.24-.64,5.6-1.85,10.11v.23c.01,.08,.03,.14,.06,.21,.08,.12,.19,.12,.38,.02l1.96-1.14,.35-.43v.23c1.14-.8,1.77-1.32,1.9-1.56,.08,.12,.93-.22,2.57-1.01,.23-.29,.41-.48,.53-.54,1.04-.12,2.34-.45,3.88-1l.15-.56,.38,.03,.53-.31,1.23-.95c-.01,.05-.01,.09,.01,.12,.03,.05,.1,.06,.18,.01l.61-1.12c-.02-.1-.06-.22-.13-.34-.17-.29-.5-.54-.97-.75-.92,.53-1.82,.03-2.69-1.48-.31-.54-.61-1.2-.9-1.98-.01-.15,.04-.27,.16-.34,.23-3.46,.41-5.23,.56-5.32l1.87-12.55c.84-3.3,1.49-6.85,1.97-10.64l.17-.11c.23,.67,.74,2.79,1.52,6.38-.06,.36-.08,.78-.03,1.27l.38,2.52,.23,.4c-.15,1.6-.16,2.93-.02,4l.56,3.66c.54,3.89,.11,8.07-1.3,12.51,.24,.35,.44,.47,.63,.36l.53-.3,.3-.41,.02,.04c.05,.09,.12,.11,.22,.05,.97-.56,1.73-1.07,2.26-1.54l3.64-1.62c-.01-.15,.04-.27,.16-.34l.03,.04c.06,.12,.25,.17,.56,.15l.31-.48c0,.08,.01,.13,.03,.16,.03,.05,.1,.05,.18,.01l.36-.21,.32-.49,.03,.28,1.04-.9c.12-.06,.3-.08,.57-.03,.21-.31,.38-.51,.5-.58,.27-.15,.52-.19,.76-.13,.17-.3,.4-.53,.67-.69l1.78-1.03,.35-.43v.23l1.25-.95,1.96-1.12,.3-.41c.06,.12,.63-.04,1.68-.49-.01-.16,.05-.27,.17-.34-.02,.04-.01,.09,0,.11,.03,.06,.1,.06,.18,.01l.36-.19,.35-.44c-.01,.05-.01,.09,.01,.12,.03,.05,.1,.06,.18,.01l.36-.21c.31-.42,.47-.75,.45-.97-1.08-.77-1.98-1.77-2.69-3.03Zm-21.19-15.22l-.09-.66,.18-.11,.08,.67-.17,.1Z"/><path class="cls-6" d="M173.57,93.24c0-.08-.02-.14-.05-.21-.06-.12-.18-.15-.35-.1l-.36,.21c-1.15,2.01-2.36,3.46-3.62,4.35l-1.61,.93-4.37,.78c-1.1-.58-2.02-1.33-2.76-2.23-.29-.36-.55-.74-.78-1.14-.24-.4-.44-.84-.61-1.32-.12-.31-.23-.65-.31-1.01l.17-.1c-.08-.55-.24-1.21-.49-1.99l-.03-1.7c-.37-1.54-.55-2.42-.56-2.65-.13-.76-.18-2.08-.18-3.94l-.03-.04c-.15-.27-.45-1.48-.91-3.64,0-.15,.02-.42,.08-.81l-.59-1.85c.12-.08,.15-.19,.1-.36-.03-.26-.1-.48-.21-.66l-.08-.13,.08-.58-.21-.36,.09-.58c-.02-.11-.06-.22-.13-.34l-.13-.23c.12-.06,.19-.37,.24-.91l-.02-.04c-.14-.24-.38-1.15-.74-2.73,.05-.39,.08-.66,.06-.82l-.25-.32c.12-.08,.17-.48,.14-1.21-.01-.3-.04-.66-.09-1.08l-.24-.4-.02-2.73c-.05,.03-.4-.11-1.02-.42l-1.24,.72-.36,.14-.91,.35c.01,.15-.05,.26-.17,.34-.22-.04-.45,.02-.72,.17l-.35,.44c.02-.05,.01-.09,0-.12-.03-.06-.1-.06-.18-.01l-.9,.51c-1.19,.69-2.64,1.44-4.35,2.27-.4,.54-.84,.96-1.35,1.25l-1.97,1.12c-1.02,.58-1.69,1.23-2.03,1.95,.15,.47,.29,.82,.43,1.06,.12,.21,.23,.28,.31,.24,.82,.48,1.51,1.19,2.07,2.14,.7,1.22,1.2,2.83,1.48,4.85,.66,7.35,.75,11.96,.24,13.84l.39,2.75c-.79,.62-1.31,1.09-1.56,1.43-1.01,.58-1.86,.28-2.54-.91-.62-1.07-1.1-2.84-1.44-5.3,.11-.22,.01-1.83-.29-4.83l-.27-.37c.06-2.23-.25-6.69-.95-13.43-.65-.1-1.28,.02-1.87,.37l-.53,.3-.3,.41-.05-.19-3.14,2.51v-.23c-.97,.87-1.61,1.4-1.9,1.56-.48,.28-1.57,.83-3.28,1.65-.12,.06-.28,.24-.48,.51l-1.14,.41-1.78,1.03-.91,.29-.24,.91,.08,.67,.65,.4c.45-.26,.89-.02,1.32,.72,.8,1.41,1.57,4.63,2.29,9.68l-.11,.54c.82,3.96,1.54,6.48,2.15,7.56l.08,.13c.26,1.83,.74,3.34,1.43,4.53,.54,.95,1.22,1.69,2.04,2.22l.02,.04c.29,.51,1.19,.9,2.7,1.18,2.75-.59,4.54-1.12,5.38-1.61l.3-.41c.24,.02,.5-.04,.77-.21l.36-.21c.36-.21,.52-.38,.48-.51,1.78-1.31,3.49-3.37,5.11-6.21,.05,.37,.37,1.59,.94,3.68-.13,.08-.17,.19-.14,.38,.11,.34,.22,.59,.31,.77,.09,.15,.16,.21,.23,.17,.41,2.65,1.23,5.05,2.48,7.19l.36,.63c1.64,2.18,4.26,2.94,7.84,2.26l.31-.48c2.2-.75,3.6-1.3,4.23-1.65,1.28-.74,2.64-1.94,4.1-3.61,1.51-2.53,2.36-3.85,2.54-3.96,1.45-2.78,2.76-7.19,3.9-13.25l-.08-.43Z"/><path class="cls-6" d="M206.07,73.77l-.71,.41c-2.16,3.82-4.13,6.36-5.91,7.61-2.46,.9-3.89,1.16-4.32,.76-1.45-1.06-2.55-2.25-3.31-3.57,0,0,0-.01-.01-.01-.58-1.04-.97-2.15-1.16-3.35l.11-.54c-.15-.79-.29-1.5-.43-2.15-.44-2.14-.79-3.49-1.04-4.01l.18-.11c-.35-1.7-.59-2.68-.75-2.95l-.05-.09c.09-.34,.1-.66,.03-.97l-.05-.51c-.19-1.31-.45-2.24-.76-2.77l.08-.58c-.48-1.59-.79-2.9-.94-3.92-.62-1.62-1.24-2.99-1.88-4.09-1.32-2.29-2.67-3.54-4.05-3.73-1.67-1.38-3.98-1.22-6.92,.47-1.7,.98-3.74,3.32-6.12,7.03l-.36,.21c-.37-1.05-.66-1.75-.87-2.11-.12-.22-.21-.3-.27-.27l-.36,.21c.09,.63-2.62,2.52-8.09,5.68-.3,.16-.78,.37-1.45,.58,.01,.15-.04,.27-.16,.34,.01-.04,.01-.09-.01-.12-.03-.05-.09-.05-.18-.01l-.17,.11c-.27,.15-.5,.37-.7,.64-.22-.03-.45,.03-.72,.18l-2.33,1.33c-.08,.04-.14,.14-.21,.3-.09,.22-.15,.53-.21,.95,1.2,.81,2.26,1.74,3.17,2.81,.61,.7,1.14,1.46,1.61,2.28,.75,1.31,1.34,2.76,1.77,4.33l-.18,.11,.61,2.68,.4,2.99c.26,1.75,.37,3.02,.34,3.79,.15,4.78-.06,8.39-.63,10.83-.22,.9-.48,1.64-.78,2.23l.18,1.15,.24,.4c.66-.51,1.23-.94,1.74-1.32,.9-.66,1.56-1.11,1.96-1.34l4.28-2.47,5.13-1.95,.71-.41-.03-1.71-.45-1.51,.05-1.04-.39-1.5,.05-1.05c-.05,.04-.13-.02-.22-.16-.21-.36-.48-1.28-.81-2.75-.32-6.99-.58-11.08-.77-12.29l-.51-3.69c-.19-1.23,.34-2.37,1.6-3.42l1.6-.92,1.25,.52c.82,2.75,1.58,4.8,2.26,6.2l-.15,.56c.93,4.66,1.68,7.97,2.22,9.96l-.17,.1c1.95,8.9,3.22,13.88,3.83,14.93,.1,.17,.18,.25,.24,.22,.23,.87,.53,1.63,.93,2.31,.98,1.73,2.52,2.99,4.61,3.77,2.83,.18,5.98-.71,9.44-2.7,1.48-.85,2.87-2.07,4.14-3.63,3.03-5.34,4.74-11.48,5.12-18.4l-.3-.83Z"/><path class="cls-6" d="M207.15,66.66c-.03-.06-.05-.13-.05-.21-.25,.14-.58-.18-1.03-.95-.57-.98-1.28-2.64-2.14-4.95,.12-.08,.16-.17,.12-.31l-.43-3.02-.21-.36c.15-.09,.21-.62,.16-1.58-.09,.05-.15,.03-.21-.05l-.05-.1,.18-.1c-.71-7.84-1.16-12.39-1.34-13.68-.09,.05-.15,.04-.18-.01-.01-.03-.02-.06,0-.12l.17-.1c-.06-.4-.23-.98-.48-1.75-.04-.29,.01-.81,.16-1.58l-.27-.38c-1.02-.32-1.69-.59-2.01-.8l-.89,.51c-.69,1.07-2.14,2.24-4.35,3.52l-.71,.41-.35,.43v-.23l-1.24,.95-1.8,1.03-.29,.4-.03-.04c-.04-.09-.12-.11-.21-.05l-.18,.11c-2.31,1.33-3.57,1.84-3.76,1.5l-.05-.09c-.67,.75-1,1.27-.94,1.56l.02,.47,2.65,2.22c1.71,2.97,2.73,5.57,3.04,7.77l.17,.91c.23,6.54,.13,11.53-.29,14.95-.12,1.06-.28,1.98-.48,2.74-.28,2.18-.59,3.61-.93,4.28l.09,.66c.23,.39,.42,.53,.61,.43l.17-.11,1.01-1.35,.02,.23c.31-.28,.65-.55,1-.83,1.4-1.12,2.99-2.28,4.8-3.45,1.61-.77,2.99-1.48,4.12-2.13,.27-.16,.5-.37,.7-.65,.22,.03,.45-.02,.72-.17l2.86-1.65,2.16-1c-.01-.15,.04-.27,.16-.34l1.08-.39,.36-.21c.18-.1,.32-.52,.41-1.24-1.14-.34-1.82-.69-2.04-1.08Zm-10.2-42.82c-2.22-1.38-4.06-1.65-5.52-.81-1.67,1.78-2.63,2.76-2.9,2.92-1.86,3.17-2.62,6.02-2.27,8.56,.15,.94,.42,1.76,.81,2.44,.12,.21,.26,.41,.41,.59,.03,.42,.14,.77,.31,1.07,.71,1.25,2.42,1.36,5.12,.32l1.8-1.03c.5-.29,1.25-1.32,2.26-3.09,1-1.64,1.48-3.58,1.46-5.83-.47-2.39-.96-4.11-1.48-5.15Z"/><path class="cls-6" d="M232.19,39.82c-.38-.44-.66-.63-.83-.52-.04,.05-.09,.12-.13,.19-.38,.61-.7,1.67-.96,3.17-2.1,4.22-3.8,6.69-5.1,7.45-.24,.14-1.87,.48-4.88,1.03-1.33-.39-2.54-1.51-3.62-3.39-.48-.84-.93-1.83-1.35-2.97l-.31-2.31c-.25-1.52-.05-3.3,.56-5.31,.8-1.85,2.24-3.52,4.33-4.99,.09-.05,.15-.05,.18,.01,.02,.02,.02,.06,.01,.11-.93,2.6-1.32,4.4-1.17,5.43,.1-.05,.16-.03,.22,.05l.02,.04c-.12,.06-.17,.18-.16,.34l.19,1.37c1.72,2.02,3.35,2.58,4.9,1.7l.36-.21c2.03-1.17,3.35-2.76,3.97-4.78,.81-2.44,1.08-4.53,.81-6.24-.04-.28-.15-.58-.32-.88-.7-1.22-2.3-2.52-4.8-3.89-.89-.64-2.78-.47-5.69,.54l-.35,.43-.37-.02-1.24,.95c-.26,.15-.51,.21-.72,.17-2.52,1.97-4.16,3.59-4.93,4.87-.09,.04-.15,.04-.18-.01-.02-.03-.03-.09-.03-.16-1.59,1.78-2.78,3.89-3.56,6.33-.26,1.14-.49,1.76-.69,1.88-1.47,5.99-1.96,10.7-1.46,14.1l.28,2.03c.17,1.05,.34,1.71,.49,1.98,.06,.12,.13,.16,.19,.13,.12,.76,.37,1.47,.75,2.13,.82,1.43,2.25,2.5,4.29,3.22,.74,.74,1.41,.92,2,.58,.77,1.06,3.53,.56,8.28-1.5,2.16-1.76,3.44-2.75,3.82-2.97,3.95-4.92,5.78-8.47,5.47-10.63,.48-1.08,.85-2.4,1.15-3.97,.3-1.58,.5-3.42,.61-5.49Z"/><path class="cls-6" d="M278.69,31.14c-.06-.12-.21-.14-.4-.08l-.89,.52c-.24,.49-.44,.79-.62,.89-.79,2.43-2.4,4.77-4.83,7.01-.17,.1-.29,.11-.35,.01l-.02-.04c-2.39,1.37-4.38,.66-5.99-2.14l-.18-.31c-.18-.12-.39-.37-.59-.72-.56-.98-1.24-2.89-2.04-5.72,.12-.06,.17-.17,.17-.32l-.91-6.02-.39-1.5c.12-.06,.17-.17,.16-.32-.06-.32-.28-.8-.64-1.42l.18-.11c-.39-1.08-.62-1.78-.68-2.11l-1.02-7.14c-.19-.89-.5-1.68-.91-2.39-.59-1.05-1.43-1.91-2.5-2.61-1.44-.76-4.09-.41-7.95,1.07-1.67,.95-3.93,3.24-6.76,6.86l-.05-.21c-.08-.67-.1-1.33-.08-1.98l-.37-1.28c-.05-.44-.06-1.01-.03-1.7-.15-.27-.49-1.67-.98-4.2,.09-.32,.09-.75,0-1.24-.02-.11-.08-.24-.16-.39l-.13-.22c.09-.32,.11-.66,.08-1l-.21-1.45h-5.13c-.44,.34-.95,.7-1.51,1.1,.01-.04,.01-.08-.01-.11-.03-.06-.1-.06-.18-.01-.12,.06-.29,.25-.52,.54-1.23,.54-2.2,1.02-2.88,1.41l-.53,.31-.89,.75c.01-.05,.01-.09,0-.12-.04-.05-.1-.06-.19-.01l-.34,.43c-.95,.55-2.09,1.12-3.41,1.73l-1.06,.84,.18,1.15c1.11,.78,1.93,1.58,2.4,2.41,.17,.3,.29,.63,.38,.97,.19,.21,.39,.48,.57,.8,.98,1.7,1.81,4.85,2.48,9.45l.02,.47,.28,.38-.18,.1c.03,.26,.1,.49,.21,.66l.08,.13-.09,.58c.15,1.22,.57,3.3,1.27,6.23-.06,.36-.09,.7-.05,1.04l.28,.38c-.12,.06-.17,.18-.16,.34l.12,.94c.19,2.1,.37,4,.5,5.72,.18,2.27,.3,4.21,.36,5.82,.14,3.71-.02,5.7-.48,5.96-1.34,3.31-1.98,5.08-1.93,5.32l.42,.53,2.13-1.46,.9-.52c1.94-1.1,3.72-2.06,5.38-2.84,.85-.65,1.98-1.38,3.37-2.18l.91-.29c0-.16,.82-.81,2.44-1.94,.68-.19,1.18-.38,1.47-.55l.49-.81c-1.22-5.76-1.93-9.26-2.12-10.49l-.25-1.88v-1.24c-.09,.04-.15,.04-.18-.01-.02-.03-.02-.08-.01-.12,.09-.32,.11-.67,.05-1.04l-.05-.21-.21-.36,.17-.11c-.58-4.93-.94-7.9-1.07-8.89-.06-.8,.41-1.49,1.43-2.08,1.12-.65,2.14-.18,3.05,1.4,.21,.36,.41,.78,.61,1.25,1.51,7.73,2.48,12.18,2.87,13.34-.12,.08-.16,.17-.12,.31l.7,5.06-.03,1.27c.05-.03,.12,.01,.18,.13,.4,.68,1.01,3.5,1.84,8.46,.28,.55,.54,1.04,.78,1.45,1.05,1.82,1.81,2.67,2.29,2.55,2.43,2.92,5.64,3.23,9.59,.95l2.68-1.54c2.08-1.2,4.32-4.07,6.69-8.61,.66-1.41,1.5-4.07,2.55-7.96,.1-3.89,.29-6.16,.59-6.81,0-.08-.02-.15-.05-.21Z"/></g></g></g></svg>