<?xml version="1.0" encoding="UTF-8"?><svg xmlns="http://www.w3.org/2000/svg" viewBox="0 0 347.01 162.66"><defs><style>.d{fill:#eee7ab;}.e{fill:#a8cf93;}.f{fill:#a8c7de;}.g{fill:#cb2c2f;}.h{fill:#1d1d1b;}.i{fill:#e65a0c;stroke:#000;stroke-width:2px;}.i,.j{stroke-miterlimit:10;}.j{fill:#fff;stroke:#1d1d1b;stroke-width:.25px;}</style></defs><g id="a"/><g id="b"><g id="c"><g><rect class="i" x="1" y="1" width="345.01" height="160.66"/><path class="j" d="M87.62,1.88c-24.53,23-41.05,57.88-51.01,102.48-7.36,20.92-16.55,39.7-27.37,56.29H291.42c1.54-2.94,3.02-5.98,4.46-9.13,3.89-8.53,7.39-17.82,10.48-27.88,2.6-8.44,4.93-17.43,6.94-26.99,6.32-23.7,17.09-45.26,31.72-64.99V1.88H87.62Z"/><g><path class="f" d="M156.93,151.51c-.27-.62-.57-1.24-.89-1.85-.17-.3-.33-.59-.5-.89-.18-.31-.36-.61-.56-.92-4.05-6.5-10.42-11.09-18.07-12.98-4.96-1.22-10.08-1.21-14.99-.01-2.98,.72-5.91,1.87-8.65,3.46-7.28,4.18-12.55,10.83-14.86,18.71-.35,1.21-.63,2.41-.83,3.62h2.11c.19-1.02,.43-2.03,.72-3.04,2.15-7.36,7.09-13.57,13.89-17.49,2.35-1.35,4.83-2.37,7.37-3.06,2.52-.68,5.11-1.02,7.7-1.02,2.36,0,4.72,.28,7.04,.85,7.19,1.77,13.18,6.1,16.92,12.24,.15,.22,.28,.44,.41,.67,.22,.38,.44,.78,.63,1.18,.09,.18,.18,.35,.26,.53,1.41,2.88,2.28,5.98,2.59,9.14h2.08c-.28-3.14-1.07-6.23-2.37-9.14Z"/><path class="h" d="M220.36,123.6c-.45-3.23-1.45-6.36-2.97-9.31-.2-.38-.41-.77-.62-1.14-.12-.23-.26-.45-.41-.67-8.47-13.89-27.08-18.3-41.86-9.79-8.23,4.73-13.59,12.49-15.4,20.9-1.46,6.77-.62,13.97,2.88,20.35,.09,.19,.2,.37,.3,.55,.25,.43,.5,.84,.77,1.26,1.39,2.16,3.04,4.08,4.87,5.74,5.58,5.05,12.95,7.78,20.53,7.78,3.36,0,6.77-.53,10.09-1.63,.66-.22,1.32-.47,1.98-.73,1.37-.55,2.74-1.22,4.06-1.98,.92-.53,1.8-1.1,2.65-1.71,.57-.41,1.13-.83,1.67-1.28,.19-.15,.36-.3,.54-.46,4.76-3.99,8.23-9.28,9.98-15.28,.83-2.84,1.24-5.71,1.24-8.56,0-1.36-.09-2.72-.29-4.07Zm-2.94,12.04c-1.67,5.7-4.99,10.71-9.56,14.49-.54,.46-1.1,.88-1.67,1.3-.03,.02-.07,.05-.1,.07-.82,.57-1.67,1.12-2.56,1.63-1.34,.77-2.7,1.42-4.1,1.97-.67,.27-1.34,.51-2.03,.72-9.15,2.88-18.96,1.18-26.22-4.32-2.34-1.77-4.42-3.93-6.12-6.46-.34-.51-.67-1.04-.98-1.58-.04-.08-.09-.16-.14-.24-3.45-6.14-4.24-13.11-2.72-19.63,1.78-7.7,6.75-14.77,14.3-19.11,4.78-2.75,9.98-4.06,15.08-4.06s9.75,1.23,13.97,3.56c4.09,2.26,7.61,5.53,10.13,9.75,.09,.15,.18,.29,.26,.44,.27,.46,.52,.93,.76,1.4,1.28,2.55,2.12,5.25,2.54,8.02,.6,3.94,.33,8.03-.84,12.04Z"/><path class="g" d="M278.15,77.81c-4.02-6.99-10.63-11.92-18.63-13.88-7.99-1.96-16.38-.74-23.65,3.44-7.27,4.18-12.54,10.83-14.85,18.72-2.27,7.71-1.42,15.7,2.36,22.58,.08,.17,.19,.34,.28,.51,.26,.45,.52,.87,.8,1.3,4.74,7.33,12.36,11.88,20.69,13.13,1.54,.23,3.1,.34,4.68,.34s3.11-.11,4.67-.34c1.71-.25,3.41-.64,5.1-1.18,.67-.21,1.32-.45,1.98-.71,1.49-.58,2.95-1.28,4.38-2.1,10.27-5.92,16.07-16.55,16.07-27.28,0-4.97-1.25-9.96-3.87-14.53Zm-13.24,40.01c-1.44,.82-2.91,1.52-4.42,2.08-.68,.27-1.35,.5-2.04,.7-11.99,3.61-25.05-.58-31.96-10.82-.36-.53-.71-1.08-1.03-1.64-.03-.06-.06-.11-.09-.18-3.65-6.46-4.49-14.01-2.35-21.29,2.15-7.37,7.09-13.58,13.89-17.5,4.68-2.7,9.86-4.09,15.07-4.09,2.36,0,4.72,.29,7.04,.86,7.45,1.83,13.58,6.42,17.33,12.91,7.72,13.42,2.58,30.89-11.44,38.97Z"/><path class="d" d="M200.5,156.93c-.09-.19-.2-.36-.3-.55-.25-.43-.51-.85-.78-1.27-.83-1.28-1.75-2.49-2.75-3.6-3.92-4.41-9.12-7.54-15.11-9.02-5.84-1.45-11.92-1.16-17.62,.74-.67,.21-1.32,.46-1.98,.73-1.38,.56-2.74,1.22-4.06,1.98-1.02,.59-2.01,1.23-2.94,1.91-.56,.41-1.11,.83-1.64,1.29-.9,.75-1.77,1.54-2.58,2.37-2.59,2.66-4.69,5.74-6.2,9.14h2.3c1.67-3.47,4.01-6.57,6.92-9.14,.2-.18,.4-.35,.6-.53,.54-.47,1.09-.9,1.66-1.32,.93-.69,1.9-1.33,2.92-1.91,1.32-.77,2.69-1.42,4.09-1.98,.67-.26,1.34-.5,2.02-.72,2.92-.93,5.94-1.39,8.98-1.39,2.35,0,4.72,.28,7.03,.85,3.72,.93,7.11,2.53,10.05,4.71,.95,.71,1.84,1.47,2.68,2.29,1.34,1.3,2.55,2.74,3.6,4.32,.35,.52,.69,1.05,1,1.59,.04,.08,.09,.16,.14,.24,.55,.98,1.04,1.98,1.46,3h2.25c-.48-1.27-1.05-2.52-1.73-3.72Z"/><path class="e" d="M262.52,123.6c-.29-.63-.6-1.26-.95-1.88l-.28-.5c-.26-.45-.53-.88-.8-1.32-4.07-6.29-10.35-10.73-17.84-12.57-5.73-1.41-11.68-1.18-17.29,.63-.67,.21-1.33,.44-1.99,.71-1.5,.58-2.95,1.29-4.37,2.1-.93,.53-1.81,1.1-2.66,1.72-.57,.4-1.12,.81-1.65,1.26-3.42,2.78-6.16,6.16-8.12,9.86-4.54,8.58-5,18.94-.4,27.83,.01,.02,.02,.05,.04,.07,.19,.35,.37,.71,.58,1.06,.14,.23,.27,.46,.41,.68,1.74,2.86,3.91,5.35,6.46,7.41h3.54c-3.39-2.22-6.23-5.16-8.32-8.68-.1-.15-.19-.29-.27-.43-.01-.01-.01-.02-.02-.03-.26-.46-.51-.92-.74-1.37-4.26-8.54-3.58-18.47,1.09-26.53,1.73-2.98,4-5.72,6.77-8.02,.53-.45,1.09-.88,1.66-1.29,.84-.61,1.74-1.2,2.66-1.73,1.42-.82,2.91-1.52,4.42-2.09,.68-.26,1.35-.49,2.03-.7,2.82-.85,5.72-1.29,8.63-1.29,2.36,0,4.71,.28,7.03,.85,3.72,.92,7.12,2.52,10.06,4.71,2.43,1.8,4.54,4,6.24,6.54,.37,.54,.72,1.09,1.04,1.65,.03,.06,.06,.11,.1,.18,.22,.38,.43,.78,.62,1.18,4.53,9.01,3.53,19.6-1.89,27.9-2.32,3.58-5.47,6.73-9.35,9.14h3.66c3.36-2.57,6.09-5.69,8.14-9.14,2.86-4.82,4.38-10.28,4.38-15.77,0-4.12-.85-8.26-2.64-12.14Z"/></g><g><path class="h" d="M116.06,105.1c-.23-.38-.42-.78-.59-1.2l.08-.54-.36-.24c-.52-2.56-.96-4.15-1.32-4.79l-.1-.16,.17-.09c-.29-1.01-.51-1.66-.67-1.93,.08-.3,.1-.62,.05-.96l-.07-.4-.29-.99c.11-.06,.16-.17,.15-.31-.98-4.2-2.09-8.56-3.31-13.1,.11-.06,.14-.17,.09-.33v-.21c-.7-4.88,0-9.73,2.06-14.55l-.08-.23-.04-.08c-.18-.3-1.46,.18-3.85,1.44l-2.97,1.71c-1.46,.84-2.67,1.61-3.62,2.3-2.17,2.02-3.49,3.17-3.96,3.44-4.62,2.8-6.84,4.78-6.66,5.92-.01,.04,0,.09,.03,.14,.15,.25,.79,.6,1.92,1.04l.17,1.06c.06,.55,.07,1.15,.04,1.79-.97,4.23-1.62,7.6-1.92,10.12l-.57-.11-2.74-5.35c-.31-.48-.59-.92-.83-1.34-.54-.93-.84-1.62-.91-2.06l-.18-1.27,.78-.94c-.05-.26,.37-1.04,1.25-2.31l-.21-.37c-1.89,.68-3.16,.95-3.82,.82l-.66,.38-.98,.78c-.43-.04-.88,.07-1.34,.34l-2.48,1.42-.88,.29c.03,.12,0,.22-.11,.28h-.39l-.27,.38c-.84,.34-2.4,1.09-4.7,2.26-1.27,1.03-2.9,2.11-4.88,3.26l-.17,.09-1.21,.48c.02,.1-.23,.46-.75,1.09,.03,.24,.09,.43,.16,.56,.05,.09,.11,.15,.16,.19l-.11,.56c.16-.1,.28-.09,.34,.02,.03,.05,.05,.12,.06,.19,.74-.43,1.34-.24,1.8,.56,.36,.63,.64,1.62,.84,2.98l-.04,1.17c.08-.04,.15-.03,.19,.06l.05,.08c.01,.14-.02,.38-.09,.71l.35,.02c1.06,6.57,1.68,10.45,1.85,11.63,.02,.1,.07,.22,.15,.36l.12,.2c-.11,.06-.16,.17-.15,.31l1.33,9.18c.33,2.56,.31,4.95-.05,7.18-.73,5.11-1.07,7.76-1.03,7.96,.02,.09,.06,.2,.12,.31,.07,.11,.17,.23,.32,.36l1.09-1.06,1.33-.76,1.21-.48c-.04-.13,0-.22,.11-.28l.02,.04c.05,.08,.11,.1,.2,.05l.66-.38,.77-.67,.02,.05c.05,.08,.12,.1,.2,.05,.15-.24,.36-.43,.6-.57l.67-.38,.88-.29c-.04-.12,0-.22,.11-.28l.71-.19c.19-.26,.33-.41,.44-.48l-.05-.46c-.71-.47-1.29-1.11-1.75-1.91-.57-.99-.97-2.25-1.18-3.77-.09-1.42-.22-2.8-.42-4.16-.03-.12-.11-.3-.24-.52,.16-.09,.22-.89,.16-2.4l-.28-.77-.12-2.02c-.02-.1-.07-.22-.15-.36l-.12-.2-.36-7.6-.21-.37c-.04-.31-.03-.63,0-.94-.02-.1-.07-.2-.13-.31l-.12-.21-.11-.87,.16-.09c.05,.34,.26,.84,.64,1.5,.27,.46,.63,1.03,1.09,1.68,.57,.62,1,1.18,1.29,1.68,.19,.33,.3,.61,.33,.85,1.63,2.21,2.93,4.14,3.88,5.79,1.06,1.85,1.68,3.34,1.86,4.48-.02,2.07-.59,5.18-1.71,9.35v.21c0,.07,.03,.13,.06,.19,.07,.11,.18,.11,.35,.02l1.81-1.05,.32-.4v.21c1.05-.74,1.64-1.22,1.76-1.44,.07,.11,.86-.2,2.38-.93,.21-.27,.38-.44,.49-.5,.96-.11,2.16-.42,3.59-.92l.14-.52,.35,.03,.49-.29,1.14-.88s0,.08,.01,.11c.03,.05,.09,.06,.17,.01l.56-1.04c-.02-.09-.06-.2-.12-.31-.16-.27-.46-.5-.9-.69-.85,.49-1.68,.03-2.49-1.37-.29-.5-.56-1.11-.83-1.83-.01-.14,.04-.25,.15-.31,.21-3.2,.38-4.84,.52-4.92l1.73-11.6c.78-3.05,1.38-6.33,1.82-9.84l.16-.1c.21,.62,.68,2.58,1.41,5.9-.06,.33-.07,.72-.03,1.17l.35,2.33,.21,.37c-.14,1.48-.15,2.71-.02,3.7l.52,3.38c.5,3.6,.1,7.46-1.2,11.57,.22,.32,.41,.43,.58,.33l.49-.28,.28-.38,.02,.04c.05,.08,.11,.1,.2,.05,.9-.52,1.6-.99,2.09-1.42l3.37-1.5c-.01-.14,.04-.25,.15-.31l.03,.04c.06,.11,.23,.16,.52,.14l.29-.44c0,.07,.01,.12,.03,.15,.03,.05,.09,.05,.17,.01l.33-.19,.3-.45,.03,.26,.96-.83c.11-.06,.28-.07,.53-.03,.19-.29,.35-.47,.46-.54,.25-.14,.48-.18,.7-.12,.16-.28,.37-.49,.62-.64l1.65-.95,.32-.4v.21l1.16-.88,1.81-1.04,.28-.38c.06,.11,.58-.04,1.55-.45,0-.15,.05-.25,.16-.31-.02,.04-.01,.08,0,.1,.03,.06,.09,.06,.17,.01l.33-.18,.32-.41s-.01,.08,.01,.11c.03,.05,.09,.06,.17,.01l.33-.19c.29-.39,.43-.69,.42-.9-1-.71-1.83-1.64-2.49-2.8Zm-19.59-14.07l-.08-.61,.17-.1,.07,.62-.16,.09Z"/><path class="h" d="M161.48,87.09c0-.07-.02-.13-.05-.19-.06-.11-.17-.14-.32-.09l-.33,.19c-1.06,1.86-2.18,3.2-3.35,4.02l-1.49,.86-4.04,.72c-1.02-.54-1.87-1.23-2.55-2.06-.27-.33-.51-.68-.72-1.05-.22-.37-.41-.78-.56-1.22-.11-.29-.21-.6-.29-.93l.16-.09c-.07-.51-.22-1.12-.45-1.84l-.03-1.57c-.34-1.42-.51-2.24-.52-2.45-.12-.7-.17-1.92-.17-3.64l-.03-.04c-.14-.25-.42-1.37-.84-3.37,0-.14,.02-.39,.07-.75l-.55-1.71c.11-.07,.14-.18,.09-.33-.03-.24-.09-.44-.19-.61l-.07-.12,.07-.54-.19-.33,.08-.54c-.02-.1-.06-.2-.12-.31l-.12-.21c.11-.06,.18-.34,.22-.84l-.02-.04c-.13-.22-.35-1.06-.68-2.52,.05-.36,.07-.61,.06-.76l-.23-.3c.11-.07,.16-.44,.13-1.12,0-.28-.04-.61-.08-1l-.22-.37-.02-2.52c-.05,.03-.37-.1-.94-.39l-1.15,.67-.33,.13-.84,.32c.01,.14-.05,.24-.16,.31-.2-.04-.42,.02-.67,.16l-.32,.41s.01-.08,0-.11c-.03-.06-.09-.06-.17-.01l-.83,.47c-1.1,.64-2.44,1.33-4.02,2.1-.37,.5-.78,.89-1.25,1.16l-1.82,1.04c-.94,.54-1.56,1.14-1.88,1.8,.14,.43,.27,.76,.4,.98,.11,.19,.21,.26,.29,.22,.76,.44,1.4,1.1,1.91,1.98,.65,1.13,1.11,2.62,1.37,4.48,.61,6.8,.69,11.06,.22,12.8l.36,2.54c-.73,.57-1.21,1.01-1.44,1.32-.93,.54-1.72,.26-2.35-.84-.57-.99-1.02-2.63-1.33-4.9,.1-.2,.01-1.69-.27-4.47l-.25-.34c.06-2.06-.23-6.19-.88-12.42-.6-.09-1.18,.02-1.73,.34l-.49,.28-.28,.38-.05-.18-2.9,2.32v-.21c-.9,.8-1.49,1.29-1.76,1.44-.44,.26-1.45,.77-3.03,1.53-.11,.06-.26,.22-.44,.47l-1.05,.38-1.65,.95-.84,.27-.22,.84,.07,.62,.6,.37c.42-.24,.82-.02,1.22,.67,.74,1.3,1.45,4.28,2.12,8.95l-.1,.5c.76,3.66,1.42,5.99,1.99,6.99l.07,.12c.24,1.69,.68,3.09,1.32,4.19,.5,.88,1.13,1.56,1.89,2.05l.02,.04c.27,.47,1.1,.83,2.5,1.09,2.54-.55,4.2-1.04,4.97-1.49l.28-.38c.22,.02,.46-.04,.71-.19l.33-.19c.33-.19,.48-.35,.44-.47,1.65-1.21,3.23-3.12,4.72-5.74,.05,.34,.34,1.47,.87,3.4-.12,.07-.16,.18-.13,.35,.1,.31,.2,.55,.29,.71,.08,.14,.15,.19,.21,.16,.38,2.45,1.14,4.67,2.29,6.65l.33,.58c1.52,2.02,3.94,2.72,7.25,2.09l.29-.44c2.03-.69,3.33-1.2,3.91-1.53,1.18-.68,2.44-1.79,3.79-3.34,1.4-2.34,2.18-3.56,2.35-3.66,1.34-2.57,2.55-6.65,3.61-12.25l-.07-.4Z"/><path class="h" d="M191.53,69.09l-.66,.38c-2,3.53-3.82,5.88-5.46,7.04-2.27,.83-3.6,1.07-3.99,.7-1.34-.98-2.36-2.08-3.06-3.3,0,0,0-.01-.01-.01-.54-.96-.9-1.99-1.07-3.1l.1-.5c-.14-.73-.27-1.39-.4-1.99-.41-1.98-.73-3.23-.96-3.71l.17-.1c-.32-1.57-.55-2.48-.69-2.73l-.05-.08c.08-.31,.09-.61,.03-.9l-.05-.47c-.18-1.21-.42-2.07-.7-2.56l.07-.54c-.44-1.47-.73-2.68-.87-3.62-.57-1.5-1.15-2.76-1.74-3.78-1.22-2.12-2.47-3.27-3.74-3.45-1.54-1.28-3.68-1.13-6.4,.43-1.57,.91-3.46,3.07-5.66,6.5l-.33,.19c-.34-.97-.61-1.62-.8-1.95-.11-.2-.19-.28-.25-.25l-.33,.19c.08,.58-2.42,2.33-7.48,5.25-.28,.15-.72,.34-1.34,.54,.01,.14-.04,.25-.15,.31,.01-.04,.01-.08-.01-.11-.03-.05-.08-.05-.17-.01l-.16,.1c-.25,.14-.46,.34-.65,.59-.2-.03-.42,.03-.67,.17l-2.15,1.23c-.07,.04-.13,.13-.19,.28-.08,.2-.14,.49-.19,.88,1.11,.75,2.09,1.61,2.93,2.6,.56,.65,1.05,1.35,1.49,2.11,.69,1.21,1.24,2.55,1.64,4l-.17,.1,.56,2.48,.37,2.76c.24,1.62,.34,2.79,.31,3.5,.14,4.42-.06,7.76-.58,10.01-.2,.83-.44,1.52-.72,2.06l.17,1.06,.22,.37c.61-.47,1.14-.87,1.61-1.22,.83-.61,1.44-1.03,1.81-1.24l3.96-2.28,4.74-1.8,.66-.38-.03-1.58-.42-1.4,.05-.96-.36-1.39,.05-.97c-.05,.04-.12-.02-.2-.15-.19-.33-.44-1.18-.75-2.54-.3-6.46-.54-10.24-.71-11.36l-.47-3.41c-.18-1.14,.31-2.19,1.48-3.16l1.48-.85,1.16,.48c.76,2.54,1.46,4.44,2.09,5.73l-.14,.52c.86,4.31,1.55,7.37,2.05,9.21l-.16,.09c1.8,8.23,2.98,12.83,3.54,13.8,.09,.16,.17,.23,.22,.2,.21,.8,.49,1.51,.86,2.14,.91,1.6,2.33,2.76,4.26,3.49,2.62,.17,5.53-.66,8.73-2.5,1.37-.79,2.65-1.91,3.83-3.36,2.8-4.94,4.38-10.61,4.73-17.01l-.28-.77Z"/><path class="h" d="M192.53,62.52c-.03-.06-.05-.12-.05-.19-.23,.13-.54-.17-.95-.88-.53-.91-1.18-2.44-1.98-4.58,.11-.07,.15-.16,.11-.29l-.4-2.79-.19-.33c.14-.08,.19-.57,.15-1.46-.08,.05-.14,.03-.19-.05l-.05-.09,.17-.09c-.66-7.25-1.07-11.46-1.24-12.65-.08,.05-.14,.04-.17-.01-.01-.03-.02-.06,0-.11l.16-.09c-.06-.37-.21-.91-.44-1.62-.04-.27,.01-.75,.15-1.46l-.25-.35c-.94-.3-1.56-.55-1.86-.74l-.82,.47c-.64,.99-1.98,2.07-4.02,3.25l-.66,.38-.32,.4v-.21l-1.15,.88-1.66,.95-.27,.37-.03-.04c-.04-.08-.11-.1-.19-.05l-.17,.1c-2.14,1.23-3.3,1.7-3.48,1.39l-.05-.08c-.62,.69-.92,1.17-.87,1.44l.02,.43,2.45,2.05c1.58,2.75,2.52,5.15,2.81,7.18l.16,.84c.21,6.05,.12,10.66-.27,13.82-.11,.98-.26,1.83-.44,2.53-.26,2.02-.55,3.34-.86,3.96l.08,.61c.21,.36,.39,.49,.56,.4l.16-.1,.93-1.25,.02,.21c.29-.26,.6-.51,.92-.77,1.29-1.04,2.76-2.11,4.44-3.19,1.49-.71,2.76-1.37,3.81-1.97,.25-.15,.46-.34,.65-.6,.2,.03,.42-.02,.67-.16l2.64-1.53,2-.92c-.01-.14,.04-.25,.15-.31l1-.36,.33-.19c.17-.09,.3-.48,.38-1.15-1.05-.31-1.68-.64-1.89-1Zm-9.43-39.59c-2.05-1.28-3.75-1.53-5.1-.75-1.54,1.65-2.43,2.55-2.68,2.7-1.72,2.93-2.42,5.57-2.1,7.91,.14,.87,.39,1.63,.75,2.26,.11,.19,.24,.38,.38,.55,.03,.39,.13,.71,.29,.99,.66,1.16,2.24,1.26,4.73,.3l1.66-.95c.46-.27,1.16-1.22,2.09-2.86,.92-1.52,1.37-3.31,1.35-5.39-.43-2.21-.89-3.8-1.37-4.76Z"/><path class="h" d="M215.68,37.7c-.35-.41-.61-.58-.77-.48-.04,.05-.08,.11-.12,.18-.35,.56-.65,1.54-.89,2.93-1.94,3.9-3.51,6.19-4.72,6.89-.22,.13-1.73,.44-4.51,.95-1.23-.36-2.35-1.4-3.35-3.13-.44-.78-.86-1.69-1.25-2.75l-.29-2.14c-.23-1.41-.05-3.05,.52-4.91,.74-1.71,2.07-3.25,4-4.61,.08-.05,.14-.05,.17,0,.02,.02,.02,.06,.01,.1-.86,2.4-1.22,4.07-1.08,5.02,.09-.05,.15-.03,.2,.05l.02,.04c-.11,.06-.16,.17-.15,.31l.18,1.27c1.59,1.87,3.1,2.39,4.53,1.57l.33-.19c1.88-1.08,3.1-2.55,3.67-4.42,.75-2.26,1-4.19,.75-5.77-.04-.26-.14-.54-.3-.81-.65-1.13-2.13-2.33-4.44-3.6-.82-.59-2.57-.43-5.26,.5l-.32,.4-.34-.02-1.15,.88c-.24,.14-.47,.19-.67,.16-2.33,1.82-3.85,3.32-4.56,4.5-.08,.04-.14,.04-.17-.01-.02-.03-.03-.08-.03-.15-1.47,1.65-2.57,3.6-3.29,5.85-.24,1.05-.45,1.63-.64,1.74-1.36,5.54-1.81,9.89-1.35,13.04l.26,1.88c.16,.97,.31,1.58,.45,1.83,.06,.11,.12,.15,.18,.12,.11,.7,.34,1.36,.69,1.97,.76,1.32,2.08,2.31,3.97,2.98,.68,.68,1.3,.85,1.85,.54,.71,.98,3.26,.52,7.66-1.39,2-1.63,3.18-2.54,3.53-2.75,3.65-4.55,5.34-7.83,5.06-9.83,.44-1,.79-2.22,1.06-3.67,.28-1.46,.46-3.16,.56-5.08Z"/><path class="h" d="M258.67,29.68c-.06-.11-.19-.13-.37-.07l-.82,.48c-.22,.45-.41,.73-.57,.82-.73,2.25-2.22,4.41-4.47,6.48-.16,.09-.27,.1-.32,.01l-.02-.04c-2.21,1.27-4.05,.61-5.54-1.98l-.17-.29c-.17-.11-.36-.34-.55-.67-.52-.91-1.15-2.67-1.89-5.29,.11-.06,.16-.16,.16-.3l-.84-5.57-.36-1.39c.11-.06,.16-.16,.15-.3-.06-.3-.26-.74-.59-1.31l.17-.1c-.36-1-.57-1.65-.63-1.95l-.94-6.6c-.18-.82-.46-1.55-.84-2.21-.55-.97-1.32-1.77-2.31-2.41-1.33-.7-3.78-.38-7.35,.99-1.54,.88-3.63,3-6.25,6.34l-.05-.19c-.07-.62-.09-1.23-.07-1.83l-.34-1.18c-.05-.41-.06-.93-.03-1.57-.14-.25-.45-1.54-.91-3.88,.08-.3,.08-.69,0-1.15-.02-.1-.07-.22-.15-.36l-.12-.2c.08-.3,.1-.61,.07-.92l-.19-1.34h-4.74c-.41,.31-.88,.65-1.4,1.02,.01-.04,.01-.07,0-.1-.03-.06-.09-.06-.17-.01-.11,.06-.27,.23-.48,.5-1.14,.5-2.03,.94-2.66,1.3l-.49,.29-.82,.69s.01-.08,0-.11c-.04-.05-.09-.06-.18-.01l-.31,.4c-.88,.51-1.93,1.04-3.15,1.6l-.98,.78,.17,1.06c1.03,.72,1.78,1.46,2.22,2.23,.16,.28,.27,.58,.35,.9,.18,.19,.36,.44,.53,.74,.91,1.57,1.67,4.48,2.29,8.74l.02,.43,.26,.35-.17,.09c.03,.24,.09,.45,.19,.61l.07,.12-.08,.54c.14,1.13,.53,3.05,1.17,5.76-.06,.33-.08,.65-.05,.96l.26,.35c-.11,.06-.16,.17-.15,.31l.11,.87c.18,1.94,.34,3.7,.46,5.29,.17,2.1,.28,3.89,.33,5.38,.13,3.43-.02,5.27-.44,5.51-1.24,3.06-1.83,4.7-1.78,4.92l.39,.49,1.97-1.35,.83-.48c1.79-1.02,3.44-1.9,4.97-2.63,.79-.6,1.83-1.28,3.12-2.02l.84-.27c0-.15,.76-.75,2.26-1.79,.63-.18,1.09-.35,1.36-.51l.45-.75c-1.13-5.33-1.78-8.56-1.96-9.7l-.23-1.74v-1.15c-.08,.04-.14,.04-.17-.01-.02-.03-.02-.07-.01-.11,.08-.3,.1-.62,.05-.96l-.05-.19-.19-.33,.16-.1c-.54-4.56-.87-7.3-.99-8.22-.06-.74,.38-1.38,1.32-1.92,1.04-.6,1.98-.17,2.82,1.29,.19,.33,.38,.72,.56,1.16,1.4,7.15,2.29,11.26,2.65,12.33-.11,.07-.15,.16-.11,.29l.65,4.68-.03,1.17s.11,.01,.17,.12c.37,.63,.93,3.24,1.7,7.82,.26,.51,.5,.96,.72,1.34,.97,1.68,1.67,2.47,2.12,2.36,2.25,2.7,5.21,2.99,8.87,.88l2.48-1.42c1.92-1.11,3.99-3.76,6.19-7.96,.61-1.3,1.39-3.76,2.36-7.36,.09-3.6,.27-5.7,.55-6.3,0-.07-.02-.14-.05-.19Z"/></g></g></g></g></svg>