<?xml version="1.0" encoding="UTF-8"?><svg id="Calque_2" xmlns="http://www.w3.org/2000/svg" viewBox="0 0 328.58 76.06"><g id="revendeur"><g><path d="M176.12,17.95c-.02,2.2-1.03,3.85-2.99,4.89-.91,.48-1.89,.75-2.9,.92-.98,.17-1.97,.22-2.97,.22s-1.92,.01-2.88,0c-.86-.02-1.72-.05-2.57-.12-1.06-.09-2.1-.28-3.1-.67-1.06-.42-1.96-1.06-2.55-2.07-.37-.63-.59-1.32-.67-2.04-.06-.61-.09-1.23-.09-1.84-.01-1.16,0-2.32,0-3.48v-.6h.02v-4.88c0-.2,0-.21,.21-.2h3.74c1.47,0,2.93,.02,4.4,.02,.15,0,.19,.04,.19,.19,0,3.1,0,6.21,0,9.31,0,1.28,.98,1.92,1.99,1.86,.96-.06,1.61-.75,1.61-1.73,0-1.9,0-3.79,0-5.69v-3.69q0-.22,.21-.22c2.72,0,5.44,0,8.16,0,.14,0,.2,.03,.2,.19,0,3.22,.02,6.43-.01,9.65Z"/><path d="M143.21,11.77h10.3q.2,0,.2-.2V5.8q0-.23-.23-.23h-19.45c-.15,0-.2,.04-.2,.19,.01,6,.02,12,.02,18q0,.22,.22,.22h8.72q.2,0,.2-.2v-4.44q0-.24,.24-.24h10.26q.22,0,.22-.23v-4.89q0-.24-.24-.24c-3.43,0-6.86,0-10.29,0-.15,0-.2-.04-.19-.2,0-.51,0-1.03,0-1.55q0-.22,.22-.22Zm-4.14-5.56q.35,0,.35,.36t-.36,.37-.36-.36,.37-.37Zm-3.09,6.84c0-.11,.04-.14,.15-.14h1.55c.51,0,1.01,0,1.52,0,.13,0,.19,.03,.18,.17-.01,.14,0,.28,0,.41,0,.11-.04,.15-.15,.15-.31,0-.61,0-.92,0-.71,0-1.42,0-2.13,0-.14,0-.2-.04-.19-.19,0-.14,0-.27,0-.41Zm3.08,1.85c-.4,0-.37,.07-.37-.37s-.04-.38,.37-.38c.41,0,.34-.03,.35,.33v.05c-.01,.4,.07,.37-.35,.36Zm.33-4.17c0,.11-.04,.15-.15,.15h-1.37c-.16,0-.32,.02-.39,.19-.07,.19-.09,.39,.04,.56,.06,.07,.18,.12,.27,.12,.46,.02,.93,.01,1.39,.01,.21,0,.22,0,.22,.22v.35c0,.09-.03,.12-.13,.12h-2.28c-.11,0-.13-.04-.13-.14,0-.12,.01-.25,0-.37-.01-.14,.04-.2,.18-.19,.03,0,.06,0,.12,0-.38-.27-.38-.62-.28-1,.09-.36,.37-.56,.78-.57,.53-.01,1.07,0,1.6,0,.1,0,.14,.04,.14,.14v.41Zm-3.42,4.62c0-.11,.04-.15,.15-.15h3.11c.11,0,.15,.04,.15,.14,0,.14,0,.27,0,.4,0,.11-.04,.15-.15,.15-.51,0-1.03,0-1.53,0s-1.03,0-1.54,0c-.12,0-.18-.04-.17-.16,0-.13,0-.26,0-.38Zm.62,3.93c0,.16,0,.33,0,.49,0,.03-.06,.09-.09,.09-.17,.01-.33,0-.53,0,0-.21,0-.4,0-.59,0-.02,.06-.07,.09-.07,.14,0,.29,0,.43,0,.03,0,.09,.06,.09,.09Zm2.78,3.6c0,.14-.04,.19-.19,.19-.51,0-1.01,0-1.52,0s-1.01,0-1.51,0c-.13,0-.19-.04-.19-.17,.01-.5,.01-1,.02-1.49,0-.31,.15-.55,.37-.75,.3-.27,.66-.41,1.08-.41,.36,0,.71,.03,1.04,.16,.45,.17,.93,.61,.9,1.29-.02,.4,0,.79,0,1.19Zm-2.54-3.01v-.66h2.51c0,.2,0,.4,0,.59,0,.02-.07,.07-.12,.07-.27,0-.53,0-.8,0h-1.59Zm3.56-1.32c0,.09-.02,.13-.12,.12h-3.3c-.09,0-.12-.04-.12-.12,0-.13,0-.26,0-.38,0-.13,.04-.19,.17-.17,.04,0,.09,0,.14,0-.19-.19-.33-.37-.33-.63-.01-.35,.14-.61,.41-.82,.46-.35,1.31-.37,1.81-.07,.57,.34,.59,1.14,.19,1.46-.01,0-.02,.02-.04,.06h.38c.24,0,.47,0,.71,0,.1,0,.14,.04,.13,.14,0,.14,0,.27,0,.41Zm-.07-9.32c-.08,.28-.24,.5-.54,.56-.11,.03-.15,0-.15-.12v-.35c0-.12-.01-.22,.14-.28,.14-.06,.18-.33,.12-.54-.06-.22-.21-.37-.4-.38-.1,0-.19,0-.28,0,.09,.14,.2,.27,.25,.43,.14,.45-.06,.92-.49,1.13-.58,.28-1.16,.25-1.71-.09-.37-.24-.53-.66-.39-1.04,.05-.15,.17-.28,.27-.41q-.27-.02-.27-.32,0-.33,.33-.33h2.18c.52,0,.85,.25,.97,.76,.08,.33,.08,.66-.02,.99Z"/><path d="M195.61,18.64c-.17,1.98-1.23,3.38-2.91,4.34-.92,.52-1.91,.79-2.95,.95-1.03,.15-2.07,.11-3.1,.12-.69,0-1.39,.02-2.08,0-.69-.02-1.39-.05-2.07-.11-.81-.07-1.61-.17-2.42-.28-.75-.11-1.48-.3-2.17-.61-.17-.07-.25-.16-.24-.37,0-1.34,0-2.69,0-4.03v-.2c.35,.1,.68,.19,1.01,.28,1.13,.32,2.27,.58,3.43,.72,.84,.11,1.7,.16,2.54,.19,.76,.03,1.53,.01,2.29,0,.3,0,.58-.07,.83-.24,.3-.2,.3-.46,.02-.67-.27-.2-.6-.31-.93-.33-.85-.05-1.7-.07-2.55-.09-.47-.01-.94,.01-1.42,0-1.37-.06-2.65-.38-3.76-1.24-1.03-.79-1.65-1.85-1.88-3.12-.22-1.23-.07-2.42,.5-3.53,.77-1.49,1.99-2.39,3.64-2.66,.33-.06,.66-.06,.99-.09,.5-.04,1-.09,1.5-.12,.61-.03,1.22-.06,1.83-.07,.71,0,1.4,.01,2.11,.04,.84,.03,1.69,.07,2.53,.12,.74,.04,1.49,.09,2.23,.15,.61,.05,1.23,.12,1.84,.18,.1,0,.14,.05,.14,.15v4.15c0,.11-.04,.14-.14,.13-.37-.02-.74-.05-1.1-.07-.25-.02-.51-.04-.77-.05-.41-.02-.81-.03-1.22-.04-.63,0-1.26-.02-1.89-.02-.88,.01-1.76,.03-2.64,.06-.26,.01-.53,.04-.77,.1-.16,.04-.32,.13-.44,.24-.2,.17-.18,.4,.02,.59,.18,.17,.41,.22,.64,.25,.18,.02,.36,.02,.54,.02,1.31,0,2.63-.05,3.94,.02,2.01,.12,3.59,.99,4.47,2.88,.33,.71,.46,1.47,.39,2.26Z"/><path d="M212.54,8.36c0,1.9,0,3.81,0,5.7,0,.15-.04,.2-.2,.2-1.71,0-3.42,0-5.13,0q-.22,0-.22,.22v3.69c0,.13,.01,.27,.04,.4,.1,.4,.45,.64,.93,.64,1.14,0,2.29,0,3.43,0h.23c-.08,.37-.14,.71-.22,1.05-.2,.97-.41,1.94-.61,2.91-.02,.11-.06,.15-.16,.17-.72,.12-1.45,.27-2.18,.38-.62,.09-1.26,.15-1.89,.21-.43,.04-.87,.09-1.31,.1-.85,.02-1.7,.04-2.56,.02-.77,0-1.53-.07-2.26-.36-.99-.38-1.65-1.06-1.87-2.11-.04-.22-.07-.45-.07-.67,0-2.11,0-4.21,0-6.32q0-.22-.22-.22c-.75,0-1.5,0-2.25,0-.15,0-.2-.04-.19-.19,.03-.86,.05-1.71,.07-2.57,0-.16,0-.33,.03-.49,0-.07,.06-.14,.11-.19,.57-.5,1.15-.98,1.72-1.49,1.19-1.07,2.38-2.16,3.41-3.39,.21-.25,.39-.53,.59-.79,.04-.05,.12-.1,.18-.1,1.56,0,3.11,0,4.67,0,.15,0,.16,.07,.16,.18v2.61q0,.23,.23,.23h5.31q.21,0,.21,.2Z"/><path d="M138.81,22.09c0,.11-.04,.15-.15,.15-.31,0-.62,0-.93,0s-.6,0-.9,0c-.12,0-.17-.03-.17-.15,.01-.16,0-.32,0-.48-.01-.3,.14-.5,.4-.6,.45-.17,.91-.17,1.36,.03,.26,.12,.38,.34,.38,.62,0,.14,0,.29,0,.43Z"/><path d="M138.98,8.69c0,.2-.11,.36-.3,.45-.3,.15-.61,.15-.9,0-.17-.09-.27-.22-.28-.43,0-.21,.09-.37,.27-.46,.15-.07,.32-.1,.47-.15,.16,.05,.32,.07,.45,.14,.19,.09,.3,.25,.29,.45Z"/><path d="M138.98,17.44c0,.19-.11,.33-.28,.4-.14,.06-.3,.09-.46,.14-.16-.04-.32-.07-.47-.14-.17-.07-.27-.21-.27-.41,0-.2,.11-.33,.28-.4,.31-.14,.62-.14,.93,0,.17,.08,.28,.22,.27,.41Z"/></g><g><rect x=".71" y="70.35" width="78.19" height="5.22"/><path d="M19.3,64c-1.61,2.82-4.07,4.55-7.23,5.27-.66,.15-1.32,.22-1.99,.23-.13,0-.18-.03-.17-.16,0-.04,0-.08,0-.12v-19.79c.48,.04,.93,.05,1.37,.11,2,.27,3.81,1.01,5.4,2.27,1.8,1.42,3.04,3.22,3.57,5.47,.56,2.36,.23,4.63-.97,6.74Z"/><rect x=".72" y="57.75" width="8.44" height="11.73"/><path d="M30.57,63.03c-.89-1.94-2.44-2.91-4.57-2.95-1.55-.02-3.09,0-4.63,0h-.16v9.5s.07,0,.1,0c1.84,0,3.68,0,5.52,0,.66,0,1.28-.17,1.85-.5,.91-.53,1.51-1.32,1.89-2.29,.48-1.25,.58-2.52,0-3.76Zm-3.46,3.21c-.37,.61-.92,.93-1.65,.92-.28,0-.55,0-.84,0v-4.61s.04-.02,.06-.02c.39,0,.79-.06,1.18,.01,.74,.14,1.21,.63,1.47,1.32,.3,.82,.24,1.63-.21,2.38Z"/><rect x=".71" y="47.96" width="78.19" height=".77"/><path d="M9.06,53.37c0,2.28-1.85,4.13-4.13,4.13-2.28,0-4.11-1.84-4.11-4.12,0-2.28,1.84-4.12,4.13-4.12s4.12,1.84,4.12,4.11Z"/><path d="M64.28,67.59v2.05s-.02,.02-.04,.02c-.66,0-1.32,0-1.97-.12-.52-.1-.94-.35-1.19-.83-.01-.02-.03-.04-.06-.07-.46,.56-1.06,.9-1.75,1.07-1.11,.28-2.07,.04-2.83-.84-.31-.36-.46-.79-.49-1.27-.01-.23-.01-.46-.01-.7v-4.73h3.13v4.28c0,.1,0,.21,.04,.31,.07,.28,.32,.47,.61,.46,.15,0,.3-.02,.44-.07,.37-.11,.54-.35,.55-.74,0-.19,0-.37,0-.56v-3.69h3.09v4.7c0,.13,0,.27,.02,.4,.03,.22,.13,.3,.35,.31,.03,0,.06,0,.1,0Z"/><path d="M32.88,59.15s0,.02,0,.04h-2.91v-3.93c0-.1,0-.2-.02-.3-.11-.61-.69-.88-1.19-.51-.24,.17-.42,.43-.62,.66-.03,.04-.02,.11-.02,.17v3.91h-2.91v-7.33h2.94v.88c.1-.09,.17-.15,.24-.22,.84-.87,2.31-.9,3.09-.52,.92,.43,1.38,1.18,1.4,2.16,.03,1.66,0,3.32,0,4.97Z"/><path d="M54.68,63.38c-1.71-1.75-4.76-1.73-6.46,.04-1.26,1.32-1.37,3.26-.27,4.67,.9,1.13,2.1,1.63,3.38,1.67,1.22-.01,2.18-.33,3.03-1.01,1.72-1.39,1.86-3.8,.32-5.37Zm-2.35,3.6c-.5,.53-1.27,.49-1.73-.07-.22-.28-.33-.6-.33-.95,0-.4,.12-.74,.39-1.03,.47-.5,1.19-.5,1.66,0,.53,.54,.53,1.5,0,2.05Z"/><path d="M72.32,66.53v3.04h-2.91v-3.88c0-.11-.01-.22-.02-.32-.07-.62-.65-.91-1.17-.56-.25,.17-.44,.45-.65,.69-.03,.04-.02,.11-.02,.17v3.9h-2.9v-7.34h2.94v.89c.12-.11,.21-.19,.29-.27,.84-.84,2.46-.9,3.34-.32,.68,.44,1.05,1.08,1.1,1.87,.04,.71,.01,1.41,.01,2.12Z"/><path d="M46.02,57.08c-.29,.08-.58,.15-.87,.2-.58,.12-1.16,.13-1.73-.07-.55-.2-.87-.68-.82-1.26h4.39c0-.63-.06-1.23-.24-1.82-.28-.97-.83-1.73-1.78-2.13-.75-.33-1.53-.38-2.33-.26-1.23,.19-2.12,.84-2.62,1.99-.37,.84-.43,1.71-.29,2.6,.22,1.42,.98,2.41,2.38,2.86,.7,.23,1.42,.25,2.14,.21,.86-.05,1.7-.22,2.48-.57,.11-.05,.14-.11,.14-.22v-1.67s0-.09-.01-.12c-.29,.09-.56,.19-.84,.26Zm-3.03-3.35c.24-.16,.55-.15,.77,.01,.33,.25,.4,.59,.37,.98h-1.57c0-.4,.08-.75,.43-1Z"/><path d="M78.91,66.9c0,.69,0,1.37,0,2.05,0,.06-.02,.14-.07,.17-1.14,.68-2.36,.91-3.65,.51-.82-.25-1.4-.77-1.63-1.63-.05-.19-.06-.38-.06-.57,0-1.01,0-2.01,0-3.02v-.19h-1.07v-.46c0-.26,0-.52,0-.78,0-.06,.04-.15,.09-.19,1.1-.93,2.2-1.86,3.29-2.78,.04-.03,.09-.06,.14-.07,.22,0,.43,0,.67,0v2.3h2.13v1.93h-2.17v.19c0,.75,0,1.5,0,2.24,0,.28,.12,.45,.37,.55,.49,.19,.97,.14,1.44-.08,.18-.09,.35-.2,.53-.3,0,.04,.01,.08,.01,.12Z"/><path d="M39.51,56.47c0,.69,0,1.38,0,2.07,0,.06-.02,.14-.07,.17-1.18,.7-2.43,.92-3.74,.48-.76-.25-1.31-.75-1.54-1.55-.06-.2-.07-.41-.08-.61,0-1,0-2,0-3.01v-.21h-1.05c0-.06-.01-.11-.01-.15,0-.22,.02-.44,0-.65-.06-.41,.1-.66,.42-.92,.97-.78,1.91-1.6,2.86-2.41,.12-.11,.24-.17,.41-.15,.15,.01,.32,0,.5,0v2.31h2.14v1.91h-2.17c0,.08,0,.14,0,.19,0,.75,0,1.5,0,2.26,0,.28,.12,.44,.37,.53,.49,.19,.97,.15,1.44-.07,.19-.09,.36-.2,.55-.3,0,.03,0,.07,0,.1Z"/><path d="M46.18,67.28c.28-.07,.56-.18,.86-.28v2.29c0,.07,0,.14-.1,.17-1.47,.46-2.92,.49-4.33-.23-1.29-.67-1.89-1.76-1.91-3.19-.01-.99,.24-1.89,.94-2.62,.59-.62,1.35-.97,2.18-1.17,1.06-.25,2.09-.14,3.1,.2,.05,.01,.11,.08,.11,.12,0,.82,0,1.63,0,2.45,0,.01-.01,.02-.01,.04-.26-.11-.51-.24-.77-.32-.54-.18-1.1-.17-1.64,.02-.48,.17-.8,.49-.86,1.01-.06,.52,.15,.92,.57,1.22,.57,.4,1.2,.46,1.86,.29Z"/><path d="M39.85,69.14c-.4,.3-.87,.46-1.36,.53-1.05,.14-2.09,.11-3.12-.19-.17-.04-.34-.12-.5-.19-.04-.02-.09-.09-.09-.14,0-.72,0-1.44,0-2.17,0-.01,0-.02,.02-.06,.06,.04,.1,.07,.14,.1,.46,.31,.92,.61,1.46,.72,.22,.04,.45,.05,.68,.06,.17,0,.32-.06,.39-.23,.07-.18-.02-.32-.15-.43-.11-.09-.24-.17-.37-.24-.33-.19-.68-.37-1.01-.57-.74-.46-1.1-1.12-1.11-2-.01-.69,.26-1.21,.8-1.61,.5-.37,1.07-.55,1.68-.61,.7-.06,1.39,0,2.05,.24,.12,.05,.25,.11,.37,.17,.4,.19,.63,.44,.57,.93-.05,.41,0,.82,0,1.24v.21c-.53-.41-1.08-.69-1.68-.82-.17-.04-.38-.01-.56,.05-.25,.09-.32,.37-.14,.57,.12,.14,.29,.27,.46,.34,.51,.24,1,.51,1.41,.88,.27,.25,.51,.53,.67,.86,.37,.76,.1,1.81-.61,2.34Z"/><rect x="21.25" y="49.72" width="3.32" height="9.49"/><path d="M53.59,52.57c-.06,.8-.11,1.61-.16,2.44-.46-.28-.93-.41-1.43-.41-.17,0-.37,.04-.52,.11-.56,.28-.95,.7-1.12,1.31-.02,.07-.02,.16-.02,.24v2.94h-2.99v-7.33h2.85v1.18s.02,0,.04,.01c.02-.04,.06-.08,.09-.12,.23-.29,.44-.6,.7-.86,.61-.61,1.85-.45,2.35,.01,.15,.13,.23,.27,.21,.48Z"/><rect x="31.34" y="62.27" width="3.06" height="7.31"/><path d="M33.94,60.95c0,.59-.48,1.06-1.08,1.06s-1.08-.48-1.07-1.07c0-.59,.48-1.07,1.08-1.06,.59,0,1.07,.48,1.07,1.07Z"/></g><g><path d="M68.88,17.34h-.61q-.54,0-.69,.5s-.02,.02-.05,.05c-.94-.75-1.99-.76-3.05-.35-1.06,.41-1.8,1.19-2.36,2.17-.01-.07,0-.14,0-.2,.44-1.78,.88-3.55,1.31-5.33,.08-.32,.05-.35-.28-.35-.3,0-.61,.01-.9,0-.24-.01-.4,.07-.55,.25-1.83,2.07-3.66,4.13-5.48,6.19-.06,.06-.12,.12-.24,.25,.05-.26,.08-.43,.11-.61,.4-1.92,.8-3.84,1.21-5.76,.05-.24-.03-.31-.25-.3-.35,0-.71,.01-1.06,0-.27-.02-.44,.08-.61,.28-2.35,2.72-4.7,5.43-7.05,8.14-.06,.07-.09,.17-.13,.24-.27-.88-.47-1.7-.77-2.48-.38-.98-1.09-1.7-2.09-2.07-.85-.31-1.65-.24-2.37,.36-.06,.04-.12,.07-.18,.11,0-.07,.02-.11,.04-.14,.67-.79,1.53-.98,2.51-.77,1.11,.24,1.93,.9,2.51,1.86,.25,.42,.48,.86,.72,1.31,.02-.07,.04-.14,.06-.21,.23-.9,.21-.96-.42-1.65-.82-.89-1.74-1.57-3.01-1.68-1.12-.09-2.33,.42-2.7,1.58-.02,.04-.06,.08-.08,.12,0-.54,.22-.98,.59-1.34,.59-.59,1.33-.83,2.15-.86,.92-.04,1.74,.27,2.51,.74,.32,.19,.62,.4,.93,.59-.08-.4-.21-.77-.37-1.13-.04-.11-.17-.22-.27-.25-.51-.17-1.03-.35-1.55-.46-1.18-.24-2.28-.04-3.22,.75-.69,.58-1.01,1.32-.84,2.24,0,.06,0,.11,0,.17-.09-.09-.13-.18-.16-.28-.24-.84-.01-1.58,.52-2.23,.71-.87,1.66-1.31,2.77-1.37,.58-.04,1.14,0,1.77,0-.3-.24-.57-.47-.86-.67-.11-.07-.27-.12-.39-.09-.61,.14-1.22,.26-1.79,.48-.98,.37-1.71,1.04-2.11,2.02-.36,.88-.3,1.73,.33,2.49,.04,.04,.06,.11,.12,.2-.75-.46-1.14-1.44-.98-2.38,.21-1.19,.87-2.08,1.89-2.7,.43-.27,.89-.5,1.4-.78-.46-.06-.87-.12-1.27-.15-.11,0-.26,.03-.33,.11-.43,.4-.87,.79-1.25,1.23-.67,.79-.97,1.73-.87,2.77,.11,.95,.56,1.69,1.49,2.05,.07,.03,.14,.07,.2,.1-.11,.04-.2,.03-.29,0-.79-.19-1.31-.69-1.63-1.41-.44-1-.41-2.02,.04-3.01,.25-.56,.58-1.08,.9-1.66-.31,.12-.61,.24-.9,.38-.11,.05-.23,.17-.27,.29-.16,.48-.33,.97-.43,1.47-.22,1.15-.04,2.23,.71,3.16,.59,.73,1.36,1.06,2.31,.88,.05,0,.09,0,.14,0-.07,.08-.16,.12-.25,.15-.82,.24-1.55,.04-2.2-.46-.93-.72-1.37-1.7-1.44-2.85-.04-.54,0-1.09,0-1.69-.26,.33-.51,.64-.74,.97-.07,.1-.11,.27-.08,.39,.14,.58,.26,1.16,.47,1.71,.33,.88,.93,1.55,1.78,1.97,.95,.47,1.87,.48,2.73-.23,.04-.04,.1-.05,.14-.07-.41,.63-1.02,.93-1.75,.95-1.23,.04-2.22-.51-2.96-1.46-.35-.46-.7-.96-.88-1.5-.2-.61-.54-.72-1.11-.68-.68,.05-.52-.02-.74,.5-.35-.15-.67-.38-1.04-.46-1.13-.25-2.13,.06-3.03,.77-.69,.54-1.19,1.21-1.55,2,0-.04,0-.08,.02-.12,.13-.75,.27-1.5,.39-2.25,.06-.37,.01-.43-.33-.43-.28,0-.57,.01-.85,0-.25-.01-.35,.09-.4,.34-.27,1.5-.55,3.01-.83,4.52-.12,.61-.22,1.23-.33,1.85-.04,.19-.02,.35,.22,.35,.38,0,.77,.02,1.14,0,.09,0,.22-.14,.25-.24,.07-.2,.08-.41,.12-.62,.11-.63,.22-1.26,.33-1.89,.05,.08,.06,.16,.06,.24,.07,1.25,.9,2.34,2.03,2.61,.87,.22,1.68-.02,2.46-.43,.08-.04,.16-.09,.26-.14,0,.46,0,.48,.46,.48,.23,0,.46,0,.69,0,.22,0,.32-.09,.36-.3,.23-1.28,.46-2.56,.7-3.84,.08-.41,.16-.82,.25-1.27,.08,.07,.12,.11,.17,.15,.42,.4,.83,.83,1.27,1.21,.75,.66,1.65,.98,2.65,.91,1.04-.07,1.84-.53,2.23-1.57,.02-.06,.06-.11,.09-.15-.02,.68-.34,1.21-.87,1.6-.74,.56-1.59,.7-2.49,.6-.93-.11-1.71-.57-2.46-1.07-.07-.04-.14-.09-.2-.14-.02,.01-.05,.03-.07,.05,.14,.35,.27,.7,.43,1.04,.04,.1,.15,.2,.26,.24,.54,.16,1.08,.36,1.63,.45,1.22,.19,2.33-.08,3.23-.98,.51-.51,.74-1.13,.66-1.86-.01-.12-.02-.24-.04-.35,.25,.37,.32,.79,.24,1.21-.18,1.06-.83,1.75-1.74,2.24-.85,.45-1.76,.51-2.69,.45-.17,0-.34-.02-.51-.02-.01,.02-.02,.04-.02,.06,.21,.17,.42,.35,.62,.53,.16,.14,.34,.19,.54,.13,.59-.15,1.19-.27,1.76-.5,.93-.37,1.64-1.02,2.04-1.96,.37-.89,.33-1.74-.32-2.52-.04-.04-.06-.1-.09-.14,.46,.25,.72,.65,.86,1.13,.28,1,0,1.89-.55,2.72-.5,.75-1.23,1.21-2.01,1.61-.2,.11-.4,.2-.61,.3v.09c.39,.05,.77,.12,1.16,.14,.14,.01,.31-.05,.4-.14,.43-.4,.87-.79,1.25-1.23,.63-.75,.94-1.64,.87-2.63-.07-1.02-.53-1.81-1.53-2.19-.07-.03-.13-.07-.2-.1,.73,.02,1.28,.37,1.69,.95,.51,.74,.63,1.57,.52,2.44-.12,.96-.61,1.76-1.14,2.54-.06,.07-.11,.14-.16,.22l.06,.07c.38-.15,.77-.3,1.14-.46,.06-.02,.1-.12,.12-.19,.15-.51,.35-1,.45-1.52,.23-1.16,.06-2.26-.71-3.21-.59-.71-1.34-1.06-2.28-.87-.06,0-.11,0-.19-.01,.4-.24,.93-.31,1.44-.18,1.06,.27,1.73,.98,2.15,1.94,.34,.77,.43,1.58,.41,2.41-.01,.59-.12,1.16-.45,1.66-.11,.17-.03,.27,.19,.27,.47,0,.94-.02,1.41,.01,.27,.01,.42-.09,.58-.28,1.86-2.23,3.72-4.45,5.58-6.67,.07-.08,.14-.16,.22-.25-.03,.41-.11,.8-.19,1.19-.4,1.89-.8,3.79-1.21,5.68-.06,.27-.02,.31,.25,.32,.25,0,.5-.02,.74,0,.29,.02,.48-.09,.66-.3,1.88-2.21,3.77-4.41,5.65-6.61,.06-.07,.12-.13,.18-.2,.03,.11,.02,.19,0,.26-.51,2.17-1.01,4.34-1.52,6.51-.07,.3-.04,.33,.27,.34h.72c.79-.02,.62,.14,.82-.64,.19-.74,.37-1.47,.54-2.21,.07,.2,.09,.41,.11,.61,.11,1.2,1.1,2.26,2.29,2.41,.78,.11,1.49-.12,2.17-.48,.09-.04,.17-.09,.26-.14q0,.48,.47,.48c.22,0,.45,0,.66,0,.22,0,.33-.07,.38-.3,.39-2.15,.79-4.3,1.19-6.45,.04-.22-.05-.32-.27-.32Zm-32.88,3.72c-.26,.79-.77,1.37-1.5,1.74-.5,.25-1.01,.24-1.53,.08-.52-.17-.9-.83-.9-1.5,0-1.25,1.12-2.46,2.29-2.5,1.48-.05,1.94,1.29,1.65,2.18Zm28.31,1.87c-.6-.12-1.09-.77-1.11-1.49-.04-1.12,.9-2.3,1.99-2.54,1.13-.24,2,.47,2.02,1.61,.02,1.42-1.53,2.7-2.91,2.41Z"/><path d="M29.33,15.29c-.29,0-.59,.01-.88,0-.23-.01-.33,.07-.38,.3-.15,.75-.32,1.5-.48,2.28-.09-.06-.17-.11-.24-.15-.35-.21-.71-.38-1.13-.42-1.19-.11-2.18,.32-3.04,1.12-.52,.5-.91,1.08-1.19,1.74-.04-.14-.06-.26-.08-.39-.2-1.47-1.3-2.46-2.79-2.47-1.19-.01-2.15,.51-2.96,1.36-.28,.29-.5,.63-.75,.97,.01-.07,.01-.14,.02-.2,.13-.52,.26-1.03,.38-1.55,.31-1.24,.61-2.48,.92-3.71,.07-.3,.04-.35-.27-.35-.34,0-.67-.02-1.01,0-.14,.01-.32,.08-.41,.19-1.57,1.76-3.13,3.52-4.7,5.28-.33,.38-.67,.75-1,1.13-.02,0-.04-.01-.07-.02,.07-.33,.13-.66,.2-.98,.36-1.76,.72-3.51,1.08-5.27,.06-.27,.01-.32-.26-.32-.37,0-.73,0-1.1,0-.19,0-.32,.07-.45,.22-1.33,1.54-2.67,3.08-4.01,4.62-1.54,1.78-3.08,3.55-4.62,5.32-.07,.08-.09,.2-.12,.3,.09,.03,.19,.08,.28,.08,.46,.01,.92,0,1.39,.01,.22,.01,.36-.07,.5-.23,1.87-2.24,3.74-4.47,5.61-6.71,.07-.08,.14-.15,.24-.27,0,.11,.01,.16,0,.2-.3,1.45-.61,2.91-.92,4.36-.16,.76-.33,1.52-.5,2.28-.06,.3-.02,.36,.3,.36,.25,0,.51-.02,.77,0,.22,.01,.37-.06,.52-.24,1.87-2.2,3.74-4.38,5.62-6.57,.09-.11,.19-.2,.28-.31-.05,.45-.14,.87-.24,1.28-.43,1.82-.86,3.63-1.29,5.45-.08,.35-.05,.39,.27,.39,.37,0,.73-.01,1.1,0,.22,0,.31-.08,.36-.28,.17-.73,.36-1.46,.54-2.19,.02-.07,.04-.15,.07-.22,.06,.09,.05,.15,.06,.22,.07,1.21,.82,2.17,1.96,2.52,1.56,.48,3.58-.42,4.39-2.06,.11-.22,.03-.35-.22-.35-.3-.01-.6-.02-.9,0-.14,.01-.29,.09-.41,.17-.33,.22-.63,.5-.98,.66-.79,.35-1.62,.14-2.05-.49-.14-.21-.2-.46-.32-.75h5.35c0,.06,0,.11,0,.16-.01,1.62,1.47,3.35,3.68,2.64,.37-.12,.71-.3,1.07-.45,0,.44,0,.45,.46,.45,.24,0,.48,0,.72,0,.2,0,.3-.09,.33-.27,.03-.17,.06-.35,.09-.53,.5-2.67,.99-5.33,1.49-8.01,.04-.22-.05-.32-.27-.32Zm-12.32,4.74c.11-.53,1.14-1.18,1.79-1.12,.87,.07,1.43,.49,1.46,1.12h-3.25Zm10.2,1.04c-.27,.8-.78,1.39-1.53,1.75-.48,.23-1,.22-1.5,.06-.53-.17-.9-.84-.9-1.52,.01-1.24,1.14-2.43,2.3-2.47,1.48-.05,1.93,1.29,1.64,2.18Z"/><path d="M80.9,17.34h-1.16l.04-.3c.08-.48,.16-.96,.24-1.44,.04-.21-.04-.32-.27-.31-.33,0-.66,0-.98,0-.2,0-.3,.07-.33,.28-.08,.52-.17,1.03-.27,1.55-.02,.08-.1,.21-.16,.22-.24,.04-.47,.06-.71,.06-.47,0-.94-.02-1.4-.05-.19,0-.32,.06-.43,.2-.45,.52-.92,1.03-1.38,1.55-.04,.05-.1,.09-.15,.14,0-.32,.06-.61,.1-.89,.15-.9,.32-1.81,.46-2.72,.04-.27-.02-.33-.3-.33-.3,0-.61,0-.9,0-.25-.02-.37,.08-.4,.33-.08,.56-.19,1.11-.28,1.66-.59-.08-1.06,.17-1.57,.45,.1-.38-.12-.4-.37-.39-.24,0-.48,.01-.72,0-.27-.02-.39,.09-.44,.36-.38,2.12-.77,4.24-1.16,6.37-.04,.21,.03,.31,.24,.31,.27,0,.53-.02,.8,0,.29,.03,.4-.09,.46-.37,.22-1.18,.45-2.36,.72-3.53,.08-.38,.24-.77,.46-1.08,.3-.44,.78-.61,1.34-.61-.1,.59-.19,1.15-.28,1.71-.2,1.18-.4,2.37-.61,3.56-.04,.22,.05,.33,.28,.33,.34-.01,.67,0,1.01,0,.17,0,.26-.07,.29-.24,.06-.35,.13-.71,.2-1.06,.09-.52,.18-1.03,.28-1.62,.1,.14,.15,.22,.2,.3,.53,.79,1.05,1.58,1.57,2.38,.12,.19,.25,.25,.48,.25,.8-.01,1.61-.02,2.42,0,.29,.01,.38-.11,.43-.37,.28-1.66,.57-3.31,.85-4.97,.03-.17,.11-.22,.27-.21,.35,0,.69,0,1.04,0,.2,0,.33-.07,.35-.3,.02-.25,.08-.49,.12-.74,.07-.4,.04-.45-.37-.45Zm-3.85,6.46c-.08-.11-.13-.16-.17-.22-.61-.97-1.21-1.94-1.81-2.9-.07-.12-.1-.2,0-.33,.69-.81,1.36-1.63,2.04-2.45,.02-.03,.06-.06,.15-.14-.06,.28-.09,.5-.14,.72-.04,.25,.02,.34,.28,.35,.14,0,.28,0,.46,0-.28,1.66-.54,3.29-.82,4.98Z"/><path d="M31.53,15.58c-.07,.43-.13,.86-.23,1.27-.02,.09-.17,.19-.27,.21-.17,.04-.37,.01-.55,.01s-.37,0-.56,0c-.18,0-.28-.08-.25-.26,.07-.45,.15-.9,.25-1.35,.02-.07,.14-.17,.22-.17,.38-.02,.76-.01,1.14,0,.19,0,.28,.11,.25,.29Z"/></g><g><path d="M288.66,5.47c-1.29,4.83-2.59,9.65-3.88,14.47-.64,2.39-1.27,4.78-1.92,7.17-.44,1.61-1.44,2.69-3.1,3.09-.26,.07-.53,.07-.8,.11-1.83,0-3.42-1.36-3.87-3.22-.19-.79-.16-1.58,.05-2.36,1.79-6.66,3.57-13.32,5.36-19.97,.16-.61,.3-1.21,.5-1.81,.48-1.47,1.45-2.48,2.98-2.83,1.67-.39,3.31,.36,4.2,1.86,.66,1.1,.82,2.28,.49,3.51Z"/><path d="M300.31,5.49c-1.27,4.75-2.55,9.51-3.82,14.26-.67,2.52-1.32,5.05-2.05,7.56-.47,1.65-1.6,2.64-3.3,2.95-.17,.03-.36,.02-.53,.03-1.89,.02-3.54-1.48-3.9-3.42-.18-.93,0-1.81,.24-2.69,1.23-4.56,2.45-9.12,3.68-13.68,.67-2.49,1.31-4.98,2.01-7.46,.45-1.57,1.47-2.6,3.09-2.95,1.68-.37,3.38,.46,4.22,2.04,.56,1.06,.7,2.18,.38,3.35Z"/><path d="M305.42,28.68c-.88,1.19-2.1,1.74-3.56,1.58-1.71-.19-3.09-1.51-3.45-3.22-.35-1.59,.01-2.99,1.16-4.16,.74-.76,1.66-1.14,3.21-1.13,1.16,0,2.65,1.05,3.21,2.6,.56,1.55,.41,3.01-.56,4.34Z"/></g><g><path d="M171.06,75.38v.34h-4.74c0-.11-.01-.2-.01-.29-.03-2.68-.05-5.37-.08-8.05,0-.86-.16-1.68-.6-2.43-.49-.85-1.27-1.34-2.15-1.69-1.33-.53-2.69-.47-4.06-.17-.87,.19-1.71,.48-2.43,1.04-1.01,.79-1.55,1.82-1.55,3.12,.01,2.72,.02,5.43,.03,8.15v.3h-4.86v-12.57h-8.14v.29c.02,4.01,.03,8.01,.05,12.02q0,.35-.33,.35c-1.35,0-2.7-.02-4.05-.02-.23,0-.31-.05-.31-.31,0-3.97,0-7.95,0-11.92,0-.12,0-.25,0-.41h-2.49c0-.1-.01-.17-.01-.25,0-.87,0-1.74,0-2.62,0-.2,.06-.26,.26-.26,.65,0,1.29-.02,1.94-.03,.19,0,.26-.05,.26-.26,0-.5,0-1.01,.04-1.51,.09-1.16,.6-2.14,1.4-2.96,1.1-1.12,2.46-1.73,3.99-1.95,1.14-.16,2.3-.25,3.45-.29,.72-.03,1.46,.05,2.18,.16,.86,.13,1.73,.27,2.55,.53,1.5,.48,2.69,1.41,3.43,2.84,.13,.26,.23,.54,.3,.82,.08,.31,.12,.64,.18,.99-.11,0-.2,.01-.29,.01-1.37,0-2.73,.01-4.1,.02-.16,0-.24-.05-.29-.2-.35-1.14-1.11-1.83-2.27-2.11-1.15-.28-2.3-.32-3.46-.03-1.2,.3-2.04,1.01-2.33,2.23-.12,.49-.08,1.01-.1,1.53,0,.17,.14,.14,.24,.14,.82,0,1.64-.01,2.46-.02,3.33-.01,6.66-.02,9.99-.03h.28v2.07s.04,.02,.06,.02c.07-.08,.14-.15,.2-.23,.75-.96,1.77-1.47,2.92-1.79,1.96-.56,3.94-.56,5.94-.31,1.38,.17,2.71,.55,3.9,1.3,1.42,.89,2.34,2.11,2.46,3.84,.03,.39,.06,.79,.07,1.18,.03,3.13,.05,6.25,.07,9.38Z"/><path d="M191.02,67.38c-.01-1.04-.06-2.08-.14-3.11-.11-1.43-.95-2.43-2.12-3.12-1.43-.84-3-1.27-4.65-1.41-1.79-.15-3.58-.28-5.37-.01-1.15,.17-2.29,.36-3.35,.92-1.57,.82-2.55,2.08-2.97,3.78-.05,.21-.06,.42-.09,.64h4.87c.03-.16,.06-.29,.09-.42,.15-.57,.36-1.1,.9-1.43,2.13-1.27,4.33-1.38,6.59-.37,.49,.22,.98,.47,1.3,.96,.5,.78,.35,1.64-.46,2.09-.39,.21-.85,.32-1.29,.38-.98,.14-1.97,.22-2.95,.31-1.58,.15-3.16,.3-4.73,.45-.84,.08-1.7,.1-2.48,.47-.57,.27-1.16,.55-1.58,1.05-1.03,1.24-.98,2.65-.53,4.07,.35,1.11,1.24,1.81,2.27,2.25,1.69,.72,3.47,1.01,5.3,.95,2.35-.08,4.53-.75,6.53-2,.05-.03,.11-.05,.2-.1v2.03h.28c1.38,0,2.75,0,4.13,.03,.24,0,.31-.06,.31-.31-.02-2.7-.02-5.4-.06-8.1Zm-4.86,3.19c-.16,.36-.41,.7-.68,.98-1.26,1.35-2.86,1.97-4.68,1.96-1.2,0-2.35-.32-3.35-1-.51-.35-.76-.89-.73-1.52,.03-.63,.43-1.01,.98-1.24,.5-.21,1.03-.28,1.56-.34,1.73-.18,3.47-.36,5.2-.54,.57-.06,1.09-.25,1.59-.51,.08-.04,.16-.08,.31-.16-.05,.83,.13,1.63-.2,2.36Z"/><path d="M212.34,70.56s.06,.01,.11,.02c-.17,.7-.43,1.35-.82,1.96-.95,1.47-2.38,2.28-3.98,2.82-1.93,.66-3.93,.79-5.96,.66-1.21-.08-2.42-.2-3.6-.52-1.8-.49-3.42-1.29-4.68-2.69-.75-.83-1.25-1.83-1.46-2.93-.33-1.75-.27-3.51,.42-5.16,.74-1.79,2.09-3.02,3.91-3.68,2.2-.8,4.46-1.18,6.81-1.09,1.79,.07,3.55,.34,5.23,1,1.53,.6,2.77,1.56,3.59,3,.23,.4,.37,.86,.56,1.33-.14,0-.22,.02-.3,.02-1.53,.02-3.05,.03-4.58,.06-.17,0-.28-.06-.37-.2-.66-.96-1.55-1.58-2.68-1.86-2.05-.52-4.02-.31-5.85,.75-1.01,.59-1.63,1.52-1.95,2.65-.53,1.91,.16,3.98,1.75,5.18,.55,.41,1.19,.6,1.84,.78,1.49,.4,2.96,.38,4.44-.05,1.1-.32,2-.91,2.62-1.9,.06-.09,.18-.19,.28-.19,1.56,.01,3.12,.04,4.68,.06Z"/></g><g><path d="M312.2,64.81v8.92h-2.01v-10.94c2.32,.13,4.67,.05,6.94,.44,2.33,.4,3.48,2.55,2.91,4.73-.29,1.13-1.11,1.8-2.18,2.32l2.68,3.42c-1.42,.13-2.63,.29-3.48-1.15-.65-1.11-1.57-2.06-2.39-3.09,.81-.19,1.52-.3,2.18-.53,.82-.28,1.21-.93,1.25-1.78,.04-.88-.25-1.63-1.11-1.95-.63-.23-1.32-.33-2-.38-.89-.06-1.79-.02-2.79-.02Z"/><g><path d="M266.05,73.67c-.12,.05-.17,.08-.22,.09q-1.83,.12-2.4-1.59c-.51-1.53-1.02-3.07-1.59-4.8l-3.99,6.68-3.98-6.68c-.56,1.68-1.07,3.19-1.57,4.7q-.6,1.81-2.65,1.63l3.69-11.12,4.52,7.64,4.52-7.63,3.68,11.08Z"/><path d="M292.62,74.01l-8.58-7.01v6.7h-2.06v-11.04l8.61,7.05v-6.77h2.03v11.06Z"/><path d="M295.57,68.31c0-3.18,2.55-5.7,5.77-5.71,3.3-.02,5.95,2.57,5.91,5.79-.04,3.22-2.6,5.71-5.89,5.71-3.24,0-5.79-2.55-5.78-5.79Zm9.6,0c-.01-2.2-1.65-3.84-3.83-3.84-2.09,0-3.74,1.71-3.75,3.85,0,2.17,1.65,3.89,3.71,3.88,2.28-.01,3.88-1.63,3.87-3.89Z"/><path d="M267.63,73.65l6.05-11.2,6.12,11.31c-.57,0-.98-.05-1.37,.01-.65,.09-1.02-.18-1.19-.77-.29-1.01-.92-1.35-1.98-1.26-1.28,.1-2.57,0-3.85,.05-.31,.01-.81,.27-.88,.51-.42,1.48-1.43,1.71-2.89,1.36Zm4.03-3.68h4.04l-2.01-3.75-2.03,3.75Z"/></g><path d="M326.03,62.83c-.22-1.81,.1-2.53,1.1-2.59,.82-.05,1.47,.55,1.44,1.35-.03,1.02-.78,1.39-2.55,1.24Z"/><path d="M326.04,63.92c1.85-.2,2.52,.11,2.54,1.15,.02,.83-.57,1.42-1.39,1.38-1.04-.05-1.4-.81-1.16-2.53Z"/><path d="M324.84,62.83c-1.86,.18-2.48-.13-2.49-1.2-.01-.85,.58-1.44,1.37-1.37,1.01,.08,1.35,.84,1.12,2.58Z"/><path d="M324.95,63.88c-.15,.93,.39,1.95-.67,2.41-.41,.18-1.21,.06-1.51-.24-.31-.3-.44-1.09-.26-1.5,.45-1,1.44-.67,2.44-.67Z"/></g></g></svg>