<?xml version="1.0" encoding="UTF-8"?><svg xmlns="http://www.w3.org/2000/svg" viewBox="0 0 344.45 167.83"><g id="a"/><g id="b"><g id="c"><g><path d="M285.53,20.7c-.04,3.55-1.66,6.22-4.83,7.9-1.47,.78-3.05,1.22-4.68,1.49-1.59,.27-3.19,.35-4.8,.35s-3.1,.02-4.66-.01c-1.39-.03-2.78-.08-4.16-.2-1.71-.14-3.4-.45-5.01-1.08-1.72-.68-3.17-1.71-4.12-3.35-.6-1.02-.95-2.13-1.08-3.3-.1-.99-.14-1.98-.15-2.97-.02-1.87,0-3.75,0-5.62v-.97h.04V5.06c0-.33,0-.34,.34-.33h6.05c2.37,.01,4.74,.04,7.11,.04,.25,0,.31,.07,.31,.31,0,5.01,.01,10.03,0,15.04-.01,2.07,1.58,3.1,3.21,3,1.55-.09,2.6-1.22,2.6-2.8,.01-3.07,0-6.13,0-9.2V5.16q0-.35,.34-.35c4.4,0,8.79,0,13.19-.01,.23,0,.33,.05,.33,.31-.01,5.2,.04,10.39-.02,15.59Z"/><path d="M232.33,10.7h16.65q.33,0,.33-.32V1.06q0-.37-.37-.37h-31.44c-.24,0-.32,.06-.32,.31,.02,9.7,.03,19.39,.04,29.09q0,.35,.35,.35h14.09q.32,0,.32-.33v-7.18q0-.39,.39-.39h16.58q.36,0,.36-.37v-7.9q0-.39-.39-.39c-5.54,0-11.08-.01-16.63,0-.25,0-.32-.06-.31-.32,.01-.83,0-1.67,0-2.51q0-.35,.35-.35Zm-6.69-8.99q.56,0,.56,.59t-.58,.59-.58-.58,.6-.6Zm-4.99,11.05c0-.17,.07-.23,.24-.22h2.51c.82,0,1.64,0,2.46,0,.21,0,.31,.05,.29,.28-.02,.22-.01,.45,0,.67,0,.18-.07,.25-.25,.25-.5-.01-.99-.01-1.49-.01-1.15,0-2.3,0-3.45,.01-.23,0-.32-.07-.31-.3,.01-.22,.01-.44,0-.67Zm4.98,2.99c-.64,0-.59,.11-.59-.59s-.07-.61,.6-.61c.67-.01,.55-.05,.56,.54v.08c-.02,.65,.11,.59-.57,.58Zm.54-6.74c.01,.18-.06,.25-.25,.24h-2.21c-.26,0-.52,.03-.63,.3-.12,.3-.15,.63,.06,.9,.09,.12,.29,.2,.44,.2,.75,.03,1.5,.02,2.24,.02,.34,0,.35,.01,.35,.35v.57c0,.14-.05,.2-.21,.2h-3.68c-.17,0-.21-.07-.21-.22,0-.2,.02-.4,0-.6-.02-.22,.06-.33,.29-.3,.05,0,.1-.01,.2-.01-.62-.44-.62-1.01-.46-1.61,.15-.58,.59-.91,1.26-.92,.86-.02,1.73,0,2.59-.01,.16,0,.22,.07,.22,.22v.67Zm-5.52,7.47c0-.17,.07-.24,.24-.24h5.02c.17,0,.24,.06,.24,.23-.01,.22-.01,.43,0,.65,.01,.18-.06,.24-.25,.24-.83-.01-1.66,0-2.48,0s-1.66-.01-2.49,0c-.2,0-.29-.06-.28-.26,.01-.21,.01-.42,0-.62Zm1.01,6.35c.01,.26,.01,.53,0,.79-.01,.05-.09,.14-.15,.14-.27,.02-.54,.01-.85,.01,0-.34,0-.65,.01-.96,0-.04,.09-.12,.14-.12,.23-.01,.47-.01,.7,0,.05,.01,.14,.09,.15,.14Zm4.49,5.81c0,.22-.07,.3-.3,.3-.82-.01-1.64-.01-2.46-.01s-1.63,0-2.44,.01c-.21,0-.3-.06-.3-.28,.02-.8,.02-1.61,.03-2.41,.01-.5,.24-.89,.6-1.21,.49-.44,1.07-.66,1.74-.67,.58-.01,1.14,.05,1.68,.26,.72,.27,1.5,.98,1.45,2.09-.03,.64-.01,1.28,0,1.92Zm-4.11-4.87v-1.07h4.06c0,.33,0,.64-.01,.95,0,.04-.12,.11-.19,.12-.43,.01-.86,0-1.29,0h-2.57Zm5.75-2.14c.01,.14-.04,.21-.19,.2h-5.33c-.15,.01-.2-.06-.19-.2,0-.21,.01-.42,0-.62-.01-.21,.06-.3,.27-.27,.07,.01,.14,0,.22,0-.31-.3-.53-.59-.54-1.02-.02-.57,.23-.99,.66-1.32,.75-.57,2.12-.6,2.92-.12,.92,.55,.96,1.85,.3,2.36-.02,.01-.03,.04-.07,.1h.61c.38,0,.76,.01,1.14,0,.16,0,.22,.06,.21,.22-.01,.22,0,.44,0,.67Zm-.11-15.06c-.13,.45-.38,.8-.88,.91-.18,.05-.25-.01-.24-.19v-.57c-.01-.19-.02-.36,.22-.46,.22-.1,.29-.54,.2-.87-.1-.35-.34-.59-.64-.61-.16-.01-.31,0-.46,0,.14,.23,.33,.44,.4,.69,.23,.73-.09,1.49-.79,1.82-.94,.45-1.88,.4-2.77-.15-.6-.38-.85-1.07-.63-1.68,.08-.25,.28-.45,.43-.67q-.44-.03-.44-.51,0-.54,.54-.54h3.53c.84,0,1.37,.41,1.56,1.23,.13,.53,.13,1.07-.03,1.6Z"/><path d="M317.02,21.81c-.27,3.2-1.98,5.46-4.71,7.01-1.48,.84-3.09,1.28-4.77,1.53-1.66,.25-3.34,.18-5.01,.19-1.12,.01-2.24,.03-3.36,0-1.12-.03-2.24-.08-3.35-.18-1.31-.12-2.61-.27-3.91-.46-1.21-.18-2.39-.48-3.5-.99-.28-.12-.4-.26-.39-.59,.01-2.17,.01-4.34,.01-6.51v-.32c.57,.16,1.1,.31,1.64,.46,1.82,.52,3.67,.94,5.55,1.16,1.36,.17,2.74,.26,4.11,.31,1.23,.05,2.47,.02,3.7,.01,.48-.01,.94-.12,1.34-.39,.48-.33,.49-.74,.04-1.09-.44-.33-.97-.5-1.51-.54-1.37-.08-2.74-.11-4.12-.15-.76-.02-1.52,.02-2.29-.01-2.21-.1-4.29-.61-6.08-2-1.66-1.28-2.66-2.99-3.04-5.05-.36-1.99-.11-3.91,.81-5.71,1.24-2.41,3.21-3.86,5.89-4.3,.53-.09,1.07-.1,1.6-.15,.81-.06,1.62-.14,2.43-.19,.98-.05,1.97-.1,2.95-.11,1.14-.01,2.27,.02,3.41,.06,1.36,.05,2.73,.12,4.09,.2,1.2,.07,2.4,.15,3.6,.25,.99,.08,1.99,.19,2.98,.29,.16,0,.23,.08,.23,.25v6.71c0,.17-.06,.22-.22,.21-.59-.04-1.19-.08-1.78-.11-.41-.03-.83-.06-1.24-.08-.66-.03-1.31-.05-1.97-.06-1.02-.01-2.04-.04-3.06-.03-1.42,.02-2.85,.05-4.27,.09-.42,.02-.85,.06-1.25,.16-.26,.06-.51,.21-.71,.39-.32,.28-.29,.65,.03,.95,.29,.27,.66,.36,1.04,.41,.29,.04,.58,.04,.87,.04,2.12,0,4.25-.08,6.37,.04,3.25,.19,5.8,1.6,7.22,4.66,.54,1.15,.74,2.38,.63,3.65Z"/><path d="M344.39,5.2c0,3.07,0,6.15,0,9.22,0,.25-.07,.32-.32,.32-2.76-.01-5.52-.01-8.29-.01q-.35,0-.35,.35v5.97c0,.21,.02,.43,.07,.64,.16,.64,.72,1.03,1.51,1.03,1.85,.01,3.7,0,5.55,0h.37c-.13,.6-.23,1.15-.35,1.7-.32,1.56-.66,3.13-.98,4.7-.03,.17-.1,.24-.26,.27-1.17,.2-2.34,.44-3.52,.61-1.01,.15-2.03,.24-3.05,.34-.7,.07-1.41,.14-2.11,.16-1.37,.03-2.75,.06-4.13,.04-1.24-.01-2.48-.12-3.65-.58-1.6-.62-2.66-1.71-3.03-3.41-.07-.35-.12-.72-.12-1.08-.01-3.41,0-6.81,0-10.22q0-.35-.36-.35c-1.21,0-2.42-.01-3.63,0-.24,0-.32-.06-.31-.3,.05-1.39,.08-2.77,.12-4.15,0-.26,.01-.53,.05-.79,.01-.11,.09-.23,.17-.31,.92-.8,1.86-1.59,2.78-2.41,1.93-1.73,3.84-3.49,5.51-5.48,.34-.41,.63-.86,.95-1.28,.06-.08,.19-.16,.29-.16,2.52-.01,5.03,0,7.54-.01,.24,0,.26,.11,.26,.29V4.51q0,.37,.37,.37h8.58q.34,0,.34,.32Z"/><path d="M225.22,27.38c.01,.18-.06,.24-.24,.24-.5-.01-1,0-1.5,0s-.97-.01-1.46,0c-.19,0-.28-.05-.27-.25,.02-.26,.01-.51,.01-.77-.02-.48,.22-.81,.64-.97,.73-.28,1.47-.27,2.19,.05,.42,.19,.61,.55,.62,1,.01,.23,0,.47,.01,.7Z"/><path d="M225.5,5.73c-.01,.33-.18,.58-.48,.72-.49,.24-.98,.24-1.46,0-.28-.14-.44-.36-.46-.69-.01-.34,.14-.6,.44-.74,.24-.12,.51-.16,.76-.24,.26,.08,.51,.12,.73,.22,.3,.14,.48,.4,.47,.73Z"/><path d="M225.5,19.87c-.01,.3-.17,.54-.46,.65-.23,.09-.48,.14-.74,.22-.26-.07-.52-.12-.76-.22-.28-.12-.44-.34-.44-.67,.01-.32,.17-.53,.45-.65,.5-.23,1.01-.23,1.51,0,.28,.13,.45,.36,.44,.67Z"/></g><g><rect x="2.03" y="89.19" width="126.36" height="8.44"/><path d="M32.08,78.93c-2.61,4.56-6.57,7.35-11.68,8.51-1.06,.24-2.13,.35-3.21,.37-.21,0-.29-.05-.27-.26,.01-.06,.01-.13,.01-.2v-31.99c.77,.06,1.5,.08,2.22,.17,3.24,.43,6.16,1.64,8.73,3.67,2.91,2.3,4.92,5.2,5.77,8.84,.91,3.82,.37,7.48-1.57,10.89Z"/><rect x="2.05" y="68.84" width="13.64" height="18.95"/><path d="M50.29,77.37c-1.44-3.13-3.95-4.71-7.38-4.76-2.5-.04-4.99-.01-7.49-.01h-.26v15.35c.07,0,.11,.01,.16,.01,2.97,0,5.95,0,8.92-.01,1.07,0,2.07-.27,2.99-.81,1.47-.86,2.44-2.14,3.05-3.7,.77-2.02,.94-4.07,.01-6.07Zm-5.59,5.19c-.6,.99-1.49,1.51-2.67,1.49-.45-.01-.89,0-1.36,0v-7.45s.07-.04,.1-.04c.63,0,1.28-.09,1.9,.02,1.19,.22,1.96,1.02,2.37,2.13,.49,1.32,.39,2.63-.34,3.85Z"/><rect x="2.03" y="53.02" width="126.36" height="1.25"/><path d="M15.54,61.75c.01,3.68-2.99,6.67-6.68,6.67-3.68-.01-6.65-2.98-6.65-6.66,0-3.69,2.97-6.66,6.67-6.66s6.66,2.98,6.66,6.65Z"/><path d="M104.77,84.74v3.32s-.04,.03-.06,.03c-1.06,0-2.13,0-3.18-.19-.84-.16-1.52-.57-1.93-1.34-.02-.04-.05-.07-.09-.11-.75,.9-1.71,1.46-2.83,1.73-1.79,.45-3.35,.06-4.58-1.36-.5-.58-.75-1.28-.79-2.05-.02-.37-.02-.75-.02-1.13v-7.64h5.06v6.92c0,.16,.01,.34,.06,.5,.12,.45,.52,.76,.99,.74,.24-.01,.48-.04,.71-.11,.6-.18,.88-.56,.89-1.19,.01-.3,.01-.6,.01-.9v-5.96h4.99v7.59c0,.21,0,.43,.04,.64,.05,.35,.21,.48,.57,.5,.05,0,.1,0,.16,.01Z"/><path d="M54.03,71.1s0,.04-.01,.07h-4.7v-6.35c0-.16-.01-.33-.04-.48-.17-.99-1.12-1.42-1.93-.82-.39,.28-.68,.7-1,1.06-.05,.06-.03,.18-.03,.28v6.32h-4.7v-11.85h4.75v1.43c.16-.14,.28-.24,.39-.35,1.36-1.41,3.74-1.45,5-.84,1.48,.7,2.23,1.9,2.26,3.49,.05,2.68,.01,5.36,.01,8.04Z"/><path d="M89.26,77.94c-2.77-2.83-7.7-2.79-10.44,.07-2.03,2.13-2.22,5.27-.44,7.54,1.45,1.83,3.4,2.64,5.47,2.7,1.97-.02,3.53-.53,4.89-1.63,2.78-2.25,3.01-6.14,.52-8.68Zm-3.8,5.82c-.8,.85-2.06,.8-2.79-.11-.36-.45-.54-.97-.53-1.54,0-.64,.2-1.2,.63-1.66,.76-.8,1.92-.8,2.68-.01,.85,.88,.86,2.43,0,3.32Z"/><path d="M117.77,83.03v4.91h-4.7v-6.27c-.01-.18-.02-.35-.04-.52-.12-1-1.05-1.47-1.89-.9-.41,.28-.71,.73-1.05,1.11-.05,.06-.04,.18-.04,.27v6.31h-4.68v-11.86h4.75v1.44c.19-.17,.34-.3,.47-.43,1.36-1.35,3.97-1.45,5.39-.51,1.1,.71,1.7,1.74,1.77,3.03,.06,1.14,.02,2.28,.02,3.42Z"/><path d="M75.27,67.75c-.47,.13-.93,.24-1.4,.33-.94,.2-1.88,.21-2.79-.12-.89-.33-1.4-1.1-1.32-2.03h7.09c.01-1.02-.1-1.99-.38-2.94-.46-1.56-1.34-2.79-2.88-3.45-1.21-.53-2.47-.61-3.76-.42-1.98,.3-3.43,1.36-4.24,3.21-.6,1.35-.69,2.77-.47,4.21,.36,2.3,1.59,3.89,3.84,4.62,1.13,.37,2.29,.41,3.46,.34,1.39-.08,2.74-.35,4.01-.92,.17-.08,.23-.17,.22-.35v-2.7c0-.07-.01-.14-.02-.2-.47,.14-.91,.3-1.36,.42Zm-4.9-5.42c.38-.26,.89-.25,1.25,.02,.53,.4,.65,.95,.59,1.59h-2.53c.01-.64,.13-1.22,.69-1.61Z"/><path d="M128.42,83.63c0,1.11,0,2.21-.01,3.32,0,.09-.04,.23-.11,.27-1.85,1.1-3.81,1.47-5.9,.83-1.32-.41-2.27-1.25-2.64-2.63-.08-.3-.1-.61-.1-.92-.01-1.63-.01-3.25-.01-4.88v-.3h-1.73v-.75c0-.42-.01-.84,0-1.26,.01-.1,.07-.24,.14-.3,1.77-1.51,3.55-3.01,5.32-4.5,.06-.05,.15-.1,.23-.11,.35-.01,.7,0,1.08,0v3.72h3.44v3.12h-3.5v.31c0,1.21,0,2.42-.01,3.62,0,.46,.2,.73,.6,.89,.79,.3,1.57,.22,2.32-.13,.29-.14,.56-.32,.86-.49,.01,.06,.02,.13,.02,.19Z"/><path d="M64.75,66.77c0,1.12,0,2.23-.01,3.35,0,.09-.04,.23-.11,.27-1.9,1.13-3.92,1.49-6.04,.78-1.23-.41-2.12-1.22-2.49-2.5-.09-.32-.12-.66-.13-.99-.01-1.62,0-3.24,0-4.86v-.34h-1.7c0-.09-.02-.17-.02-.24,0-.35,.04-.71-.01-1.05-.1-.66,.16-1.07,.68-1.49,1.56-1.26,3.09-2.58,4.62-3.89,.2-.17,.39-.27,.67-.24,.25,.02,.51,0,.8,0v3.74h3.46v3.09h-3.51c0,.13,0,.22,0,.31,0,1.21,0,2.43-.01,3.65,0,.45,.2,.71,.59,.86,.79,.31,1.56,.24,2.32-.12,.3-.14,.58-.32,.89-.49,0,.05,.01,.11,.01,.16Z"/><path d="M75.53,84.23c.46-.11,.91-.29,1.39-.45v3.7c0,.12,0,.23-.16,.27-2.38,.74-4.72,.79-6.99-.37-2.09-1.08-3.05-2.85-3.08-5.16-.02-1.6,.39-3.06,1.52-4.24,.96-1.01,2.18-1.57,3.52-1.89,1.71-.41,3.37-.23,5.01,.32,.08,.02,.17,.13,.17,.2,.01,1.32,.01,2.64,.01,3.96,0,.02-.02,.04-.02,.06-.42-.18-.82-.38-1.25-.52-.88-.29-1.77-.28-2.65,.04-.77,.27-1.3,.79-1.39,1.64-.09,.84,.24,1.49,.92,1.97,.92,.64,1.94,.75,3,.47Z"/><path d="M65.3,87.25c-.65,.49-1.4,.74-2.19,.85-1.69,.23-3.38,.17-5.04-.3-.28-.07-.55-.19-.81-.31-.07-.03-.15-.14-.15-.22-.01-1.17-.01-2.33-.01-3.5,0-.02,.01-.04,.03-.1,.09,.06,.16,.11,.23,.16,.74,.5,1.48,.99,2.36,1.17,.36,.07,.73,.08,1.1,.09,.27,0,.52-.1,.63-.37,.11-.29-.04-.52-.25-.7-.18-.15-.39-.28-.6-.39-.54-.31-1.1-.59-1.63-.92-1.19-.74-1.78-1.81-1.8-3.23-.02-1.11,.42-1.95,1.29-2.6,.8-.6,1.73-.89,2.72-.98,1.13-.1,2.24-.01,3.32,.39,.2,.08,.4,.18,.6,.28,.65,.3,1.02,.71,.92,1.51-.08,.66,0,1.33,0,2v.34c-.85-.67-1.74-1.11-2.72-1.32-.28-.06-.62-.02-.9,.08-.41,.15-.52,.59-.23,.92,.2,.23,.47,.43,.75,.55,.82,.38,1.61,.82,2.28,1.43,.44,.4,.82,.85,1.09,1.39,.6,1.23,.16,2.92-.98,3.78Z"/><rect x="35.23" y="55.86" width="5.36" height="15.33"/><path d="M87.5,60.47c-.1,1.3-.17,2.6-.26,3.94-.74-.45-1.5-.67-2.31-.66-.28,0-.59,.06-.84,.18-.9,.45-1.54,1.13-1.81,2.12-.03,.12-.03,.26-.03,.38v4.75h-4.83v-11.85h4.61v1.9s.04,.01,.06,.02c.04-.06,.09-.13,.14-.19,.37-.47,.71-.97,1.13-1.39,.98-.98,2.99-.73,3.8,.02,.24,.21,.37,.43,.34,.78Z"/><rect x="51.54" y="76.14" width="4.94" height="11.81"/><path d="M55.74,74c0,.95-.78,1.72-1.74,1.72s-1.74-.78-1.73-1.73c0-.96,.78-1.73,1.74-1.72,.96,0,1.73,.77,1.73,1.73Z"/></g><g><path d="M112.21,19.71h-.99q-.88,0-1.12,.81s-.04,.04-.08,.08c-1.52-1.22-3.21-1.23-4.93-.56-1.72,.66-2.91,1.93-3.82,3.5-.02-.11,0-.22,.01-.32,.71-2.87,1.42-5.74,2.12-8.62,.13-.51,.08-.57-.45-.57-.49,0-.98,.02-1.46-.01-.38-.02-.64,.11-.89,.4-2.95,3.34-5.91,6.67-8.86,10-.1,.1-.19,.2-.38,.4,.08-.42,.13-.7,.18-.99,.65-3.1,1.3-6.21,1.96-9.31,.08-.39-.05-.5-.4-.49-.57,0-1.15,.02-1.72-.01-.43-.03-.71,.13-.99,.45-3.79,4.39-7.59,8.77-11.39,13.16-.1,.11-.15,.27-.21,.38-.44-1.43-.76-2.75-1.25-4.01-.62-1.58-1.76-2.75-3.38-3.35-1.37-.5-2.67-.38-3.83,.58-.09,.07-.2,.12-.29,.18-.01-.11,.03-.17,.07-.22,1.09-1.28,2.48-1.59,4.05-1.25,1.79,.39,3.12,1.46,4.06,3.01,.41,.68,.77,1.39,1.17,2.11,.04-.12,.07-.23,.1-.34,.37-1.45,.34-1.55-.68-2.66-1.32-1.44-2.82-2.54-4.86-2.71-1.81-.14-3.77,.68-4.36,2.55-.03,.07-.09,.13-.13,.19,0-.87,.36-1.58,.95-2.17,.96-.95,2.15-1.34,3.47-1.39,1.48-.06,2.81,.44,4.05,1.2,.51,.31,1,.64,1.5,.96-.13-.64-.34-1.24-.6-1.82-.07-.17-.27-.35-.44-.41-.83-.27-1.66-.57-2.51-.74-1.9-.38-3.69-.07-5.21,1.21-1.12,.94-1.64,2.14-1.35,3.62,0,.09,0,.18,0,.27-.14-.14-.21-.29-.26-.45-.39-1.35-.02-2.55,.84-3.6,1.15-1.41,2.69-2.11,4.48-2.22,.93-.06,1.85-.01,2.86-.01-.48-.38-.92-.76-1.39-1.09-.17-.12-.44-.19-.63-.15-.98,.23-1.97,.42-2.9,.77-1.58,.6-2.76,1.68-3.41,3.26-.58,1.43-.49,2.8,.54,4.03,.06,.07,.1,.17,.19,.33-1.22-.74-1.84-2.33-1.58-3.85,.34-1.93,1.41-3.36,3.05-4.37,.7-.43,1.44-.8,2.27-1.26-.75-.1-1.4-.2-2.05-.25-.18-.01-.42,.05-.54,.17-.69,.64-1.41,1.27-2.02,1.98-1.08,1.28-1.57,2.79-1.4,4.47,.17,1.54,.9,2.73,2.41,3.32,.11,.05,.22,.11,.33,.16-.17,.06-.33,.05-.47,.01-1.27-.3-2.12-1.12-2.63-2.28-.71-1.62-.66-3.27,.06-4.87,.4-.91,.94-1.75,1.45-2.68-.5,.2-.99,.38-1.46,.61-.18,.08-.37,.28-.43,.47-.26,.78-.54,1.57-.69,2.38-.36,1.86-.07,3.6,1.15,5.1,.96,1.18,2.2,1.71,3.73,1.42,.08-.01,.15,0,.23,0-.12,.13-.26,.2-.4,.25-1.32,.39-2.5,.06-3.55-.75-1.5-1.16-2.22-2.74-2.33-4.6-.06-.88,0-1.76,0-2.73-.42,.54-.83,1.03-1.19,1.56-.12,.16-.18,.44-.13,.63,.22,.93,.42,1.87,.76,2.76,.53,1.42,1.5,2.51,2.87,3.18,1.53,.76,3.03,.77,4.41-.37,.07-.06,.16-.08,.23-.11-.67,1.02-1.65,1.5-2.83,1.54-1.99,.06-3.58-.83-4.78-2.36-.57-.74-1.13-1.55-1.43-2.43-.33-.98-.87-1.17-1.8-1.1-1.1,.08-.84-.03-1.2,.8-.56-.25-1.09-.61-1.68-.74-1.82-.4-3.45,.1-4.9,1.24-1.11,.87-1.92,1.96-2.51,3.24,.01-.07,.01-.13,.03-.2,.21-1.21,.43-2.42,.63-3.63,.1-.59,.02-.69-.53-.69-.46,0-.92,.02-1.38-.01-.41-.02-.57,.15-.64,.55-.44,2.43-.89,4.86-1.34,7.3-.19,.99-.36,1.99-.54,2.99-.06,.31-.03,.57,.36,.57,.62,.01,1.24,.04,1.85-.01,.15-.01,.35-.22,.41-.38,.11-.32,.13-.67,.19-1.01,.18-1.02,.36-2.04,.54-3.05,.08,.13,.09,.26,.09,.38,.12,2.02,1.46,3.78,3.28,4.22,1.41,.35,2.72-.04,3.97-.69,.13-.07,.26-.14,.42-.22-.01,.75,.01,.77,.75,.77,.37,0,.75-.01,1.12,.01,.35,.01,.52-.14,.58-.48,.37-2.07,.75-4.14,1.13-6.2,.13-.67,.26-1.33,.4-2.06,.13,.12,.2,.18,.27,.25,.68,.65,1.34,1.34,2.05,1.95,1.22,1.06,2.67,1.58,4.28,1.47,1.68-.11,2.98-.85,3.6-2.53,.03-.09,.1-.17,.15-.25-.04,1.1-.55,1.95-1.4,2.59-1.2,.9-2.57,1.13-4.03,.97-1.5-.18-2.76-.92-3.98-1.73-.11-.07-.22-.15-.33-.22-.04,.02-.08,.05-.12,.08,.23,.56,.44,1.13,.69,1.68,.07,.16,.25,.33,.42,.38,.87,.26,1.74,.58,2.64,.72,1.97,.3,3.77-.13,5.22-1.58,.82-.82,1.2-1.83,1.06-3.01-.02-.19-.04-.38-.07-.57,.41,.6,.51,1.27,.39,1.95-.29,1.71-1.34,2.83-2.82,3.62-1.37,.72-2.84,.82-4.35,.73-.27-.01-.55-.03-.82-.04-.02,.03-.03,.07-.04,.1,.34,.28,.68,.56,1.01,.85,.26,.23,.55,.3,.87,.21,.95-.25,1.93-.44,2.84-.8,1.51-.59,2.65-1.65,3.29-3.16,.6-1.44,.53-2.82-.51-4.07-.06-.07-.09-.16-.14-.23,.74,.41,1.17,1.05,1.39,1.82,.45,1.61,.01,3.05-.89,4.39-.8,1.21-1.99,1.95-3.25,2.6-.32,.17-.65,.32-.98,.48v.14c.63,.08,1.25,.19,1.88,.23,.22,.02,.5-.08,.65-.22,.7-.64,1.41-1.27,2.02-1.99,1.02-1.21,1.52-2.65,1.4-4.25-.12-1.65-.85-2.92-2.48-3.54-.11-.05-.21-.11-.32-.16,1.18,.04,2.07,.6,2.73,1.54,.82,1.19,1.02,2.53,.84,3.94-.19,1.55-.99,2.84-1.85,4.1-.09,.12-.17,.23-.26,.35l.09,.12c.62-.24,1.24-.48,1.85-.75,.09-.04,.16-.19,.2-.31,.25-.82,.56-1.62,.73-2.46,.37-1.88,.1-3.66-1.15-5.18-.95-1.15-2.17-1.71-3.69-1.41-.09,.01-.18-.01-.31-.02,.65-.39,1.51-.5,2.32-.29,1.71,.44,2.79,1.59,3.48,3.14,.55,1.24,.69,2.56,.66,3.9-.02,.96-.19,1.87-.73,2.69-.18,.27-.05,.43,.31,.44,.76,.01,1.52-.03,2.28,.02,.43,.02,.68-.14,.94-.45,3-3.6,6.01-7.19,9.02-10.78,.11-.13,.23-.26,.35-.4-.05,.67-.18,1.3-.31,1.93-.65,3.06-1.3,6.12-1.95,9.18-.09,.44-.04,.5,.41,.51,.4,0,.81-.04,1.2,0,.47,.04,.77-.14,1.06-.49,3.04-3.57,6.09-7.12,9.13-10.68,.1-.11,.19-.21,.29-.32,.05,.18,.03,.3,0,.42-.82,3.51-1.64,7.02-2.46,10.52-.11,.49-.07,.54,.44,.55h1.16c1.27-.03,1.01,.22,1.33-1.03,.3-1.19,.59-2.38,.88-3.57,.11,.33,.14,.66,.17,.98,.17,1.94,1.78,3.65,3.7,3.9,1.26,.17,2.41-.2,3.5-.77,.14-.07,.27-.14,.42-.22q.01,.77,.76,.77c.36,0,.72-.01,1.07,.01,.36,.01,.54-.11,.61-.49,.63-3.48,1.28-6.95,1.93-10.42,.06-.36-.08-.51-.43-.51Zm-53.14,6.01c-.42,1.27-1.24,2.22-2.43,2.81-.8,.4-1.64,.39-2.47,.13-.84-.28-1.46-1.34-1.46-2.42,0-2.02,1.81-3.98,3.7-4.04,2.39-.08,3.13,2.08,2.66,3.52Zm45.76,3.03c-.97-.19-1.76-1.25-1.79-2.4-.06-1.81,1.45-3.72,3.22-4.1,1.82-.38,3.24,.76,3.27,2.6,.04,2.29-2.47,4.36-4.7,3.9Z"/><path d="M48.29,16.39c-.47,0-.95,.02-1.42,0-.37-.02-.54,.12-.61,.49-.24,1.21-.51,2.43-.78,3.69-.15-.1-.27-.17-.39-.24-.57-.34-1.15-.62-1.83-.68-1.93-.17-3.53,.52-4.92,1.81-.84,.8-1.47,1.74-1.92,2.82-.07-.22-.1-.42-.13-.63-.32-2.38-2.1-3.97-4.51-3.99-1.93-.02-3.48,.83-4.78,2.19-.45,.47-.81,1.02-1.22,1.56,.02-.12,.02-.22,.04-.32,.21-.84,.42-1.67,.62-2.5,.5-2,.99-4,1.49-5.99,.12-.49,.06-.57-.43-.57-.55-.01-1.09-.03-1.63,.01-.23,.02-.51,.13-.66,.3-2.54,2.84-5.06,5.69-7.59,8.54-.54,.61-1.08,1.22-1.62,1.82-.04-.01-.07-.02-.11-.04,.11-.53,.21-1.06,.32-1.59,.58-2.84,1.16-5.68,1.74-8.52,.09-.43,.02-.51-.42-.52-.59-.01-1.18,.01-1.77-.01-.31,0-.52,.11-.73,.35-2.15,2.49-4.32,4.97-6.48,7.46-2.49,2.87-4.98,5.73-7.46,8.6-.11,.13-.14,.32-.2,.48,.15,.05,.31,.13,.46,.13,.75,.02,1.49-.01,2.24,.02,.35,.02,.58-.11,.8-.37,3.02-3.62,6.04-7.23,9.07-10.84,.11-.13,.22-.25,.38-.44,0,.17,.02,.26,0,.33-.49,2.35-.98,4.7-1.48,7.05-.26,1.23-.54,2.46-.8,3.69-.1,.49-.03,.58,.48,.58,.41,0,.83-.03,1.25,0,.36,.02,.6-.1,.84-.38,3.02-3.55,6.05-7.08,9.08-10.62,.14-.17,.3-.33,.45-.5-.08,.72-.22,1.4-.38,2.07-.7,2.94-1.39,5.87-2.09,8.8-.13,.56-.08,.63,.44,.63,.59,0,1.18-.02,1.77,.01,.36,.01,.5-.13,.58-.46,.28-1.18,.58-2.36,.87-3.54,.03-.12,.07-.24,.11-.35,.09,.14,.08,.25,.09,.36,.12,1.96,1.32,3.5,3.16,4.07,2.52,.77,5.79-.68,7.09-3.33,.17-.35,.05-.56-.35-.57-.48-.02-.97-.04-1.46,.01-.23,.02-.47,.15-.67,.28-.54,.35-1.02,.81-1.59,1.07-1.27,.57-2.62,.23-3.31-.79-.22-.34-.33-.75-.52-1.22h8.64c0,.09,.01,.18,.01,.26-.02,2.61,2.37,5.42,5.94,4.26,.59-.19,1.15-.48,1.73-.72,0,.71,.01,.72,.75,.72,.39,0,.78-.01,1.16,.01,.32,.01,.48-.14,.53-.44,.05-.28,.1-.56,.15-.85,.8-4.31,1.6-8.62,2.41-12.94,.07-.36-.08-.51-.43-.51Zm-19.91,7.66c.18-.86,1.85-1.9,2.89-1.81,1.4,.12,2.31,.79,2.36,1.81h-5.25Zm16.49,1.68c-.43,1.29-1.26,2.24-2.48,2.83-.78,.37-1.61,.36-2.43,.09-.85-.28-1.46-1.36-1.45-2.46,.02-2,1.84-3.93,3.71-3.99,2.39-.08,3.12,2.09,2.65,3.53Z"/><path d="M131.64,19.71h-1.88l.07-.49c.13-.78,.26-1.55,.39-2.33,.06-.34-.07-.51-.44-.5-.53,.01-1.06,.01-1.59,0-.33-.01-.49,.11-.54,.45-.13,.84-.27,1.67-.43,2.5-.03,.13-.16,.34-.26,.36-.38,.07-.76,.1-1.14,.09-.76-.01-1.52-.04-2.27-.08-.3-.01-.51,.09-.7,.32-.73,.84-1.48,1.67-2.23,2.51-.07,.08-.16,.15-.25,.23,.01-.51,.09-.98,.16-1.44,.25-1.46,.51-2.93,.75-4.4,.07-.43-.03-.53-.48-.53-.49-.01-.98,.01-1.46-.01-.41-.03-.59,.13-.64,.54-.13,.9-.31,1.8-.46,2.69-.95-.13-1.71,.28-2.54,.72,.16-.61-.2-.64-.6-.63-.38,.01-.77,.02-1.16-.01-.44-.03-.63,.14-.71,.58-.61,3.43-1.24,6.86-1.87,10.29-.07,.34,.05,.5,.39,.5,.43,0,.86-.04,1.29,0,.47,.05,.65-.15,.74-.6,.36-1.91,.73-3.82,1.16-5.71,.13-.61,.39-1.24,.74-1.75,.49-.71,1.26-.98,2.16-.98-.16,.96-.31,1.86-.46,2.76-.33,1.91-.65,3.83-.98,5.75-.06,.36,.08,.54,.46,.53,.55-.02,1.09-.01,1.64,0,.27,0,.42-.11,.47-.39,.09-.57,.21-1.15,.32-1.72,.15-.84,.29-1.67,.46-2.62,.16,.23,.25,.35,.33,.48,.85,1.28,1.7,2.55,2.53,3.84,.19,.3,.41,.41,.77,.41,1.3-.02,2.61-.03,3.91,0,.47,.02,.62-.18,.69-.6,.45-2.68,.92-5.35,1.37-8.03,.05-.28,.17-.35,.43-.34,.56,.01,1.12,0,1.68,.01,.33,0,.53-.11,.57-.48,.04-.4,.13-.79,.2-1.19,.12-.64,.06-.73-.59-.73Zm-6.22,10.44c-.13-.17-.21-.26-.27-.36-.98-1.57-1.95-3.13-2.93-4.69-.12-.19-.16-.33,0-.53,1.11-1.31,2.2-2.64,3.3-3.96,.04-.05,.09-.09,.24-.23-.09,.46-.15,.81-.22,1.16-.07,.41,.04,.55,.46,.56,.23,.01,.45,0,.74,0-.45,2.69-.88,5.32-1.32,8.05Z"/><path d="M51.85,16.87c-.11,.69-.21,1.39-.37,2.06-.03,.15-.27,.31-.44,.34-.28,.06-.59,.02-.89,.02s-.6-.01-.9,0c-.29,.01-.45-.13-.4-.42,.12-.73,.24-1.46,.4-2.18,.03-.12,.23-.28,.36-.28,.61-.03,1.23-.02,1.84-.01,.31,0,.45,.17,.4,.47Z"/></g><g><path d="M22.14,127.48c-2.08,7.8-4.18,15.59-6.27,23.38-1.04,3.86-2.06,7.72-3.11,11.58-.71,2.61-2.33,4.35-5.01,5-.42,.11-.86,.12-1.29,.17-2.96,0-5.52-2.19-6.25-5.2-.31-1.27-.26-2.55,.08-3.81,2.89-10.76,5.77-21.52,8.66-32.28,.26-.98,.49-1.96,.8-2.93,.78-2.38,2.34-4.01,4.82-4.58,2.7-.63,5.35,.58,6.78,3,1.06,1.78,1.33,3.69,.79,5.67Z"/><path d="M40.97,127.51c-2.06,7.68-4.12,15.37-6.18,23.05-1.09,4.08-2.14,8.16-3.31,12.22-.76,2.66-2.59,4.26-5.34,4.76-.28,.05-.58,.03-.86,.05-3.05,.04-5.72-2.4-6.31-5.52-.29-1.5,0-2.92,.38-4.35,1.99-7.37,3.96-14.74,5.94-22.11,1.08-4.02,2.12-8.05,3.25-12.05,.72-2.53,2.37-4.2,4.99-4.77,2.72-.6,5.46,.75,6.82,3.3,.91,1.72,1.13,3.53,.62,5.42Z"/><path d="M49.23,164.99c-1.42,1.92-3.39,2.81-5.76,2.55-2.77-.3-4.99-2.44-5.58-5.2-.56-2.57,.02-4.84,1.87-6.73,1.2-1.23,2.69-1.84,5.19-1.83,1.87,0,4.28,1.7,5.19,4.2,.9,2.5,.67,4.86-.91,7.01Z"/></g><g><path d="M277.35,97.32v.54h-7.66c0-.18-.02-.32-.02-.47-.04-4.34-.09-8.67-.12-13.01-.01-1.39-.26-2.72-.96-3.94-.8-1.37-2.05-2.16-3.48-2.73-2.16-.85-4.35-.76-6.56-.28-1.41,.31-2.77,.78-3.92,1.68-1.63,1.28-2.51,2.94-2.5,5.04,.02,4.39,.03,8.78,.04,13.17v.48h-7.85v-20.31h-13.15v.47c.03,6.48,.05,12.95,.08,19.43q0,.56-.54,.56c-2.18-.01-4.37-.03-6.55-.03-.38,0-.51-.09-.51-.49,.01-6.42,0-12.85,0-19.27,0-.2,0-.4,0-.67h-4.02c0-.16-.02-.28-.02-.4,0-1.41,.01-2.82,0-4.23,0-.33,.1-.41,.42-.41,1.04,0,2.09-.04,3.13-.04,.31,0,.42-.09,.42-.41,0-.81,.01-1.63,.07-2.44,.14-1.88,.97-3.45,2.26-4.78,1.77-1.81,3.98-2.8,6.45-3.14,1.85-.26,3.72-.41,5.58-.47,1.17-.04,2.36,.09,3.52,.26,1.39,.21,2.79,.43,4.12,.86,2.43,.78,4.35,2.28,5.54,4.6,.21,.42,.37,.88,.48,1.33,.13,.51,.19,1.03,.29,1.6-.18,0-.33,.02-.47,.02-2.21,.01-4.42,.02-6.63,.04-.26,0-.39-.08-.46-.33-.57-1.84-1.8-2.96-3.67-3.41-1.86-.45-3.72-.52-5.59-.05-1.94,.49-3.3,1.63-3.77,3.61-.19,.79-.12,1.64-.16,2.46-.01,.28,.22,.22,.39,.22,1.33,0,2.66-.02,3.98-.03,5.38-.02,10.76-.03,16.15-.04h.46v3.35s.07,.03,.1,.04c.11-.12,.22-.25,.32-.37,1.22-1.55,2.86-2.37,4.72-2.9,3.17-.9,6.37-.9,9.59-.51,2.24,.27,4.38,.89,6.31,2.1,2.29,1.44,3.78,3.41,3.98,6.2,.05,.63,.1,1.27,.11,1.9,.05,5.05,.08,10.11,.12,15.16Z"/><path d="M309.6,84.4c-.02-1.68-.09-3.35-.22-5.03-.18-2.31-1.54-3.93-3.43-5.04-2.3-1.36-4.85-2.06-7.52-2.28-2.89-.24-5.79-.46-8.68-.02-1.86,.28-3.7,.59-5.41,1.48-2.54,1.33-4.12,3.35-4.79,6.12-.08,.33-.1,.68-.15,1.04h7.87c.05-.26,.09-.47,.15-.68,.25-.92,.59-1.78,1.46-2.3,3.44-2.06,7-2.22,10.64-.6,.8,.35,1.59,.76,2.1,1.54,.81,1.26,.56,2.66-.75,3.37-.62,.34-1.37,.52-2.08,.61-1.58,.22-3.18,.35-4.77,.5-2.55,.25-5.1,.48-7.65,.73-1.36,.13-2.74,.16-4.01,.76-.93,.44-1.88,.88-2.55,1.69-1.67,2-1.59,4.29-.86,6.57,.57,1.8,2,2.93,3.67,3.64,2.73,1.16,5.61,1.63,8.57,1.53,3.8-.13,7.32-1.21,10.55-3.23,.08-.05,.18-.08,.33-.16v3.28h.45c2.22,.01,4.45,.01,6.67,.05,.39,0,.5-.1,.49-.5-.04-4.36-.04-8.73-.09-13.09Zm-7.86,5.15c-.27,.58-.66,1.12-1.1,1.59-2.04,2.18-4.62,3.18-7.56,3.16-1.94,0-3.79-.51-5.41-1.61-.82-.56-1.23-1.44-1.18-2.45,.05-1.02,.69-1.63,1.59-2.01,.81-.35,1.66-.46,2.52-.55,2.8-.29,5.6-.58,8.4-.88,.92-.1,1.76-.41,2.57-.82,.13-.07,.26-.13,.5-.25-.08,1.35,.22,2.63-.33,3.82Z"/><path d="M344.05,89.53c.05,0,.1,.02,.18,.03-.27,1.14-.7,2.19-1.33,3.16-1.54,2.38-3.84,3.69-6.43,4.56-3.12,1.06-6.35,1.28-9.63,1.07-1.96-.13-3.92-.32-5.82-.83-2.9-.78-5.53-2.08-7.56-4.35-1.21-1.35-2.03-2.95-2.37-4.74-.54-2.84-.43-5.67,.68-8.34,1.2-2.89,3.37-4.88,6.32-5.95,3.55-1.29,7.22-1.91,11-1.76,2.9,.12,5.74,.55,8.45,1.62,2.46,.97,4.48,2.52,5.81,4.85,.37,.65,.59,1.38,.91,2.14-.23,.01-.36,.03-.49,.03-2.46,.03-4.93,.05-7.4,.09-.28,0-.44-.1-.59-.32-1.06-1.55-2.51-2.55-4.33-3.01-3.31-.84-6.5-.5-9.46,1.22-1.63,.95-2.64,2.46-3.15,4.28-.86,3.09,.26,6.44,2.82,8.37,.88,.66,1.92,.98,2.97,1.26,2.4,.65,4.79,.62,7.17-.08,1.78-.52,3.24-1.48,4.24-3.07,.09-.14,.3-.31,.45-.31,2.52,.02,5.04,.06,7.56,.09Z"/></g><g><path d="M317.97,152.82v14.41h-3.24v-17.68c3.75,.21,7.55,.08,11.21,.72,3.77,.65,5.62,4.13,4.7,7.65-.48,1.83-1.79,2.9-3.52,3.75,1.45,1.85,2.83,3.61,4.34,5.53-2.3,.22-4.25,.47-5.62-1.86-1.05-1.79-2.55-3.32-3.87-5,1.31-.31,2.45-.48,3.53-.85,1.32-.45,1.96-1.5,2.02-2.88,.06-1.42-.41-2.63-1.8-3.15-1.02-.37-2.14-.54-3.23-.61-1.44-.1-2.89-.02-4.51-.02Z"/><g><path d="M243.38,167.14c-.19,.08-.27,.14-.35,.14q-2.96,.19-3.88-2.57c-.83-2.48-1.65-4.96-2.58-7.75l-6.44,10.8-6.43-10.79c-.91,2.72-1.73,5.16-2.54,7.6q-.97,2.93-4.29,2.63l5.96-17.97,7.3,12.34,7.3-12.33,5.95,17.9Z"/><path d="M286.32,167.69l-13.87-11.32v10.83h-3.33v-17.85l13.92,11.4v-10.94h3.28v17.88Z"/><path d="M291.09,158.47c.01-5.14,4.12-9.21,9.33-9.24,5.34-.02,9.61,4.16,9.55,9.36-.06,5.2-4.21,9.22-9.53,9.24-5.23,.01-9.36-4.12-9.35-9.36Zm15.52,.01c-.02-3.56-2.67-6.21-6.19-6.2-3.37,0-6.05,2.77-6.05,6.22,0,3.5,2.67,6.29,6,6.27,3.68-.02,6.27-2.63,6.25-6.28Z"/><path d="M245.95,167.1c3.21-5.95,6.36-11.79,9.77-18.11,3.39,6.26,6.57,12.15,9.89,18.28-.92,0-1.58-.08-2.22,.02-1.05,.15-1.65-.29-1.93-1.24-.47-1.63-1.49-2.18-3.2-2.04-2.06,.17-4.15-.01-6.23,.08-.5,.02-1.31,.43-1.42,.82-.68,2.39-2.3,2.76-4.66,2.19Zm6.51-5.94h6.53l-3.25-6.06-3.28,6.06Z"/></g><path d="M340.32,149.62c-.36-2.92,.16-4.09,1.78-4.18,1.33-.08,2.37,.89,2.33,2.18-.05,1.65-1.25,2.25-4.12,2.01Z"/><path d="M340.34,151.38c2.99-.33,4.07,.18,4.11,1.86,.03,1.35-.92,2.3-2.24,2.23-1.68-.08-2.26-1.32-1.87-4.1Z"/><path d="M338.4,149.61c-3,.29-4-.21-4.02-1.95-.02-1.37,.94-2.32,2.22-2.22,1.64,.13,2.18,1.35,1.8,4.16Z"/><path d="M338.57,151.32c-.24,1.5,.62,3.15-1.09,3.89-.67,.29-1.95,.1-2.44-.38-.49-.49-.71-1.77-.42-2.42,.73-1.61,2.33-1.08,3.95-1.08Z"/></g></g></g></svg>